<?xml version="1.0" encoding="UTF-8"?>
<svg id="Capa_1" data-name="Capa 1" xmlns="http://www.w3.org/2000/svg" viewBox="0 0 150 150">
  <defs>
    <style>
      .cls-1 {
        opacity: .8;
      }

      .cls-2 {
        fill: #161e68;
      }

      .cls-3 {
        fill: #ffcb00;
        fill-rule: evenodd;
      }
    </style>
  </defs>
  <g class="cls-1">
    <path class="cls-3" d="M62.76,60.79l-9.95,17.22c-.07.14-.21.21-.36.21H.42c-.15.01-.28-.07-.37-.21-.07-.13-.07-.3,0-.42l9.95-17.22,13.74-23.78c.07-.14.21-.21.37-.21h19.69c.15,0,.28.07.36.21.08.13.08.3,0,.42l-13.36,23.15h31.59c.15-.01.3.07.37.2.07.14.07.3,0,.43Z"/>
    <path class="cls-3" d="M63.85,81.48l-9.94,17.22-9.94,17.22c-.08.13-.22.21-.37.21h-19.69c-.16,0-.3-.08-.37-.21s-.07-.3,0-.42l9.57-16.59H.64c-.16,0-.3-.07-.37-.21-.07-.13-.07-.3,0-.42l9.94-17.23c.08-.13.22-.21.37-.21h52.9c.16,0,.3.08.37.21.08.14.08.3,0,.43Z"/>
  </g>
  <g>
    <path class="cls-2" d="M117.75,34.64c.93.23,2,.01,2.5-.5.42-.43.69-1.77,1.12-4.59.09-.6.19-1.26.27-1.6.23,0,.6.02.86.03.48.02.85.04,1.13.03.15.54.38,1.81.54,2.7.26,1.46.43,2.37.58,2.73.46,1.11,1.68,1.41,2.76,1.67.44.11.85.21,1.17.35.32.14.77.39,1.25.65.96.53,1.94,1.07,2.6,1.14,1.46.16,3.31-1.28,4.66-2.32.37-.28.81-.63,1.01-.76.36.31,1.19,1.13,1.48,1.42-.2.39-.82,1.28-1.24,1.89-.83,1.19-1.34,1.94-1.49,2.38-.56,1.61.16,2.88.86,4.12.23.41.47.83.65,1.26.12.27.24.74.37,1.24.31,1.18.54,1.98.95,2.36.55.5,2.21.77,4.5,1.1.6.09,1.32.19,1.67.27,0,.23-.02.6-.03.87-.02.48-.04.85-.03,1.13-.58.16-1.97.42-2.94.6-1.32.24-2.15.4-2.48.52-1.1.4-1.38,1.59-1.63,2.63-.1.4-.19.79-.31,1.08-.14.32-.39.8-.66,1.32-.7,1.34-1.16,2.25-1.21,2.76-.1.92.16,1.69.73,2.17.37.32.85.48,1.38.48.27,0,.54-.04.83-.12,1.32-.37,2.15-2.59,2.87-4.55.25-.69.57-1.54.71-1.69.43-.31,1.57-.48,2.67-.64,1.49-.22,3.03-.45,3.89-1.11l.11-.12c.4-.6.31-7.8.22-8.16-.25-.95-2.04-1.37-5.71-1.9-.49-.07-1.03-.15-1.33-.21,0-.04,0-.09-.01-.14-.04-.38-.09-.86-.2-1.15-.12-.34-.37-.83-.63-1.35-.26-.51-.69-1.35-.7-1.57.01-.45.62-1.22,1.21-1.98,1.06-1.35,2.26-2.87,1.95-4.5-.17-.88-4.47-5.18-5.35-5.35-1.61-.31-3.15.89-4.5,1.95-.75.59-1.53,1.2-1.97,1.21-.23-.02-1.07-.45-1.58-.7-.52-.26-1-.51-1.35-.63-.29-.1-.77-.15-1.15-.2-.05,0-.09-.01-.13-.01-.06-.29-.13-.81-.2-1.28-.39-2.71-.77-4.99-1.57-5.6l-.14-.1-8.24.08-.12.08c-.95.64-2.3,8.55-2.04,9.43.17.58.67,1,1.39,1.17Z"/>
    <path class="cls-2" d="M130.96,55.35c-.19,1.36.47,2.58,1.56,2.89.16.05.34.07.52.07.82,0,1.78-.52,2.43-2.02,2.59-5.9,0-13.46-5.79-16.86-1.87-1.1-5.61-2.44-7.72-1.83h0c-.82.24-1.41.95-1.53,1.85s.26,1.74,1,2.2c.54.33,1.44.43,2.38.54.63.07,1.28.15,1.73.29,3.41,1.07,6.27,4.86,6.37,8.46.03,1.07-.25,1.9-.51,2.69-.18.54-.37,1.1-.45,1.72Z"/>
    <path class="cls-2" d="M90.14,67.16h-14.01c-2.88,0-6.64,3.76-6.72,6.72v46.65c.57,2.88,2.43,5.1,5.1,6.11l70.43.03.09-.03c2.49-.97,4.38-3.02,5.05-5.46l.05-47.32c-.05-3.06-3.7-6.69-6.73-6.69h-53.26ZM102.47,122.64c-4.57-.02-9.23-.03-13.92-.03-3.74,0-7.49.01-11.23.04-.4.08-1.49-.37-2.47-1.16-.68-.55-.91-.95-.92-1.06v-28.92c.83.42,1.72.66,2.6.89l.62.16,23.69,4.5c.06.63.08,1.23.11,1.81.09,2.17.18,4.22,1.93,6.38,2.22,2.73,5.76,3.86,9.22,2.92,3.52-.94,6.06-3.73,6.63-7.26.06-.37.07-1.02.09-1.78.01-.63.04-1.63.11-2.06l24.8-4.79,2.21-.92v28.1c0,1-1.61,2.88-2.76,2.95-13.54.31-27.35.27-40.7.22ZM114.37,88.57v11.14c0,.57-.8,2.41-1.25,2.89-.87.93-2.12,1.44-3.42,1.38-1.33-.06-2.55-.68-3.36-1.71-.14-.17-.7-1.1-.85-1.38v-12.31h8.88ZM141.85,88.07c-7.86,2.05-18.73,3.73-21.88,4.2-.39.06-.75.09-1.1.09v-5.09c0-.47-1.18-2.08-1.48-2.3-.8-.61-2.05-.84-2.95-.92-1.21-.11-10.67-.48-12.43,1.08-.16.14-1.04,1.49-1.04,1.82v5.41c-.35,0-.71-.03-1.1-.09-6.15-.91-15.14-2.48-21.95-4.14-2.48-.61-3.79-1.55-4-2.87-.3-1.87-.27-8.61-.02-10.69.3-2.48,2.55-2.86,3.48-2.91l65.8.15c1.14.32,1.85.82,2.22,1.58.72,1.48.76,8.83.52,10.95-.26,2.32-1.58,3.08-4.08,3.73ZM124.89,53.8h-30.1c-2.68,0-4.86,2.18-4.86,4.86v8.51h5.15v-6.86c0-1.1.89-2,2-2h25.81c1.1,0,2,.89,2,2v6.86h4.86v-8.51c0-2.68-2.18-4.86-4.86-4.86h0Z"/>
    <circle class="cls-2" cx="109.83" cy="99.3" r="2.26"/>
    <path class="cls-2" d="M66.14,110.35l-.21-.08c-2.06-.28-4.41-.15-6.68-.03-2.29.12-4.66.26-6.62-.05-.83-.13-1.21-.5-1.33-1.26l-.03-78.73c.03-1.72.67-2.09,1.31-2.21h42.66v9.22c0,.95.87,3.23,1.37,4.01.42.66,3.25,2.7,4.07,2.7h9.54v6.67c0,.73.88,1.21,1.75,1.3,1.02.11,2.33-.32,2.68-1.9.36-1.65.27-8.87-.54-10.53-.24-.49-.99-1.38-1.73-2.25l-.15-.18c-2.51-2.94-6.15-6.83-9.74-10.39-.16-.16-.32-.32-.48-.49-.83-.85-1.68-1.73-2.89-2.18l-.08-.03-47.81-.16c-1.76.14-3.07,1.83-3.89,3.08l-.08.12-.03,5.33c-.16,25.9-.32,52.69.14,78.92v.12s.05.1.05.1c.98,1.91,2.73,3.03,5.08,3.24,1.59.14,4.13.22,6.6.22,2.32,0,4.59-.07,5.95-.23,1.29-.15,2.2-.82,2.42-1.78.22-.94-.27-1.91-1.32-2.59ZM99.74,37.22v-5.69s.02.02.03.03c.66.72,1.32,1.44,1.99,2.15,1.71,1.84,3.48,3.73,5.07,5.72h-5.19c-.72,0-1.89-1.49-1.89-2.21Z"/>
  </g>
  <rect class="cls-2" x="56.55" y="34.44" width="35.57" height="4.79" rx="2.39" ry="2.39"/>
  <rect class="cls-2" x="56.55" y="42.89" width="35.57" height="4.79" rx="2.39" ry="2.39"/>
  <rect class="cls-2" x="56.55" y="50.93" width="29.15" height="4.79" rx="2.39" ry="2.39"/>
  <rect class="cls-2" x="56.55" y="58.96" width="29.15" height="4.79" rx="2.39" ry="2.39"/>
</svg>