<?xml version="1.0" encoding="UTF-8"?>
<svg id="Capa_1" data-name="Capa 1" xmlns="http://www.w3.org/2000/svg" viewBox="0 0 150 150">
  <defs>
    <style>
      .cls-1, .cls-2 {
        fill: #161e68;
      }

      .cls-1, .cls-3 {
        fill-rule: evenodd;
      }

      .cls-3 {
        fill: #ffcb00;
        opacity: .8;
      }
    </style>
  </defs>
  <path class="cls-3" d="M62.76,60.79l-9.95,17.22c-.07.14-.21.21-.36.21H.42c-.15.01-.28-.07-.37-.21-.07-.13-.07-.3,0-.42l9.95-17.22,13.74-23.78c.07-.14.21-.21.37-.21h19.69c.15,0,.28.07.36.21.08.13.08.3,0,.42l-13.36,23.15h31.59c.15-.01.3.07.37.2.07.14.07.3,0,.43Z"/>
  <path class="cls-3" d="M63.85,81.48l-9.94,17.22-9.94,17.22c-.08.13-.22.21-.37.21h-19.69c-.16,0-.3-.08-.37-.21s-.07-.3,0-.42l9.57-16.59H.64c-.16,0-.3-.07-.37-.21-.07-.13-.07-.3,0-.42l9.94-17.23c.08-.13.22-.21.37-.21h52.9c.16,0,.3.08.37.21.08.14.08.3,0,.43Z"/>
  <path class="cls-1" d="M50.1,72.14l6.22,5.94h0s.04.04.06.06l.05.04h0s0,0,0,0h0c.1.09.26.2.38.25h0s.01,0,.01,0h0c.06.03.11.05.17.07h0s.01,0,.01,0h0c.08.03.19.06.27.08h.74c.13-.03.28-.07.4-.13h.01s.1-.06.1-.06h0s.09-.05.09-.05c2.37-1.72,4.55-3.88,6.89-5.63.39-.32.62-.78.67-1.25.05-.47-.08-.95-.4-1.34h-.01c-.32-.41-.78-.64-1.25-.68-.47-.05-.96.09-1.36.41h0s-4.01,3.28-4.01,3.28l.03-1.88c.1-7.58,2.56-14.77,6.78-20.71,4.21-5.93,10.17-10.62,17.29-13.22.48-.17.84-.53,1.04-.96.2-.43.24-.94.06-1.41-.17-.48-.53-.84-.96-1.04-.43-.2-.94-.24-1.41-.06-3.84,1.4-7.41,3.36-10.62,5.8-3.2,2.44-6.04,5.38-8.43,8.73-2.28,3.21-4.06,6.68-5.31,10.34-1.25,3.67-1.96,7.51-2.11,11.44l-.07,1.94-2.78-2.66c-.37-.35-.85-.52-1.32-.51-.47.01-.94.2-1.29.57-.35.37-.52.85-.51,1.33.01.47.2.94.57,1.29h0ZM108.47,35.74c0,.73.28,2.1.51,3.25.11.54.21,1.03.26,1.37.22,1.19.47,2.38.65,3.57.08.53.17,1.11.4,1.46.12.19.26.36.43.49.16.13.34.23.56.31.45.16.92.13,1.34-.05.42-.17.77-.5.97-.92.26-.57.13-1.23,0-1.91-.03-.16-.06-.31-.1-.54-.03-.15-.07-.35-.11-.56-.11-.5-.22-1.03-.22-1.49v-1.46l1.28.68c.23.12.48.27.71.41l.05.03c.71.43,1.41.88,2.1,1.36.73.51,1.42,1.03,2.08,1.55l.18.14c.38.3.77.61,1.14.97l.89.83c.3.27.62.56.93.88.32.32.61.63.88.94.6.68,1.19,1.38,1.76,2.11.57.73,1.12,1.47,1.63,2.24h0c1.01,1.52,1.93,3.13,2.71,4.8.76,1.61,1.39,3.27,1.87,4.96.27.93.52,1.9.73,2.89.21.98.39,1.99.5,2.99l.03.27c.03.25.06.49.08.79.02.3.04.51.06.73.05.49.09.98.09,1.5,0,.2,0,.38.01.56,0,.12.02.3.04.51v.11l-.09,2.24v.09c-.01.06-.01.13-.01.2,0,.09,0,.19,0,.28l-.16,1.65h0c-.04.34-.08.69-.13,1.07-.05.37-.11.73-.17,1.05l-.11.56c-.21,1.1-.42,2.19-.78,3.29-.09.27-.15.5-.23.78l-.02.07c-.06.21-.14.43-.21.65,0,.01.02-.05-.09.28-.18.54-.41,1.13-.65,1.72v.02c-.35.86-.72,1.67-1.11,2.45-.4.81-.82,1.58-1.26,2.35-.13.23-.27.48-.37.72-.08.21-.14.45-.14.7,0,.47.21.93.53,1.27.31.33.7.55,1.08.55.31,0,.56-.02.76-.07.18-.05.36-.13.55-.26.41-.28,1.03-1.3,1.66-2.53,1.08-2.1,2.12-4.7,2.43-5.62l.88-2.85c.4-1.36.73-3.02.97-4.7.24-1.7.37-3.43.37-4.91,0-1.38-.02-2.7-.11-3.98-.08-1.29-.23-2.56-.48-3.86-.37-1.97-.85-3.87-1.47-5.72-.61-1.86-1.35-3.65-2.22-5.4h0s-.07-.15-.07-.15h0c-.05-.11-.1-.22-.17-.33-.09-.15-.15-.27-.21-.39-.04-.07-.07-.15-.11-.21h0c-.24-.43-.48-.85-.68-1.19-.23-.39-.47-.77-.72-1.12l-.03-.05-.45-.76c-.45-.67-.93-1.35-1.44-2.02-.5-.66-1.02-1.3-1.57-1.92h0s-.39-.45-.39-.45h-.01c-.67-.81-1.45-1.58-2.23-2.35l-.4-.4-.9-.8c-.85-.72-1.68-1.39-2.53-2.04-.85-.64-1.72-1.25-2.66-1.84-.09-.06-.12-.08-.15-.1-.08-.06-.17-.12-.17-.12l-1.24-.33.76-1.03c.26-.36.59-.44.91-.52l.11-.03c.29-.1.37-.12.45-.15.76-.24,1.38-.44,1.78-1.08.18-.3.26-.61.26-.91,0-.32-.09-.62-.25-.89-.16-.28-.4-.52-.68-.69-.3-.18-.66-.29-1.05-.29s-2.03.55-2.71.78l-.13.04c-.57.19-1.46.46-2.4.75-1.46.45-3.05.94-3.64,1.17-.33.13-.63.36-.83.65-.18.25-.29.56-.29.9h0ZM46.63,116.38c-.51,0-.97-.21-1.31-.54-.33-.33-.54-.8-.54-1.31v-26.94c0-.51.21-.98.54-1.31.33-.33.79-.54,1.31-.54h10.89c.51,0,.97.21,1.31.54.33.33.54.8.54,1.31v1.66h5.54l3.26-.95c.75-.22,1.53-.41,2.31-.56.79-.15,1.58-.27,2.36-.35l.62-.06.15-.6c.95-3.81,2.24-7.13,3.65-9.97,1.81-3.65,3.81-6.52,5.57-8.66l.95-1.16-1.48-.26c-.44-.08-.82-.31-1.09-.63-.27-.32-.43-.73-.43-1.19,0-.51.21-.98.54-1.31.33-.33.79-.54,1.31-.54h3.21l-3.56-8.43c-.12-.29-.16-.59-.14-.89.03-.3.13-.59.3-.85.17-.26.4-.47.66-.61.26-.14.56-.22.88-.22h23.83c.31,0,.61.08.88.22.26.14.49.35.66.61.17.26.27.55.3.85.03.3-.02.61-.14.9l-3.56,8.43h3.21c.51,0,.97.21,1.31.54.33.33.54.8.54,1.31,0,.47-.18.9-.47,1.23-.29.33-.71.55-1.17.61l-1.58.18.99,1.24c1.95,2.43,4.24,5.8,6.24,10.14,2.01,4.34,3.73,9.65,4.53,15.93.06.45.09.9.11,1.35.01.45,0,.9-.02,1.36l-.05.82.82.11c.54.07,1.08.21,1.59.42.51.21.99.48,1.44.82h.01c.43.33.82.7,1.15,1.13.34.43.62.9.84,1.41.69,1.62.66,3.37.06,4.88-.6,1.5-1.77,2.78-3.37,3.48-.04.01-.08.03-.12.05l-25.94,11.06h0c-1.26.54-2.54.95-3.85,1.21-1.3.27-2.64.4-4.01.4-1.53,0-3.07-.18-4.57-.54-1.51-.36-2.97-.88-4.34-1.57l-14.58-7.3h-5.37v1.24c0,.51-.21.98-.54,1.31-.33.33-.79.54-1.31.54h-10.89ZM88.08,55.71h-1.32l3.08,7.31h12.09l3.08-7.31h-16.93ZM74.99,90.98h.05s.04,0,.04,0c1.9-.02,3.78.2,5.6.65,1.82.46,3.58,1.15,5.24,2.06,3.17,1.75,6.36,3.47,9.52,5.24h0c.84.48,1.74.99,2.6,1.43h0c.32.16.6.38.82.64.23.27.41.57.52.91h0c.11.34.16.69.13,1.03-.02.35-.12.69-.28,1.01-.16.32-.36.57-.58.77-.28.26-.58.42-.82.52h0s-.04.01-.06.02c-.14.05-.3.09-.46.12-.17.03-.33.05-.48.05-.2,0-.41-.02-.61-.07-.2-.05-.39-.12-.58-.21h0s-11.18-5.6-11.18-5.6c0,0-.02,0-.02,0-.45-.22-.95-.24-1.4-.09-.45.15-.84.47-1.07.92,0,0,0,.02,0,.02-.22.45-.24.95-.09,1.4.15.45.47.84.93,1.07l11.18,5.6h0c.43.22.9.39,1.38.5.48.11.97.17,1.47.17.4,0,.79-.03,1.16-.1.37-.07.75-.18,1.13-.32,5.76-1.64,12.79-4.61,18.58-6.7h0s1.08-.39,1.08-.39c.42-.13.85-.16,1.27-.09.42.07.82.24,1.16.51l.03.02h0s0,0,0,0h0c.18.13.34.29.47.46.13.17.24.36.33.57.29.68.28,1.41.02,2.04-.25.64-.75,1.18-1.42,1.47h0l-26.02,11.1h0c-1.01.44-2.06.77-3.14.99-1.08.22-2.17.33-3.26.33-1.25,0-2.5-.15-3.72-.44-1.21-.29-2.4-.72-3.53-1.28l-14.96-7.49c-.12-.06-.26-.11-.4-.14-.14-.03-.28-.05-.43-.05h-5.82v-16.65h5.82c.1,0,.18,0,.26-.02.08-.01.17-.03.25-.06h0l3.51-1.03c.92-.27,1.85-.48,2.79-.62.94-.15,1.89-.23,2.85-.25h.02s.03,0,.03,0h.01s.07,0,.07,0h0ZM54.79,112.69h.88v-23.24h-7.19v23.24h6.31ZM115.97,96.51c-.03.62-.11,1.23-.25,1.83l-.11.47-12.33,4.45-.11-1.12c-.02-.23-.06-.46-.11-.71-.05-.25-.12-.48-.19-.7-.16-.49-.39-.97-.67-1.41-.28-.44-.61-.84-.98-1.2l-.64-.61.61-.64c.56-.58,1.03-1.26,1.38-2,.34-.72.57-1.52.68-2.36.2-1.65-.15-3.19-.94-4.45-.8-1.26-2.06-2.26-3.67-2.83-.42-.15-.82-.29-1.19-.44-.34-.13-.67-.26-.99-.39h0c-.7-.28-1.3-.56-1.81-.83-.53-.28-.97-.56-1.32-.83h0c-.25-.2-.45-.56-.52-.98-.05-.28-.05-.61.02-.96.05-.24.19-.82.6-1.32.27-.33.65-.63,1.17-.79.21-.06.41-.11.62-.15.19-.03.4-.06.61-.07h.04c.58-.03,1.09.05,1.51.18.22.07.42.15.6.23l2.57-2.79c-.18-.12-.4-.25-.65-.39-.45-.24-1-.47-1.63-.65l-.64-.18v-1.05c0-.51-.21-.97-.54-1.31-.33-.33-.8-.54-1.31-.54s-.97.21-1.31.54c-.33.33-.54.8-.54,1.31v1.18l-.6.2c-1.06.36-1.98,1-2.69,1.84-.71.84-1.22,1.89-1.43,3.05-.21,1.11-.13,2.19.2,3.16.32.94.88,1.77,1.66,2.37.48.38,1.04.74,1.68,1.09.65.36,1.42.71,2.33,1.08h0c.28.12.63.26,1.06.42.37.14.79.29,1.28.47.85.3,1.4.76,1.74,1.27.46.69.52,1.45.44,2.08-.08.67-.36,1.38-.83,1.97-.42.53-.99.97-1.71,1.22l-.37.13-8.98-4.94c-1.46-.81-2.99-1.46-4.56-1.96-1.58-.5-3.21-.85-4.87-1.04l-1.02-.12.28-.99c1.2-4.27,2.86-7.83,4.56-10.71,2.76-4.67,5.66-7.54,6.94-8.68l.25-.23h13.19l.26.24c.62.59,1.61,1.59,2.77,2.99.8.96,1.68,2.13,2.6,3.49,1.44,2.15,3.08,5.02,4.51,8.56,1.43,3.54,2.66,7.77,3.29,12.66.08.62.11,1.24.08,1.85Z"/>
  <path class="cls-2" d="M88.22,123.2c-1.57,0-3.14-.19-4.69-.55-1.55-.37-3.05-.91-4.45-1.61l-14.47-7.24h-4.76v.74c0,.63-.24,1.22-.69,1.67-.44.44-1.03.68-1.66.68h-10.89c-.63,0-1.22-.24-1.66-.68-.44-.44-.69-1.03-.69-1.66v-26.94c0-.63.24-1.22.69-1.66.44-.44,1.03-.68,1.66-.68h10.89c.63,0,1.22.24,1.66.69.44.44.69,1.03.69,1.66v1.16h4.97l3.19-.93c.76-.22,1.56-.42,2.36-.57.8-.16,1.61-.27,2.4-.35l.26-.03.06-.26c.88-3.52,2.12-6.91,3.68-10.07,1.58-3.19,3.48-6.13,5.64-8.76l.41-.5-.63-.11c-.54-.09-1.03-.38-1.39-.8-.35-.42-.55-.96-.55-1.51,0-.63.24-1.22.69-1.66s1.03-.68,1.66-.68h2.46l-3.26-7.74c-.15-.36-.21-.75-.17-1.14.04-.38.17-.75.38-1.08.21-.32.51-.59.84-.77.34-.18.72-.28,1.11-.28h23.83c.39,0,.78.1,1.11.28.34.18.63.45.84.77.21.32.35.7.38,1.08.04.39-.02.78-.17,1.14l-3.26,7.74h2.46c.63,0,1.22.24,1.66.69s.69,1.03.69,1.66c0,.58-.21,1.13-.59,1.56-.39.43-.91.71-1.48.77l-.68.08.43.53c2.46,3.07,4.58,6.52,6.31,10.24,2.31,4.99,3.85,10.4,4.57,16.07.06.46.1.93.11,1.4.01.46,0,.93-.02,1.41l-.02.35.35.04c.59.08,1.16.23,1.72.46s1.07.52,1.55.89c.47.35.89.76,1.25,1.22.37.47.67.98.9,1.52.72,1.69.74,3.56.06,5.27-.68,1.69-1.97,3.02-3.63,3.75l-.12.05-26.03,11.1c-1.25.53-2.55.94-3.85,1.2-1.33.28-2.72.42-4.11.42ZM58.86,112.8h5.99l14.68,7.35c1.33.67,2.76,1.18,4.23,1.53,2.77.66,5.67.68,8.36.13,1.27-.26,2.53-.66,3.75-1.18l.1-.04,25.84-11.02s.09-.04.15-.07c1.39-.61,2.49-1.74,3.06-3.19.58-1.46.56-3.06-.05-4.5-.2-.46-.46-.9-.77-1.3-.31-.39-.67-.74-1.06-1.03-.42-.32-.87-.58-1.34-.77-.47-.19-.97-.32-1.46-.39l-1.28-.17.08-1.28c.03-.45.04-.89.02-1.31-.01-.44-.05-.87-.1-1.3-.71-5.57-2.22-10.88-4.49-15.78-1.69-3.65-3.77-7.03-6.18-10.04l-1.56-1.95,2.48-.28c.33-.04.63-.19.85-.44.22-.25.34-.57.34-.9,0-.36-.14-.7-.39-.95-.25-.25-.59-.39-.95-.39h-3.96l3.85-9.13c.09-.2.12-.43.1-.65-.02-.22-.1-.43-.22-.62-.12-.19-.29-.34-.48-.44s-.41-.16-.64-.16h-23.83c-.23,0-.45.05-.64.16-.19.1-.36.26-.48.44-.12.19-.2.4-.22.62-.02.22.01.45.1.65l3.85,9.13h-3.96c-.36,0-.7.14-.95.39s-.39.59-.39.96c0,.32.11.62.31.87.2.24.49.41.8.46l2.32.41-1.5,1.82c-2.11,2.57-3.97,5.45-5.51,8.57-1.53,3.1-2.75,6.42-3.61,9.87l-.23.94-.96.1c-.76.08-1.54.19-2.31.34-.77.15-1.54.34-2.27.55l-3.4.97h-6.04v-2.16c0-.36-.14-.7-.39-.95-.25-.25-.59-.39-.95-.39h-10.89c-.36,0-.7.14-.95.39-.25.25-.4.59-.4.96v26.94c0,.36.14.7.39.96.25.25.59.39.95.39h10.89c.36,0,.7-.14.95-.39.25-.25.39-.59.39-.96v-1.74ZM88.22,119.51c-1.28,0-2.57-.15-3.84-.45-1.25-.3-2.48-.74-3.64-1.32l-14.96-7.49c-.09-.04-.18-.08-.29-.1-.1-.02-.2-.04-.31-.04h-6.32v-17.65h6.32c.07,0,.13,0,.19-.01.06,0,.12-.02.18-.04l3.52-1.03c.94-.27,1.9-.49,2.86-.64.96-.15,1.94-.24,2.91-.26h.18c1.98-.02,3.92.2,5.78.67,1.87.47,3.67,1.18,5.36,2.1l3.16,1.73c2.12,1.16,4.25,2.33,6.36,3.51l.33.18c.74.42,1.51.86,2.25,1.23l.44.22-.02.03c.2.14.39.31.55.5.28.32.48.68.61,1.08l.16.47h-.04c.04.26.05.51.03.76-.03.42-.14.82-.33,1.2-.17.35-.41.66-.69.92-.29.26-.61.47-.98.61-.23.09-.42.14-.61.17-.48.09-.88.07-1.29-.03-.23-.06-.47-.14-.69-.26l-11.18-5.6-.36-.12c-.22-.04-.45-.02-.67.05-.34.11-.62.35-.78.67l-.09.23c-.08.26-.07.54.02.8.11.34.35.62.68.78l11.18,5.6c.4.2.83.35,1.27.46.8.19,1.66.2,2.43.06.34-.06.69-.16,1.04-.29,3.9-1.12,8.33-2.82,12.62-4.46,2.06-.79,4.08-1.57,5.97-2.25l1.08-.39c.51-.16,1.03-.2,1.52-.11.35.06.68.18.99.35h0s.11.07.11.07c.1.06.19.12.28.19h0s.22.18.22.18c.14.12.26.25.37.39.16.21.29.43.39.68.33.77.34,1.64.03,2.43-.31.79-.92,1.41-1.69,1.75l-.1.04-25.93,11.06c-1.03.45-2.12.79-3.23,1.02-1.11.23-2.24.35-3.36.35ZM59.86,109.1h5.32c.19,0,.37.02.54.06.18.04.36.1.51.18l14.96,7.49c1.09.55,2.24.97,3.42,1.25,2.24.53,4.54.56,6.77.1,1.04-.21,2.07-.54,3.04-.96l26.08-11.13c.5-.23.89-.65,1.1-1.17.22-.54.21-1.13-.02-1.66-.07-.17-.16-.32-.27-.46-.05-.07-.11-.14-.18-.2l-.35-.28c-.25-.17-.54-.28-.83-.33-.34-.06-.69-.03-1.03.07l-1.07.38c-1.88.68-3.88,1.45-5.94,2.23-4.31,1.65-8.76,3.36-12.67,4.48-.36.14-.77.26-1.17.33-.9.17-1.9.15-2.84-.07-.48-.11-.95-.28-1.38-.49h0l-.11-.05-11.18-5.6c-.56-.28-.98-.76-1.18-1.36-.2-.59-.15-1.22.12-1.78l.12-.2c.31-.5.74-.83,1.25-1,.59-.19,1.22-.15,1.77.12l.39.19h0s10.82,5.42,10.82,5.42c.16.08.31.14.47.18.28.07.55.08.88.02.13-.02.26-.06.37-.1.3-.12.52-.26.72-.44.19-.18.35-.39.47-.63.13-.26.21-.54.23-.82.02-.28-.02-.56-.11-.84l-.04-.11c-.09-.23-.22-.44-.38-.63-.19-.21-.41-.39-.67-.52l-.45-.22h0c-.6-.33-1.21-.67-1.81-1.01l-.36-.21c-2.12-1.19-4.25-2.36-6.39-3.53l-3.12-1.71c-1.61-.89-3.33-1.56-5.12-2.01-1.78-.45-3.62-.66-5.47-.64h-.26c-.94.03-1.85.11-2.75.25-.92.14-1.84.35-2.73.61l-3.59,1.05c-.08.02-.17.04-.25.05-.1.01-.21.02-.33.02h-5.32v15.65ZM74.96,90.81l.02.16v-.21s-.02.05-.02.05ZM56.17,113.19h-8.19v-24.24h8.19v24.24ZM48.97,112.19h6.19v-22.24h-6.19v22.24ZM102.85,103.95l-.17-1.76c-.02-.21-.05-.42-.1-.65-.05-.23-.11-.45-.17-.65-.15-.45-.36-.89-.62-1.3-.26-.41-.56-.78-.9-1.1l-1-.95.96-1c.53-.55.96-1.18,1.29-1.87.33-.69.54-1.43.63-2.21.18-1.5-.12-2.93-.87-4.12-.76-1.2-1.94-2.11-3.42-2.63-.43-.15-.82-.3-1.2-.44-.16-.06-.31-.12-.47-.18h0s-.53-.21-.53-.21c-.72-.29-1.32-.57-1.86-.85-.56-.3-1.02-.58-1.39-.88l-.32-.25.03-.05c-.2-.27-.35-.61-.41-.98-.06-.36-.05-.75.02-1.13.05-.26.22-.94.7-1.54.38-.46.85-.78,1.42-.95.23-.07.45-.12.67-.16.21-.04.44-.06.67-.08.61-.03,1.17.04,1.71.2.11.03.22.07.33.11l1.92-2.08s-.07-.04-.1-.06c-.49-.26-1.01-.46-1.53-.61l-1.01-.28v-1.43c0-.36-.14-.7-.4-.95-.51-.51-1.4-.51-1.9,0-.25.25-.4.59-.4.96v1.54l-.94.32c-.95.33-1.81.91-2.47,1.69-.67.79-1.13,1.77-1.33,2.82-.19,1-.13,2,.18,2.9.3.87.81,1.61,1.49,2.14.47.37.99.71,1.61,1.04.63.34,1.38.69,2.28,1.06l.31.13c.21.08.46.18.74.29.37.14.79.29,1.27.46.88.31,1.55.8,1.99,1.46.46.69.63,1.5.52,2.41-.1.8-.43,1.58-.93,2.22-.5.64-1.17,1.12-1.93,1.38l-.58.2-9.18-5.05c-1.43-.79-2.93-1.43-4.47-1.92-1.54-.49-3.15-.84-4.77-1.02l-1.6-.18.44-1.55c1.08-3.84,2.63-7.48,4.61-10.83,2.84-4.8,5.86-7.75,7.03-8.8l.39-.35h13.58l.4.38c.63.6,1.64,1.62,2.81,3.03.91,1.1,1.79,2.29,2.63,3.53,1.78,2.66,3.31,5.57,4.56,8.65,1.64,4.05,2.76,8.35,3.32,12.79.08.65.11,1.3.08,1.93h0c-.03.65-.12,1.29-.26,1.91l-.17.73-13.2,4.76ZM101.3,97.5l.27.26c.4.38.76.82,1.06,1.29.3.48.55.99.72,1.52.08.24.15.49.2.76.06.26.1.52.12.76l.05.48,11.47-4.14.05-.2c.13-.57.21-1.15.23-1.74.03-.58,0-1.17-.07-1.76-.56-4.36-1.65-8.58-3.26-12.54-1.22-3.01-2.72-5.86-4.46-8.47-.82-1.22-1.68-2.38-2.57-3.45-1.14-1.38-2.11-2.36-2.73-2.95l-.11-.11h-12.8l-.11.1c-1.13,1.02-4.07,3.89-6.84,8.57-1.94,3.27-3.45,6.83-4.51,10.59l-.12.42.44.05c1.69.19,3.36.55,4.96,1.06,1.6.51,3.16,1.18,4.65,2l8.79,4.84.16-.06c.58-.2,1.09-.57,1.48-1.06.39-.49.65-1.11.72-1.72.08-.67-.04-1.25-.37-1.74-.32-.48-.82-.84-1.49-1.08-.49-.18-.92-.33-1.29-.47-.44-.17-.79-.3-1.08-.42l-.31-.13c-.8-.33-1.48-.65-2.07-.97-.67-.36-1.24-.73-1.75-1.14-.83-.65-1.46-1.55-1.82-2.61-.36-1.06-.44-2.24-.21-3.41.23-1.22.76-2.35,1.54-3.28.78-.92,1.79-1.61,2.91-2l.26-.09v-.83c0-.63.24-1.22.69-1.66.88-.88,2.43-.89,3.32,0,.44.44.69,1.03.69,1.66v.67l.28.08c.6.17,1.18.4,1.73.69.27.14.5.28.69.41l.49.32-3.22,3.49-.33-.16c-.15-.07-.33-.14-.53-.2-.43-.13-.88-.19-1.34-.16-.22.01-.41.03-.58.06-.18.03-.37.08-.56.13-.37.11-.68.32-.93.63-.34.42-.46.9-.5,1.09-.05.26-.06.54-.02.78.05.29.18.54.33.67l.11.09c.3.23.68.46,1.12.69.43.22.93.46,1.48.69l.28.12c.32.13.64.26.98.38.37.14.76.28,1.18.43,1.69.6,3.05,1.65,3.93,3.04.88,1.39,1.23,3.04,1.02,4.77-.11.88-.35,1.73-.72,2.52-.37.79-.87,1.51-1.47,2.13l-.26.27ZM128.99,94.01c-.51,0-1.03-.26-1.45-.71-.42-.45-.66-1.04-.66-1.61,0-.29.06-.58.17-.88.1-.26.25-.54.4-.79.47-.82.88-1.58,1.25-2.32.41-.82.76-1.61,1.08-2.42.24-.61.47-1.18.65-1.71l.09-.27c.08-.23.15-.44.21-.64.1-.35.17-.58.26-.86.35-1.07.55-2.12.76-3.23l.11-.56c.06-.31.11-.66.17-1.02.05-.38.1-.73.13-1.05l.16-1.65c0-.05,0-.14,0-.22,0-.1,0-.2,0-.28l.09-2.28v-.09c-.02-.17-.03-.35-.04-.48,0-.19-.01-.38-.01-.59,0-.49-.04-.96-.09-1.45-.02-.25-.04-.46-.06-.75-.02-.29-.05-.52-.08-.77l-.03-.27c-.1-.92-.27-1.91-.5-2.95-.19-.89-.43-1.83-.73-2.85-.46-1.62-1.08-3.26-1.85-4.88-.76-1.62-1.66-3.21-2.68-4.74l-.08-.13c-.46-.68-.96-1.36-1.52-2.08-.53-.68-1.1-1.36-1.74-2.08-.26-.3-.55-.6-.86-.91-.31-.31-.61-.6-.91-.86l-.9-.85c-.37-.36-.76-.67-1.1-.95l-.18-.14c-.66-.53-1.35-1.04-2.06-1.53-.69-.48-1.39-.94-2.07-1.35-.3-.18-.53-.32-.74-.43l-.55-.29v.62c0,.4.11.9.21,1.38.06.27.1.45.12.58.04.22.07.37.1.52.15.74.3,1.51-.03,2.22-.25.53-.68.95-1.23,1.17-.55.23-1.15.25-1.7.06-.27-.09-.5-.23-.71-.39-.2-.16-.38-.37-.53-.61-.28-.44-.37-1.05-.47-1.64-.13-.83-.29-1.66-.45-2.48l-.21-1.08c-.06-.35-.16-.83-.26-1.36-.24-1.22-.52-2.58-.52-3.35,0-.43.13-.84.38-1.19.26-.36.63-.66,1.05-.83.62-.25,2.24-.75,3.68-1.19.94-.29,1.82-.56,2.39-.75l.13-.04c1.73-.58,2.53-.81,2.87-.81.46,0,.92.13,1.31.37.35.22.65.52.85.87.21.35.31.75.31,1.14s-.12.81-.34,1.17c-.49.8-1.25,1.04-2.05,1.3-.08.03-.16.05-.44.14l-.15.04c-.3.08-.47.13-.62.33l-.33.44.62.16.37.25c.9.57,1.78,1.18,2.7,1.87.79.6,1.6,1.25,2.55,2.05l1.34,1.23c.79.77,1.58,1.56,2.26,2.37l.45.51c.51.58,1.02,1.2,1.54,1.89.48.64.96,1.31,1.45,2.05l.47.78c.27.39.51.77.75,1.17.21.35.45.77.69,1.21.04.06.08.15.12.24.05.11.11.22.19.35.08.13.14.24.2.37l.07.15c.89,1.77,1.62,3.56,2.25,5.47.61,1.85,1.1,3.75,1.48,5.79.23,1.24.39,2.52.48,3.92.07,1.14.11,2.38.11,4.01,0,1.48-.13,3.21-.38,4.98-.25,1.77-.59,3.42-.98,4.77l-.88,2.86c-.31.93-1.35,3.53-2.46,5.7-1.05,2.04-1.55,2.53-1.83,2.72-.24.16-.47.27-.71.33-.23.06-.5.08-.88.08ZM131.47,83.6s-.03.08-.09.28c-.18.55-.42,1.14-.66,1.75-.34.85-.7,1.67-1.12,2.51-.38.76-.79,1.53-1.27,2.37-.12.21-.25.44-.33.66-.07.19-.11.36-.11.52,0,.32.14.66.39.93.22.24.5.39.72.39.3,0,.49-.02.64-.05.13-.03.25-.09.39-.19.1-.07.52-.45,1.5-2.35,1.08-2.09,2.11-4.69,2.4-5.55l.87-2.84c.38-1.29.71-2.89.95-4.62.24-1.7.37-3.42.37-4.84,0-1.61-.03-2.83-.11-3.95-.09-1.36-.24-2.6-.47-3.8-.38-2-.85-3.85-1.45-5.66-.6-1.83-1.31-3.55-2.15-5.25h0s-.17-.35-.17-.35c-.03-.06-.06-.12-.1-.19-.1-.16-.16-.29-.23-.43-.03-.07-.07-.13-.1-.19-.24-.42-.47-.84-.68-1.18-.23-.38-.46-.75-.7-1.09l-.51-.84c-.47-.7-.93-1.35-1.41-1.98-.52-.69-1.03-1.31-1.54-1.89l-.39-.45c-.67-.79-1.45-1.56-2.2-2.3l-.42-.41-.89-.79c-.93-.79-1.73-1.43-2.5-2.01-.89-.67-1.75-1.27-2.63-1.82l-.27-.18-1.86-.5,1.19-1.62c.37-.5.84-.62,1.18-.71l.12-.03c.25-.09.33-.11.42-.14.77-.24,1.22-.4,1.5-.87.13-.21.19-.42.19-.65s-.06-.44-.18-.64c-.12-.21-.3-.39-.51-.52-.23-.14-.5-.22-.78-.22-.15,0-.72.14-2.55.76l-.13.04c-.57.19-1.47.47-2.41.76-1.42.44-3.02.93-3.6,1.16-.24.1-.46.27-.61.48-.13.18-.2.39-.2.61,0,.67.27,2.04.49,3.13.11.56.21,1.06.27,1.41l.2,1.06c.16.84.32,1.67.45,2.51.07.47.16,1,.32,1.27.09.15.2.27.32.37.12.09.25.17.41.22.31.11.66.1.98-.03.32-.13.57-.37.71-.68.19-.42.08-.99-.04-1.61-.03-.16-.06-.32-.1-.55-.02-.13-.06-.29-.09-.46-.13-.59-.25-1.16-.25-1.67v-2.29l2.02,1.07c.23.12.47.27.7.4.79.47,1.5.94,2.21,1.43.72.5,1.43,1.03,2.11,1.57l.18.14c.36.29.78.62,1.18,1.01l.88.83c.3.26.62.56.95.89.32.32.63.65.9.96.65.74,1.23,1.43,1.78,2.13.61.78,1.15,1.52,1.65,2.27l.08.13c1.01,1.53,1.91,3.12,2.67,4.74.79,1.67,1.43,3.36,1.9,5.03.3,1.05.54,2,.74,2.92.23,1.06.4,2.09.51,3.04l.03.27c.03.26.06.51.08.82.02.28.04.48.06.69.05.53.1,1.04.1,1.58,0,.19,0,.36.01.54,0,.12.02.28.04.49v.15s-.09,2.36-.09,2.36c0,.06,0,.11,0,.15,0,.11,0,.21,0,.31l-.17,1.67c-.04.35-.08.71-.14,1.09-.05.38-.11.75-.17,1.07l-.11.56c-.21,1.09-.42,2.22-.79,3.35-.09.26-.15.48-.22.75-.08.29-.16.52-.24.75ZM58.08,79.1h-.91s-.07-.03-.11-.04v.02s-.17-.07-.17-.07c-.02,0-.05-.02-.07-.02l-.06-.03s-.09-.04-.14-.06h0s0,0,0,0c-.12-.05-.25-.13-.39-.24h-.03s-.12-.12-.12-.12l-.4-.3.03-.05-5.95-5.68c-.45-.43-.71-1.02-.73-1.64-.01-.63.22-1.23.65-1.68.43-.45,1.02-.71,1.64-.73.63-.01,1.23.22,1.68.65l1.98,1.89.03-.83c.15-3.96.87-7.86,2.14-11.58,1.27-3.72,3.07-7.24,5.37-10.47,2.4-3.38,5.27-6.35,8.53-8.83s6.88-4.46,10.75-5.87c.59-.22,1.23-.19,1.8.08.57.27,1,.74,1.22,1.32.21.59.19,1.23-.08,1.8-.27.57-.73,1-1.32,1.22-6.88,2.51-12.78,7.02-17.05,13.04-4.27,6.02-6.58,13.09-6.68,20.43v.8s3.56-2.93,3.56-2.93l.04.04c.4-.2.84-.29,1.3-.24.62.06,1.19.36,1.59.85.4.5.58,1.1.52,1.72-.06.63-.36,1.19-.85,1.59-1.13.84-2.23,1.79-3.3,2.71-1.17,1-2.37,2.04-3.62,2.94l-.27.15c-.16.08-.34.13-.51.17h-.06ZM57.33,78.1h.63c.06-.01.13-.04.19-.06l.15-.08c1.24-.89,2.43-1.91,3.58-2.9,1.08-.93,2.19-1.88,3.33-2.73.26-.21.43-.54.47-.9.04-.35-.07-.7-.29-.98-.24-.29-.56-.46-.92-.5-.36-.04-.71.07-.99.3l-.39.32h0s-4.45,3.65-4.45,3.65l.04-2.95c.1-7.54,2.48-14.8,6.87-20.99,4.39-6.19,10.45-10.82,17.52-13.4.34-.12.61-.37.76-.7.15-.33.17-.69.05-1.03-.12-.34-.37-.61-.7-.76-.33-.15-.69-.17-1.03-.05-3.78,1.38-7.31,3.3-10.48,5.73s-5.98,5.33-8.32,8.62c-2.24,3.15-4.01,6.59-5.24,10.21-1.24,3.63-1.94,7.43-2.09,11.3l-.12,3.05-3.59-3.42c-.26-.25-.61-.39-.97-.38-.36,0-.69.16-.94.42-.25.26-.38.61-.37.97,0,.36.16.69.42.94l6.39,6.09s.06.05.09.06l.12.06s.08.03.12.05l.06.02s.07.02.1.03ZM102.27,63.52h-12.76l-3.5-8.31h19.76l-3.5,8.31ZM90.18,62.52h11.43l2.66-6.31h-16.74l2.66,6.31Z"/>
</svg>