<?xml version="1.0" encoding="UTF-8"?>
<svg id="Capa_1" data-name="Capa 1" xmlns="http://www.w3.org/2000/svg" viewBox="0 0 150 150">
  <defs>
    <style>
      .cls-1 {
        opacity: .8;
      }

      .cls-2 {
        fill: #161e68;
      }

      .cls-3 {
        fill: #f6a500;
        fill-rule: evenodd;
      }
    </style>
  </defs>
  <g class="cls-1">
    <path class="cls-3" d="M62.09,60.64l-9.84,17.03c-.07.14-.21.21-.35.21H.42c-.15.01-.28-.07-.37-.21-.07-.13-.07-.29,0-.42l9.84-17.03,13.59-23.53c.07-.14.21-.21.37-.21h19.48c.15,0,.28.07.35.21.08.13.08.29,0,.42l-13.21,22.9h31.25c.15-.01.29.07.37.2.07.14.07.29,0,.43Z"/>
  </g>
  <g class="cls-1">
    <path class="cls-3" d="M63.16,81.11l-9.83,17.03-9.83,17.03c-.08.13-.22.21-.37.21h-19.48c-.16,0-.29-.08-.37-.21s-.07-.29,0-.42l9.47-16.41H.63c-.16,0-.29-.07-.37-.21-.07-.13-.07-.29,0-.42l9.83-17.05c.08-.13.22-.21.37-.21h52.34c.16,0,.29.08.37.21.08.14.08.29,0,.43Z"/>
  </g>
  <path class="cls-2" d="M86.73,63.31c-2.4,3.04-8.06,8.48-11.05,11.19-1.99,1.81-4.47,3.29-7.09,1.47-1.01-.7-6.7-6.39-7.42-7.41-3.13-4.47,1.83-9.7,6.38-7.04.79.46,3.42,3.57,3.67,3.57,3-2.51,5.72-6.36,8.73-8.73,5.27-4.16,11.42,1.07,6.78,6.95ZM83.16,58.22c-1.11.31-7.94,8.3-9.78,9.68-4.2,3.16-5.43-2.69-7.82-3.41-1.41-.42-2.03.3-1.67,1.67.25.97,6.19,6.97,7.08,7.11.26.04.51.03.76-.08l13-12.73c.6-1.22-.21-2.63-1.57-2.25Z"/>
  <path class="cls-2" d="M62.83,84.87c-.06-.04-.58-1.17-.59-1.24-.22-1.03.79-1.96,1.77-2.04,6.43.45,13.79-.66,20.1-.04,3.51.34,1.92,3.32,1.3,3.32h-22.57Z"/>
  <path class="cls-2" d="M67.68,87.9l13.1-.06c1.63.31,2.01,2.97.34,3.29h-13.5c-1.77-.35-1.44-2.62.06-3.23Z"/>
  <path class="cls-2" d="M112.49,54.96c3.55-.66,4.93,1.75,7.17,3.87,2.41-2.89,6.54-5.99,9.72-2.14,2.76,3.33-.04,6.71-2.62,8.95-.1.58,2.29,2.41,2.75,3.11,1.37,2.05,1.26,4.85-.64,6.56-3.47,3.12-6.81.03-9.22-2.63-2.21,2.94-6.83,6.11-9.87,2.29-2.74-3.44.53-6.86,2.76-9.33-2.23-2.35-4.16-3.62-3.58-7.27.27-1.69,1.87-3.1,3.51-3.4ZM112.67,72.92c1.6,1.64,3.97-3.42,6.66-3.57,3.7-.2,4.39,3.96,6.58,3.66.73-.1,1.27-.73,1.19-1.48-.17-1.67-4.8-3.13-3.82-6.78.55-2.02,4.84-4.14,3.5-5.79-1.65-2.02-3.91,2.14-5.18,2.79-1.12.58-2.75.58-3.87,0s-3.96-5.13-5.33-2.93c-1.47,2.37,5.82,4.37,3.28,8.87-.71,1.26-4.69,3.5-3.02,5.22Z"/>
  <path class="cls-2" d="M108.46,84.87c-1.36-.38-1.29-3.06,1.3-3.32,6.32-.61,13.67.48,20.1.04,2.59.41,1.71,3.27,1.01,3.27h-22.41Z"/>
  <path class="cls-2" d="M112.75,87.83h13.84c1.08,0,1.08,3.3,0,3.3h-13.84c-.99,0-1.52-2.77,0-3.3Z"/>
  <path class="cls-2" d="M149.32,102c-.39-.8-2.02-.95-2.65-.33-.92.91-.31,4.9-.51,6.4-.38,2.77-2.73,4.98-5.44,5.44-13.62-.09-27.34.34-40.91-.22-.89-.47-1.34-1.21-1.41-2.22-.07-1.04.35-.17.5-.17h40.86c1.17,0,3.79-2.9,3.79-4.12v-63.1c1.27-.1,2.6-.13,2.65,1.47l-.03,50.45c.17,2.07,3.09,2.68,3.33.33v-51.76c-.47-3.06-3.09-4.18-5.95-3.78.3-3.36-1.27-5.95-4.76-6.27-12.77-1.2-27.71.75-40.65.23-1.6,1.35-2.08-.02-3.84-.22-3.03-.34-11.89-.41-14.84-.02-2.49.33-1.33,3.31-.64,3.31h15.16c.17,0,.33.06.46.17v4.81h-.62c-1.09,0-1.98.89-1.98,1.98h0c0,1.09.89,1.98,1.98,1.98h.62v7.13h-.62c-1.09,0-1.98.89-1.98,1.98s.89,1.98,1.98,1.98h.62v7.28h-.62c-1.09,0-1.98.89-1.98,1.98s.89,1.98,1.98,1.98h.62v7.24h-.62c-1.09,0-1.98.89-1.98,1.98s.89,1.98,1.98,1.98h.59s.02,0,.02,0v7.62h-.62c-1.09,0-1.98.89-1.98,1.98s.89,1.98,1.98,1.98h.62v7.32h-.62c-1.09,0-1.98.89-1.98,1.98h0c0,1.09.89,1.98,1.98,1.98h.62v4.37c-.41.52-.98.79-1.76.51-11.86-.77-24.89.97-36.6,0-2.26-.19-2.61-.54-2.8-2.8V39.87c-.23-.81.75-2.46,1.5-2.46h4.78v13.67c0,.12,1.12,1.11,1.4,1.23,2.87,1.25,4.54-2.73,5.68-2.73.74,0,2.85,2.65,4.03,2.91,1.99.45,3.23-.82,3.4-2.72.34-3.71.42-12.55,0-16.17-.09-.79-.58-1.95-1.33-2.29-.69-.31-10.15-.34-11.34-.15-2.14.34-1.38,1.8-1.99,2.62-.69.94-5.62-.65-7.92,1.64-1.77,1.77-1.29,4.76-1.48,4.95-.09.09-1.92-.07-2.45.02-1.71.27-3.11,1.79-3.46,3.46l-.02,64.89c.64,4.12,4.17,7.7,8.39,8.08,13.19,1.2,28.17-.94,41.55,0,.83.1,2.34-1.36,2.89-1.28.6.09,1.38,1.12,3.01,1.28,13.16,1.29,28.45-.97,41.84-.04,3.76-.71,7.35-4.16,7.77-8.04.11-1,.14-6.13-.17-6.76ZM62.83,34.45h7.91v13.84c-1.16-.83-2.54-2.58-4.12-2.59-1.66,0-2.34,1.77-3.79,2.26v-13.51ZM137.81,37.4c.98-.03,1.99.32,2.31,1.31l.16,66.1c-.19,2.25-.54,2.61-2.8,2.8-11.91.98-25.17-.74-37.23-.03-.53.12-.93-.1-1.22-.49v-4.36h.91c1.09,0,1.98-.89,1.98-1.98h0c0-1.09-.89-1.98-1.98-1.98h-.91v-7.32h.91c1.09,0,1.98-.89,1.98-1.98s-.89-1.98-1.98-1.98h-.91v-7.52c.11-.03.22-.07.32-.11h.59c1.09,0,1.98-.89,1.98-1.98s-.89-1.98-1.98-1.98h-.91v-7.24h.91c1.09,0,1.98-.89,1.98-1.98s-.89-1.98-1.98-1.98h-.91v-7.28h.91c1.09,0,1.98-.89,1.98-1.98s-.89-1.98-1.98-1.98h-.91v-7.13h.91c1.09,0,1.98-.89,1.98-1.98h0c0-1.09-.89-1.98-1.98-1.98h-.91v-4.69c.31-.2.78-.25,1.52-.31,11.92-.99,25.19.78,37.26,0ZM95.13,111.07c-.1,1.43-1.05,2.39-2.47,2.47-12.65-.86-26.76,1.12-39.23,0-3.39-.3-5.82-2.69-6.1-6.1v-62.31c.05-1.6,1.38-1.56,2.65-1.47v63.1c0,1.22,2.62,4.12,3.79,4.12h40.86c.15,0,.57-.87.5.17Z"/>
</svg>