<?xml version="1.0" encoding="UTF-8"?>
<svg id="Capa_1" data-name="Capa 1" xmlns="http://www.w3.org/2000/svg" viewBox="0 0 150 150">
  <defs>
    <style>
      .cls-1 {
        fill: #fff;
      }
    </style>
  </defs>
  <path class="cls-1" d="M13.67.12l113.25-.12c5.68.51,10.27,5.11,10.78,10.78v136.94s-.72,2.28-.72,2.28l-124.2-.25-.48-2.03L12.57,1.02l1.11-.9ZM132.67,25.09h-13.79c-.38,0-1.14-1.22-1.24-1.77-.81-4.21,1.59-13.79-1.75-16.8-.35-.32-2.76-1.49-3.03-1.49H17.33v140.4h115.33V25.09ZM132.67,20.08v-7.77c0-.48-1.2-3.33-1.59-3.93-1.91-2.96-6.21-3.53-9.45-3.34-.15.11,1,1.92,1,2.25v12.79h10.03Z"/>
  <rect class="cls-1" x="52.38" y="70.22" width="45.23" height="5.01"/>
  <rect class="cls-1" x="52.38" y="80.25" width="45.23" height="5.01"/>
  <rect class="cls-1" x="52.38" y="90.28" width="45.23" height="5.01"/>
  <rect class="cls-1" x="52.38" y="100.31" width="45.23" height="5.01"/>
  <rect class="cls-1" x="52.38" y="110.34" width="45.23" height="5.01"/>
  <rect class="cls-1" x="77.46" y="135.41" width="45.23" height="5.01"/>
  <rect class="cls-1" x="79.96" y="45.15" width="42.72" height="5.01"/>
  <rect class="cls-1" x="79.96" y="55.18" width="42.72" height="5.01"/>
  <path class="cls-1" d="M93.8,35.12h27.58c1.64,0,1.64,5.01,0,5.01h-27.58c-1.38,0-1.95-4.33,0-5.01Z"/>
  <path class="cls-1" d="M98.82,125.38h22.56c1.64,0,1.64,5.01,0,5.01h-22.56c-1.38,0-1.95-4.33,0-5.01Z"/>
  <path class="cls-1" d="M28.62,70.22h12.54c1.64,0,1.64,5.01,0,5.01h-12.54c-1.38,0-1.95-4.33,0-5.01Z"/>
  <path class="cls-1" d="M28.62,80.25h12.54c1.64,0,1.64,5.01,0,5.01h-12.54c-1.38,0-1.95-4.33,0-5.01Z"/>
  <path class="cls-1" d="M28.62,90.28h12.54c1.64,0,1.64,5.01,0,5.01h-12.54c-1.38,0-1.95-4.33,0-5.01Z"/>
  <path class="cls-1" d="M28.62,100.31h12.54c1.64,0,1.64,5.01,0,5.01h-12.54c-1.38,0-1.95-4.33,0-5.01Z"/>
  <path class="cls-1" d="M28.62,110.34h12.54c1.64,0,1.64,5.01,0,5.01h-12.54c-1.38,0-1.95-4.33,0-5.01Z"/>
  <path class="cls-1" d="M113.86,70.22h7.52c1.64,0,1.64,5.01,0,5.01h-7.52c-1.38,0-1.95-4.33,0-5.01Z"/>
  <path class="cls-1" d="M113.86,80.25h7.52c1.64,0,1.64,5.01,0,5.01h-7.52c-1.38,0-1.95-4.33,0-5.01Z"/>
  <path class="cls-1" d="M113.86,90.28h7.52c1.64,0,1.64,5.01,0,5.01h-7.52c-1.38,0-1.95-4.33,0-5.01Z"/>
  <path class="cls-1" d="M113.86,100.31h7.52c1.64,0,1.64,5.01,0,5.01h-7.52c-1.38,0-1.95-4.33,0-5.01Z"/>
  <path class="cls-1" d="M113.86,110.34h7.52c1.64,0,1.64,5.01,0,5.01h-7.52c-1.38,0-1.95-4.33,0-5.01Z"/>
  <g>
    <path class="cls-1" d="M72.74,35.11c0,13.99-11.34,25.33-25.33,25.33s-25.33-11.34-25.33-25.33,11.34-25.33,25.33-25.33,25.33,11.34,25.33,25.33ZM67.18,35.12c0-10.91-8.85-19.76-19.76-19.76s-19.76,8.85-19.76,19.76,8.85,19.76,19.76,19.76,19.76-8.85,19.76-19.76Z"/>
    <path class="cls-1" d="M46.26,20.17c3.37-1.06,2.99,1.38,4.2,2.64,1.75,1.82,4.14,2.4,4.49,5.54.23,2,.23,4.18-2.27,4.32-3.64.21-2.54-3.54-3.74-4.33-.79-.52-3.1-.51-3.46.59-1.44,4.31,3.41,3.11,5.64,4.25,3.52,1.81,4.91,6.73,3.44,10.34-.66,1.63-3.19,2.98-4.34,4.19-.86.9-.16,2.36-2.56,2.51-2.86.18-2.12-1.56-3.29-2.77-1.75-1.82-4.14-2.4-4.49-5.54-.23-2-.23-4.18,2.27-4.32,3.68-.21,2.29,3.45,3.75,4.32.86.51,3.08.54,3.45-.58,1.49-4.43-3.45-3.14-5.64-4.26-3.52-1.79-4.9-6.74-3.44-10.34.67-1.64,3.02-2.8,4.1-3.92.77-.8.61-2.23,1.88-2.64Z"/>
  </g>
</svg>