<?xml version="1.0" encoding="UTF-8"?>
<svg id="Capa_1" data-name="Capa 1" xmlns="http://www.w3.org/2000/svg" viewBox="0 0 150 150">
  <defs>
    <style>
      .cls-1 {
        fill: #fff;
        fill-rule: evenodd;
      }
    </style>
  </defs>
  <path class="cls-1" d="M86.29,37.7h-9.33c-1.23,0-2.22-.99-2.22-2.21V13.68c0-1.22.99-2.21,2.22-2.21s2.21.99,2.21,2.21v19.6h7.11c1.22,0,2.21.99,2.21,2.21s-.99,2.21-2.21,2.21Z"/>
  <path class="cls-1" d="M4.43,134.11h92.13V36.4l-20.51-20.51H4.43v118.22h0ZM98.77,138.54H2.22C.99,138.54,0,137.55,0,136.32V13.68C0,12.46.99,11.46,2.22,11.46h74.75c.58,0,1.15.23,1.56.65l21.8,21.81c.42.41.65.97.65,1.56v100.84c0,1.22-.99,2.21-2.22,2.21Z"/>
  <path class="cls-1" d="M126.37,114.56h.01-.01ZM114.05,109.93l2.15,11.04,8.24-7.64,20.55-62.97-10.39-3.39-20.55,62.97h0ZM114.8,127.51c-.23,0-.46-.03-.69-.11-.76-.25-1.33-.89-1.48-1.68l-3.03-15.5c-.07-.37-.05-.75.07-1.11l21.41-65.62c.18-.56.58-1.02,1.1-1.29.53-.26,1.13-.31,1.69-.13l14.61,4.76c1.16.38,1.79,1.63,1.41,2.79l-21.41,65.62c-.12.36-.32.68-.6.93l-11.58,10.74c-.42.39-.96.59-1.51.59Z"/>
  <path class="cls-1" d="M126.37,116.77c-.23,0-.46-.04-.68-.11l-14.6-4.76c-1.16-.38-1.8-1.63-1.42-2.79.38-1.16,1.62-1.8,2.79-1.42l14.6,4.76c1.16.38,1.8,1.63,1.42,2.79-.3.93-1.17,1.52-2.11,1.52Z"/>
  <path class="cls-1" d="M59.76,70.37h-14.55c-1.23,0-2.22-.99-2.22-2.21v-11.91h-4v11.91c0,1.22-.99,2.21-2.21,2.21h-14.55c-1.23,0-2.22-.99-2.22-2.21v-25.62c0-1.23.99-2.22,2.22-2.22s2.21.99,2.21,2.22v23.4h10.13v-11.91c0-1.22.99-2.21,2.21-2.21h8.43c1.22,0,2.21.99,2.21,2.21v11.91h10.13v-23.4c0-1.23.99-2.22,2.21-2.22s2.21.99,2.21,2.22v25.62c0,1.22-.99,2.21-2.21,2.21Z"/>
  <path class="cls-1" d="M64.78,48.22c-.46,0-.92-.14-1.31-.43l-22.48-16.57-22.48,16.57c-.98.72-2.37.52-3.09-.47-.73-.99-.52-2.37.47-3.1l23.79-17.54c.78-.58,1.85-.58,2.63,0l23.79,17.54c.98.72,1.19,2.11.47,3.1-.43.58-1.1.9-1.78.9Z"/>
  <path class="cls-1" d="M27.3,39.97c-1.22,0-2.21-.99-2.21-2.21v-8.41c0-1.23.99-2.21,2.21-2.21s2.22.99,2.22,2.21v8.41c0,1.22-.99,2.21-2.22,2.21Z"/>
  <path class="cls-1" d="M60.11,89.88H17.55c-1.23,0-2.22-.99-2.22-2.21s.99-2.21,2.22-2.21h42.56c1.22,0,2.21.99,2.21,2.21s-.99,2.21-2.21,2.21Z"/>
  <path class="cls-1" d="M83.44,105.94H17.55c-1.23,0-2.22-.99-2.22-2.21s.99-2.21,2.22-2.21h65.89c1.23,0,2.21.99,2.21,2.21s-.99,2.21-2.21,2.21Z"/>
  <path class="cls-1" d="M83.44,122.01H17.55c-1.23,0-2.22-.99-2.22-2.21s.99-2.22,2.22-2.22h65.89c1.23,0,2.21.99,2.21,2.22s-.99,2.21-2.21,2.21Z"/>
</svg>