<?xml version="1.0" encoding="UTF-8"?>
<svg id="Capa_1" data-name="Capa 1" xmlns="http://www.w3.org/2000/svg" viewBox="0 0 150 150">
  <defs>
    <style>
      .cls-1 {
        fill-rule: evenodd;
      }

      .cls-1, .cls-2 {
        fill: #161e68;
      }

      .cls-3 {
        opacity: .8;
      }
    </style>
  </defs>
  <g class="cls-3">
    <path class="cls-1" d="M62.76,64.51l-9.95,17.22c-.07.14-.21.21-.36.21H.42c-.15.01-.28-.07-.37-.21-.07-.13-.07-.3,0-.42l9.95-17.22,13.74-23.78c.07-.14.21-.21.37-.21h19.69c.15,0,.28.07.36.21.08.13.08.3,0,.42l-13.36,23.15h31.59c.15-.01.3.07.37.2.07.14.07.3,0,.43Z"/>
    <path class="cls-1" d="M63.85,85.2l-9.94,17.22-9.94,17.22c-.08.13-.22.21-.37.21h-19.69c-.16,0-.3-.08-.37-.21s-.07-.3,0-.42l9.57-16.59H.64c-.16,0-.3-.07-.37-.21-.07-.13-.07-.3,0-.42l9.94-17.23c.08-.13.22-.21.37-.21h52.9c.16,0,.3.08.37.21.08.14.08.3,0,.43Z"/>
  </g>
  <g>
    <path class="cls-2" d="M99.38,33.01s0,0-.01,0c-.18-.18-.39-.32-.63-.42-.24-.1-.5-.15-.76-.15h-52.82c-1.09,0-1.98.89-1.98,1.98v86.67c0,1.09.89,1.98,1.98,1.98h68.23c1.09,0,1.98-.89,1.98-1.98V49.82c0-.53-.21-1.03-.58-1.4l-15.41-15.41ZM97.98,51.8h6.59c1.09,0,1.98-.89,1.98-1.98s-.89-1.98-1.98-1.98h-4.61v-8.65l11.45,11.45v68.46H47.13V36.38h48.86v13.43c0,1.09.89,1.98,1.98,1.98Z"/>
    <path class="cls-2" d="M148.64,57.44l-10.32-3.37c-.49-.16-1.04-.12-1.51.11-.47.24-.82.65-.98,1.15l-15.13,46.37c-.07.22-.09.46-.08.69,0,.05,0,.1,0,.16,0,.05,0,.09,0,.14l2.14,10.95c.13.7.64,1.28,1.33,1.51.2.06.4.09.61.09.5,0,.98-.19,1.35-.53l8.18-7.59c.06-.05.1-.12.15-.18.04-.05.09-.1.13-.15.11-.16.2-.32.26-.51l15.13-46.37c.34-1.04-.23-2.16-1.27-2.49ZM125.07,101.06l13.9-42.61,6.56,2.14-13.9,42.61-6.56-2.14ZM129.08,106.53l-3.1,2.88-.81-4.16,3.92,1.28Z"/>
    <path class="cls-2" d="M57.89,59.21c.1.01.2.02.3.02.42,0,.83-.13,1.17-.39l.39-.29v14.35c0,1.09.89,1.98,1.98,1.98h10.28c1.09,0,1.98-.89,1.98-1.98v-8h2v8c0,1.09.89,1.98,1.98,1.98h10.28c1.09,0,1.98-.89,1.98-1.98v-14.35l.39.29c.84.62,2.14.43,2.77-.42.64-.88.46-2.12-.42-2.77l-16.81-12.39c-.7-.53-1.65-.52-2.35,0l-6.51,4.8v-2.58c0-1.09-.89-1.98-1.98-1.98s-1.98.89-1.98,1.98v5.51l-6.34,4.67c-.43.31-.7.77-.78,1.3s.05,1.05.36,1.47c.31.43.77.7,1.29.78ZM79.96,70.93v-8c0-1.09-.89-1.98-1.98-1.98h-5.96c-1.09,0-1.98.89-1.98,1.98v8h-6.33v-15.29l11.28-8.32,11.28,8.32v15.29h-6.33Z"/>
    <path class="cls-2" d="M86.06,84.71h-30.08c-1.09,0-1.98.89-1.98,1.98s.89,1.98,1.98,1.98h30.08c1.09,0,1.98-.89,1.98-1.98s-.89-1.98-1.98-1.98Z"/>
    <path class="cls-2" d="M54,98.04c0,1.09.89,1.98,1.98,1.98h46.56c1.09,0,1.98-.89,1.98-1.98s-.89-1.98-1.98-1.98h-46.56c-1.09,0-1.98.89-1.98,1.98Z"/>
    <path class="cls-2" d="M102.55,107.42h-46.56c-1.09,0-1.98.89-1.98,1.98s.89,1.98,1.98,1.98h46.56c1.09,0,1.98-.89,1.98-1.98s-.89-1.98-1.98-1.98Z"/>
  </g>
</svg>