<?xml version="1.0" encoding="UTF-8"?>
<svg id="Capa_1" data-name="Capa 1" xmlns="http://www.w3.org/2000/svg" viewBox="0 0 150 150">
  <defs>
    <style>
      .cls-1 {
        fill: #161e68;
      }

      .cls-2 {
        fill: #ffcb00;
        fill-rule: evenodd;
        opacity: .8;
      }
    </style>
  </defs>
  <path class="cls-2" d="M62.76,60.79l-9.95,17.22c-.07.14-.21.21-.36.21H.42c-.15.01-.28-.07-.37-.21-.07-.13-.07-.3,0-.42l9.95-17.22,13.74-23.78c.07-.14.21-.21.37-.21h19.69c.15,0,.28.07.36.21.08.13.08.3,0,.42l-13.36,23.15h31.59c.15-.01.3.07.37.2.07.14.07.3,0,.43Z"/>
  <path class="cls-2" d="M63.85,81.48l-9.94,17.22-9.94,17.22c-.08.13-.22.21-.37.21h-19.69c-.16,0-.3-.08-.37-.21s-.07-.3,0-.42l9.57-16.59H.64c-.16,0-.3-.07-.37-.21-.07-.13-.07-.3,0-.42l9.94-17.23c.08-.13.22-.21.37-.21h52.9c.16,0,.3.08.37.21.08.14.08.3,0,.43Z"/>
  <path class="cls-1" d="M139.16,38.56h-63.57c-6.62,0-12.03,5.29-12.23,11.86h-13.98c-6.55,0-11.87,5.33-11.87,11.87v39.7c0,3.08,1.18,6,3.33,8.23,1.72,1.79,3.89,2.97,6.3,3.43v10.07c0,.71.4,1.34,1.03,1.66.25.12.54.19.82.19.41,0,.81-.14,1.13-.38l14.72-11.33h45.9c5.7,0,10.64-4.14,11.67-9.71h.76l15.27,11.75c.55.42,1.33.5,1.94.19.63-.31,1.03-.96,1.03-1.66v-10.49c2.5-.47,4.75-1.69,6.54-3.54,2.21-2.3,3.43-5.31,3.43-8.48v-41.13c0-6.75-5.49-12.24-12.24-12.24ZM49.07,110.17c-4.33-.17-7.85-3.83-7.85-8.17v-39.7c0-4.51,3.67-8.17,8.18-8.17h61.35c4.51,0,8.17,3.67,8.17,8.17v39.7c0,4.51-3.67,8.18-8.17,8.18h-46.53c-.41,0-.81.14-1.13.38l-12.24,9.42v-7.96c0-1-.78-1.81-1.78-1.85ZM110.74,50.43h-43.67c.2-4.54,3.95-8.17,8.53-8.17h63.57c4.71,0,8.54,3.83,8.54,8.54v41.13c0,4.53-3.68,8.35-8.2,8.53-1,.04-1.77.85-1.77,1.85v8.39l-12.79-9.84c-.33-.25-.71-.38-1.13-.38h-1.19v-38.17c0-6.55-5.33-11.87-11.87-11.87Z"/>
  <path class="cls-1" d="M62.58,83.27v15.97c0,1.81,1.47,3.28,3.28,3.28h28.4c1.81,0,3.28-1.47,3.28-3.28v-15.98c1.68.25,3.4-.42,4.46-1.77.78-1,1.12-2.24.96-3.5-.16-1.26-.79-2.38-1.79-3.15l-3.62-2.82v-7.75c0-1.66-1.35-3.01-3.01-3.01h-3.45c-1.66,0-3.01,1.35-3.01,3.01v.37l-5.5-4.28c-1.47-1.14-3.53-1.15-5.01,0l-18.6,14.46c-2.06,1.6-2.43,4.59-.83,6.65,1.05,1.35,2.76,2.04,4.46,1.77ZM84.96,82.46h-9.79c-1.75,0-3.17,1.42-3.17,3.17v13.2h-5.71v-17.67l13.55-10.54c.15-.11.32-.12.47,0l13.55,10.54v17.67h-5.71v-13.2c0-1.75-1.42-3.17-3.17-3.17ZM94.56,74.39l4.34,3.37c.45.35.54,1.01.18,1.46h0c-.17.22-.42.36-.69.39-.28.04-.55-.04-.77-.21l-15.05-11.7c-1.47-1.15-3.53-1.15-5.01,0l-15.05,11.7c-.22.17-.49.24-.77.21-.28-.04-.52-.17-.69-.39-.35-.45-.27-1.11.18-1.46l18.6-14.46c.07-.06.15-.08.23-.08s.16.03.23.09l8.48,6.59c.55.43,1.32.51,1.95.2.63-.31,1.04-.96,1.04-1.66v-3.47h2.08v7.96c0,.57.27,1.11.72,1.46ZM84.43,86.15v12.67h-8.74v-12.67h8.74Z"/>
</svg>