<?xml version="1.0" encoding="UTF-8"?>
<svg id="Capa_1" data-name="Capa 1" xmlns="http://www.w3.org/2000/svg" viewBox="0 0 150 150">
  <defs>
    <style>
      .cls-1 {
        fill: #161e68;
      }

      .cls-1, .cls-2 {
        fill-rule: evenodd;
      }

      .cls-3 {
        opacity: .8;
      }

      .cls-2 {
        fill: #39b5e3;
      }
    </style>
  </defs>
  <g class="cls-3">
    <path class="cls-2" d="M63.14,64.33l-10.01,17.32c-.07.14-.21.21-.36.21H.43c-.15.01-.29-.07-.37-.21-.07-.13-.07-.3,0-.42l10.01-17.32,13.82-23.93c.07-.14.21-.21.37-.21h19.81c.15,0,.29.07.36.21.08.13.08.3,0,.42l-13.44,23.29h31.78c.15-.01.3.07.37.2.07.14.07.3,0,.44Z"/>
    <path class="cls-2" d="M64.24,85.14l-10,17.32-10,17.32c-.08.13-.22.21-.37.21h-19.81c-.16,0-.3-.08-.37-.21s-.07-.3,0-.42l9.63-16.69H.64c-.16,0-.3-.07-.37-.21-.07-.13-.07-.3,0-.42l10-17.34c.08-.13.22-.21.37-.21h53.23c.16,0,.3.09.37.21.08.14.08.3,0,.44Z"/>
  </g>
  <g>
    <path class="cls-1" d="M103.5,69.71v-2.3c.82-.29,1.57-.76,2.2-1.39,2.3-2.3,2.3-6.02,0-8.32-1.11-1.11-2.59-1.72-4.16-1.72-1.08,0-1.96-.88-1.96-1.96s.88-1.96,1.96-1.96h3.92c1.08,0,1.96-.88,1.96-1.96s-.88-1.96-1.96-1.96h-1.96v-1.96c0-1.08-.88-1.96-1.96-1.96s-1.96.88-1.96,1.96v2.3c-2.28.81-3.92,2.99-3.92,5.55,0,3.25,2.63,5.89,5.89,5.89.52,0,1.02.2,1.39.57.77.77.77,2.01,0,2.77-.37.37-.86.57-1.39.57h-3.92c-1.08,0-1.96.88-1.96,1.96s.88,1.96,1.96,1.96h1.96v1.96c0,1.08.88,1.96,1.96,1.96s1.96-.88,1.96-1.96Z"/>
    <path class="cls-1" d="M107.42,95.24h-7.85c-1.08,0-1.96.88-1.96,1.96s.88,1.96,1.96,1.96h3.48l-11.75,13.22-16.28-9.05c-.72-.4-1.62-.31-2.24.24l-15.69,13.73c-.82.71-.9,1.95-.19,2.77.71.82,1.95.9,2.77.18l14.66-12.82,16.45,9.14c.8.45,1.81.28,2.42-.41l12.27-13.8v2.69c0,1.08.88,1.96,1.96,1.96s1.96-.88,1.96-1.96v-7.85c0-1.08-.88-1.96-1.96-1.96Z"/>
    <path class="cls-1" d="M144.7,124.67h-27.47v-5.89h27.47v5.89h0ZM64.26,87.39h-3.92v-31.39h3.92v31.39h0ZM52.49,120.74c0,2.16,1.76,3.92,3.92,3.92h56.9v-27.47c0-1.08.88-1.96,1.96-1.96h5.89v-22.33c-4.67,7.02-12.81,11.19-21.58,10.46v4.03h9.81c1.08,0,1.96.88,1.96,1.96s-.88,1.96-1.96,1.96h-51.01c-1.08,0-1.96-.88-1.96-1.96v-35.32c0-1.08.88-1.96,1.96-1.96h7.85c1.08,0,1.96.88,1.96,1.96v33.35h3.92v-21.58c0-1.08.88-1.96,1.96-1.96h4.25c-.22-1.28-.33-2.6-.33-3.94,0-12.98,10.56-23.54,23.54-23.54,8.18,0,15.4,4.19,19.62,10.54v-10.53c0-2.16-1.76-3.92-3.92-3.92h-60.82c-2.16,0-3.92,1.76-3.92,3.92v84.36h0ZM81.92,59.9c0-10.82,8.8-19.62,19.62-19.62s19.62,8.8,19.62,19.62-8.8,19.62-19.62,19.62-19.62-8.78-19.62-19.62h0ZM79.95,69.32v18.06h-3.92v-19.62h3.31c.19.53.39,1.05.61,1.55h0ZM87.8,87.39h-3.92v-11.91c1.17,1.32,2.49,2.52,3.92,3.55v8.36h0ZM95.65,87.39h-3.92v-6.08c1.25.58,2.56,1.05,3.92,1.4v4.68h0ZM144.7,105.05h-27.47v-5.89h27.47v5.89h0ZM117.23,108.97h27.47v5.88h-27.47v-5.88h0ZM146.66,95.24h-21.58v-58.86c0-4.33-3.52-7.85-7.85-7.85h-60.82c-4.33,0-7.85,3.52-7.85,7.85v84.36c0,4.33,3.52,7.85,7.85,7.85h90.25c1.08,0,1.96-.88,1.96-1.96v-29.43c0-1.08-.88-1.96-1.96-1.96Z"/>
  </g>
</svg>