<?xml version="1.0" encoding="UTF-8"?>
<svg id="Capa_1" data-name="Capa 1" xmlns="http://www.w3.org/2000/svg" viewBox="0 0 150 150">
  <defs>
    <style>
      .cls-1 {
        opacity: .8;
      }

      .cls-2 {
        fill: #161e68;
      }

      .cls-3 {
        fill: #ffcb00;
        fill-rule: evenodd;
      }
    </style>
  </defs>
  <g class="cls-1">
    <path class="cls-3" d="M59.77,61.09l-9.45,16.36c-.07.13-.2.2-.34.2H.53c-.14.01-.27-.07-.35-.2-.07-.12-.07-.28,0-.4l9.45-16.36,13.05-22.6c.07-.13.2-.2.35-.2h18.71c.14,0,.27.07.34.2.08.12.08.28,0,.4l-12.69,22h30.02c.14-.01.28.07.35.19.07.13.07.28,0,.41Z"/>
    <path class="cls-3" d="M60.8,80.74l-9.44,16.36-9.44,16.36c-.08.12-.21.2-.35.2h-18.71c-.15,0-.28-.08-.35-.2s-.07-.28,0-.4l9.09-15.76H.73c-.15,0-.28-.07-.35-.2-.07-.12-.07-.28,0-.4l9.44-16.37c.08-.12.21-.2.35-.2h50.27c.15,0,.28.08.35.2.08.13.08.28,0,.41Z"/>
  </g>
  <g>
    <path class="cls-2" d="M112.67,51.64v8.89c0,1.09.89,1.98,1.97,1.98h18.24c1.09,0,1.98-.89,1.98-1.98v-8.89c.15.04.3.07.46.07.1,0,.2,0,.3-.02.52-.08.98-.36,1.29-.78.32-.43.45-.95.37-1.47-.08-.52-.36-.98-.78-1.29l-11.56-8.52c-.7-.52-1.64-.52-2.35,0l-3.43,2.53c-.08-1.01-.92-1.82-1.96-1.82-1.09,0-1.98.89-1.98,1.97v2.75l-4.19,3.09c-.88.64-1.07,1.88-.42,2.76.47.63,1.31.89,2.05.73ZM123.76,53.75c-1.09,0-1.97.89-1.97,1.97v2.83h-5.17v-9.62l7.15-5.27,7.14,5.27v9.62h-5.17v-2.83c0-1.09-.89-1.97-1.97-1.97Z"/>
    <path class="cls-2" d="M142.9,31.44h-38.28c-3.91,0-7.1,3.18-7.1,7.1v24.6c0,3.91,3.18,7.1,7.1,7.1h.18v4.13c0,1.47.83,2.78,2.16,3.41.52.24,1.06.36,1.61.36.87,0,1.7-.3,2.39-.87l8.51-7.03h23.43c3.91,0,7.1-3.19,7.1-7.1v-24.6c0-3.91-3.19-7.1-7.1-7.1ZM106.78,66.3h-2.16c-1.73,0-3.15-1.41-3.15-3.15v-24.6c0-1.74,1.41-3.15,3.15-3.15h38.28c1.74,0,3.15,1.41,3.15,3.15v24.6c0,1.74-1.41,3.15-3.15,3.15h-24.14c-.46,0-.9.16-1.26.45l-8.75,7.23v-5.71c0-1.09-.89-1.97-1.98-1.97Z"/>
    <path class="cls-2" d="M54.39,53.45c.06.89.23,3.55,2.59,4.98,2.12,6.99,7.35,14.39,15.76,14.39,10.93,0,14.88-10.82,15.9-14.47,2.23-1.43,2.39-3.95,2.44-4.91l.15-2.34c.15-2.36-.49-4.13-1.89-5.26.02-9.59-3.79-12.69-6.08-14.56l-.13-.1c-3.64-2.98-10.6-3.97-15.59-3.4-4.08.46-5.36,1.51-6.15,3.19-1.34.69-2.33,1.83-3.09,3.19-.09.13-.17.28-.23.43-1.8,3.61-2,8.58-1.95,11.27-1.39,1.13-2.02,2.89-1.87,5.25l.15,2.35ZM60.6,46.94c-.12-1.86-.04-4.22.3-6.37,2.54,1.61,6.32,1.66,11.28.12,5.17-1.61,9.53-1.96,11.37-.91.45.26.7.58.83,1.06.38,1.59.58,3.59.49,6.16-.03.94.52,1.8,1.39,2.15.31.12.62.25.53,1.67l-.15,2.33c-.09,1.36-.32,1.45-.65,1.57-.71.25-1.24.84-1.42,1.58-.67,2.83-3.5,12.07-11.83,12.07-6.34,0-10.29-6.51-11.75-12.08-.19-.73-.74-1.31-1.45-1.55-.36-.12-.63-.21-.72-1.59l-.15-2.33c-.09-1.42.23-1.55.53-1.67.89-.36,1.45-1.24,1.39-2.2ZM70.86,36.44c-5.1,1.59-7.08.76-7.69.32-.41-.28-.61-.65-.71-.93.29-.42.62-.75.99-.93,1.26-.61,1.69-1.52,1.93-2.01.13-.26,1.1-.52,2.67-.7.74-.08,1.52-.12,2.32-.12,4.03,0,8.13,1.05,9.95,2.54l.15.12s0,0,0,0c-3.19-.02-6.72.81-9.61,1.71Z"/>
    <path class="cls-2" d="M135.16,85.09h-56.31c-.95,0-1.79.6-2.1,1.51l-7.62,22.47-15.26-1.27.55-7.4c.05-.59-.14-1.17-.53-1.62-.39-.45-.93-.72-1.51-.76-1.22-.1-2.29.82-2.39,2.05l-.72,9.61c-.09,1.21.83,2.28,2.03,2.38l16.35,1.36-2.57,7.58h-20.92c-4.63,0-8.43-3.62-8.66-8.24-.4-8.15.47-16.27,2.6-24.14l.1-.35c.88-3.27,3.62-5.75,6.97-6.29l16.9-2.76,9.58,5.34c.67.37,1.49.37,2.16,0l9.58-5.34,16.73,2.74c1.21.19,2.35-.63,2.55-1.84.19-1.21-.63-2.35-1.83-2.55l-16.29-2.66-.99-2.32c-.48-1.13-1.79-1.65-2.92-1.17-.55.23-.97.67-1.19,1.22s-.21,1.16.02,1.7l.69,1.61-7.43,4.14-7.43-4.14.69-1.61c.48-1.13-.04-2.44-1.17-2.92-1.13-.47-2.44.05-2.91,1.17l-1,2.32-16.47,2.69c-5.06.83-9.2,4.56-10.54,9.52l-.09.34c-2.25,8.33-3.18,16.91-2.76,25.52.34,6.99,6.1,12.47,13.1,12.47h78.83c.95,0,1.8-.61,2.1-1.51l12.18-35.9c.23-.67.11-1.42-.3-2.01-.42-.58-1.09-.93-1.81-.93ZM132.06,89.53l-10.67,31.46h-51.62l10.67-31.46h51.62Z"/>
  </g>
</svg>