<?xml version="1.0" encoding="UTF-8"?>
<svg id="Capa_1" data-name="Capa 1" xmlns="http://www.w3.org/2000/svg" viewBox="0 0 150 150">
  <defs>
    <style>
      .cls-1 {
        fill: #161e68;
      }

      .cls-2 {
        fill: #39b5e3;
        fill-rule: evenodd;
        opacity: .8;
      }
    </style>
  </defs>
  <path class="cls-2" d="M63.83,60.13l-10.1,17.48c-.07.14-.21.21-.36.21H.54c-.15.01-.29-.08-.37-.21-.07-.13-.07-.3,0-.43l10.1-17.48,13.95-24.15c.07-.14.21-.21.37-.21h19.99c.15,0,.29.07.36.21.09.13.09.3,0,.43l-13.56,23.5h32.07c.15-.01.3.07.37.2.07.14.07.3,0,.44Z"/>
  <path class="cls-2" d="M64.93,81.13l-10.09,17.48-10.09,17.48c-.09.13-.22.21-.37.21h-19.99c-.16,0-.3-.09-.37-.21s-.07-.3,0-.43l9.72-16.84H.75c-.16,0-.3-.07-.37-.21-.07-.13-.07-.3,0-.43l10.09-17.49c.09-.13.22-.21.37-.21h53.71c.16,0,.3.09.37.21.09.14.09.3,0,.44Z"/>
  <path class="cls-1" d="M149.91,89.22c-2.19-8.1-7.92-14.35-15.76-17.2v-4.28h3.01c1.14,0,2.07-.93,2.07-2.07v-4.13h3.74c1.14,0,2.07-.93,2.07-2.07v-7.33c0-.83-.49-1.58-1.21-1.88l-46.4-24c-.56-.31-1.29-.32-1.92,0l-46.41,24.03c-.66.33-1.06.82-1.18,1.46-.08.43-.08,2.92-.06,6.79v.99c0,1.14.93,2.07,2.07,2.07h3.74v4.13c0,1.14.93,2.07,2.07,2.07h3.14s0,35.52,0,35.52h-3.14c-1.14,0-2.07.93-2.07,2.07v5.31h-3.74c-1.14,0-2.07.93-2.07,2.07v7.41c0,1.14.93,2.07,2.07,2.07h63.54v10.63c0,.75.42,1.45,1.08,1.81.32.17.66.26,1,.26.39,0,.78-.11,1.13-.34l8.78-5.81,8.67,5.73c.67.47,1.49.54,2.18.18.69-.36,1.12-1.07,1.12-1.84v-10.71h5.52c1.14,0,2.07-.93,2.07-2.07v-7.41c0-.2-.03-.4-.08-.58,5.28-6.33,7.14-14.86,4.98-22.86ZM58.44,50.11l38-19.67,38.03,19.67H58.44ZM140.87,54.26v3.19H52.02v-3.19h88.85ZM140.87,116.04v2.04h-3.09c1.09-.61,2.12-1.29,3.09-2.04ZM113.1,118.08h-61.08v-3.27h56.49c1.43,1.27,2.97,2.36,4.59,3.27ZM66.62,67.79v35.5h-3.61v-35.5h3.61ZM117.14,87.62c2.21-2.21,5.15-3.43,8.29-3.43s6.08,1.22,8.29,3.43,3.43,5.15,3.43,8.29-1.22,6.08-3.43,8.29c-4.57,4.57-12,4.57-16.57,0-4.57-4.57-4.57-12,0-16.57ZM103.3,108.32v2.36h-13.66v-3.24h13.19c.16.33.32.62.47.89ZM89.62,63.65v-2.06h13.66v2.06h-13.66ZM126.4,70.55v-2.73h3.61v3.13c-1.2-.22-2.41-.36-3.61-.4ZM119.36,67.79h2.9v2.93c-8.63,1.08-16.14,6.6-19.81,14.42v-17.35h2.88c1.14,0,2.07-.93,2.07-2.07v-4.13h9.89v4.13c0,1.14.93,2.07,2.07,2.07ZM98.3,67.79v35.5h-3.61v-35.5h3.61ZM137.4,106.28c2.5-2.9,3.88-6.58,3.88-10.4,0-8.74-7.11-15.84-15.84-15.84s-15.84,7.12-15.87,15.87c0,3.82,1.38,7.5,3.88,10.4v7.11c-5.11-3.49-8.42-8.95-9.13-15.13-.74-6.46,1.47-12.81,6.08-17.42,4.14-4.14,9.58-6.21,15.01-6.21s10.88,2.07,15.02,6.21c4.61,4.61,6.83,10.95,6.09,17.4-.71,6.19-4.01,11.66-9.11,15.15v-7.14ZM121.45,63.65v-2.06h13.63v2.06h-13.63ZM73.54,103.29h-2.77v-35.5h2.77c1.14,0,2.07-.93,2.07-2.07v-4.13h9.89v4.13c0,1.14.93,2.07,2.07,2.07h3.01v35.5h-3.01c-1.14,0-2.07.93-2.07,2.07v5.31h-9.89v-5.31c0-1.14-.93-2.07-2.07-2.07ZM71.44,61.59v2.06h-13.64v-2.06h13.64ZM57.81,110.64v-3.24h13.64v3.24h-13.64ZM133.26,109.7v19.28l-6.68-4.43c-.71-.48-1.65-.46-2.31.02l-6.69,4.41v-19.28c4.85,2.76,10.83,2.76,15.68,0Z"/>
</svg>