<?xml version="1.0" encoding="UTF-8"?>
<svg id="Capa_1" data-name="Capa 1" xmlns="http://www.w3.org/2000/svg" viewBox="0 0 150 150">
  <defs>
    <style>
      .cls-1, .cls-2 {
        fill: #161e68;
      }

      .cls-2 {
        fill-rule: evenodd;
        opacity: .8;
      }
    </style>
  </defs>
  <path class="cls-2" d="M63.19,59.67l-10,17.31c-.07.14-.21.21-.36.21H.53c-.15.01-.29-.07-.37-.21-.07-.13-.07-.3,0-.42l10-17.31,13.81-23.91c.07-.14.21-.21.37-.21h19.79c.15,0,.29.07.36.21.08.13.08.3,0,.42l-13.43,23.27h31.76c.15-.01.3.07.37.2.07.14.07.3,0,.43Z"/>
  <path class="cls-2" d="M64.29,80.46l-9.99,17.31-9.99,17.31c-.08.13-.22.21-.37.21h-19.79c-.16,0-.3-.08-.37-.21s-.07-.3,0-.42l9.62-16.67H.74c-.16,0-.3-.07-.37-.21-.07-.13-.07-.3,0-.42l9.99-17.32c.08-.13.22-.21.37-.21h53.18c.16,0,.3.08.37.21.08.14.08.3,0,.44Z"/>
  <path class="cls-1" d="M149.55,94.41h0c-1.76-4.02-6.23-5.97-10.15-4.45l-22.38,7.11c.01-.21.01-.42,0-.62-.06-1.9-.88-3.73-2.25-5.02-1.32-1.24-3.03-1.88-4.81-1.83l-10.48.25c-3.92.11-7.81-.94-11.24-3.02-4.05-2.47-8.7-3.71-13.45-3.63l-4.44.11c-1.06-2.6-3.59-4.27-6.45-4.2l-7.95.06c-3.43.03-6.21,2.85-6.21,6.28v12.4c0,1.13.92,2.04,2.04,2.04s2.04-.92,2.04-2.04v-12.4c0-1.2.97-2.18,2.17-2.2l8.06-.06c1.5,0,2.71,1.11,2.75,2.52l.88,28.63c.02.66-.23,1.29-.7,1.78-.5.53-1.19.83-1.94.85l-8.96.19c-1.48-.04-2.26-1.14-2.26-2.2v-5.21c0-1.13-.92-2.04-2.04-2.04s-2.04.92-2.04,2.04v5.21c0,3.46,2.81,6.28,6.26,6.28l9.13-.19c2.8-.07,5.17-1.73,6.15-4.27.09,0,.2,0,.32-.01,1.72-.06,5.73-.22,10.54,2.31.24.1.62.31,1.1.58,2.38,1.33,7.08,3.95,13.38,3.95,2.37,0,4.97-.37,7.76-1.32l40.34-16.66c2.15-.73,3.85-2.29,4.78-4.41.96-2.16.96-4.64.01-6.81ZM86.13,90.31c4.08,2.48,8.74,3.73,13.46,3.62l10.54-.25c1.51,0,2.77,1.29,2.81,2.89.02.82-.26,1.58-.8,2.14-.51.53-1.19.84-1.88.85l-19.03.48c-1.12.02-2.02.95-2,2.09.04,1.12.94,1.99,2.1,1.99l19.03-.48c1.44-.03,2.82-.54,3.99-1.47l26.38-8.36c1.96-.75,4.17.23,5.05,2.23.49,1.12.49,2.4,0,3.51-.46,1.06-1.34,1.85-2.45,2.24l-40.37,16.67c-8.39,2.86-14.91-.81-17.7-2.38-.59-.33-1.01-.57-1.25-.64-3.5-1.85-7.33-2.78-11.41-2.78-.3,0-.59,0-.89.01l-.79-25.32,3.97-.1c3.93-.1,7.82.95,11.22,3.04Z"/>
  <path class="cls-1" d="M85.46,62.55l5.01.9c.51,1.74,1.2,3.44,2.05,5.06l-2.83,4.1c-.5.72-.48,1.68.04,2.38,2.12,2.84,4.64,5.29,7.49,7.29.71.5,1.66.49,2.37-.02l3.75-2.72c1.56.87,3.21,1.56,4.91,2.08l.77,4.47c.15.86.83,1.54,1.7,1.67,1.75.27,3.49.41,5.23.41s3.47-.14,5.18-.41c.87-.14,1.55-.81,1.69-1.67l.77-4.47c1.7-.52,3.35-1.22,4.91-2.09l3.79,2.72c.7.5,1.65.51,2.36.02,2.86-2,5.38-4.44,7.48-7.27.52-.7.54-1.66.04-2.38l-2.85-4.13c.85-1.62,1.54-3.32,2.05-5.06l5.01-.9c.86-.15,1.52-.83,1.66-1.7.54-3.51.54-6.91,0-10.41-.14-.87-.81-1.55-1.67-1.7l-4.99-.86c-.49-1.72-1.19-3.43-2.07-5.09l2.81-4.07c.49-.71.48-1.66-.03-2.36-2.03-2.79-4.54-5.25-7.47-7.32-.71-.5-1.67-.5-2.37.01l-3.76,2.72c-1.57-.86-3.21-1.55-4.9-2.06l-.77-4.51c-.15-.87-.83-1.54-1.69-1.67-3.53-.56-7.25-.54-10.48.05-.84.16-1.5.82-1.64,1.66l-.77,4.47c-1.68.51-3.33,1.2-4.9,2.06l-3.75-2.69c-.71-.51-1.67-.51-2.37,0-2.88,2.05-5.39,4.5-7.46,7.29-.53.7-.54,1.66-.04,2.38l2.8,4.04c-.88,1.66-1.57,3.37-2.06,5.09l-4.94.86c-.84.14-1.51.8-1.66,1.64-.6,3.23-.62,6.85-.06,10.47.13.86.8,1.54,1.66,1.7ZM94.1,50.13c.5-2.17,1.37-4.33,2.59-6.42.4-.69.37-1.55-.09-2.2l-2.67-3.85c1.33-1.6,2.84-3.08,4.5-4.39l3.61,2.58c.67.48,1.56.51,2.25.08,1.96-1.2,4.06-2.09,6.23-2.62.79-.19,1.39-.84,1.52-1.64l.74-4.3c1.99-.24,4.14-.25,6.26-.02l.74,4.31c.14.8.73,1.44,1.53,1.64,2.17.53,4.26,1.41,6.23,2.62.71.43,1.59.4,2.27-.08l3.62-2.62c1.68,1.31,3.18,2.79,4.49,4.39l-2.68,3.89c-.45.65-.48,1.51-.08,2.19,1.22,2.09,2.1,4.25,2.59,6.42.18.81.83,1.42,1.64,1.56l4.81.82c.23,2.13.23,4.19,0,6.28l-4.82.86c-.8.14-1.43.74-1.62,1.53-.54,2.24-1.42,4.4-2.6,6.41-.41.7-.37,1.57.1,2.22l2.71,3.9c-1.33,1.62-2.84,3.08-4.49,4.36l-3.67-2.63c-.68-.49-1.58-.52-2.28-.07-1.93,1.21-4.02,2.1-6.21,2.64-.79.19-1.39.84-1.53,1.64l-.73,4.27c-2.09.23-4.15.22-6.27,0l-.73-4.27c-.14-.8-.74-1.44-1.52-1.64-2.2-.54-4.29-1.43-6.21-2.64-.7-.45-1.6-.42-2.29.07l-3.63,2.62c-1.64-1.28-3.16-2.76-4.51-4.39l2.41-3.48.28-.39c.47-.65.51-1.53.1-2.22-1.18-2.02-2.06-4.17-2.6-6.41-.19-.79-.83-1.39-1.62-1.53l-4.82-.86c-.23-2.13-.23-4.28.01-6.28l4.79-.83c.81-.14,1.46-.75,1.64-1.56Z"/>
  <path class="cls-1" d="M115.92,68.87c7.29,0,13.21-5.93,13.21-13.21s-5.93-13.21-13.21-13.21-13.2,5.93-13.2,13.21,5.92,13.21,13.2,13.21ZM106.8,55.65c0-5.03,4.09-9.13,9.12-9.13s9.13,4.1,9.13,9.13-4.1,9.13-9.13,9.13-9.12-4.1-9.12-9.13Z"/>
</svg>