<?xml version="1.0" encoding="UTF-8"?>
<svg id="Capa_1" data-name="Capa 1" xmlns="http://www.w3.org/2000/svg" viewBox="0 0 150 150">
  <defs>
    <style>
      .cls-1 {
        opacity: .8;
      }

      .cls-2 {
        fill: #161e68;
      }

      .cls-3 {
        fill: #f6a500;
        fill-rule: evenodd;
      }
    </style>
  </defs>
  <g class="cls-1">
    <path class="cls-3" d="M62.09,60.64l-9.84,17.03c-.07.14-.21.21-.35.21H.42c-.15.01-.28-.07-.37-.21-.07-.13-.07-.29,0-.42l9.84-17.03,13.59-23.53c.07-.14.21-.21.37-.21h19.48c.15,0,.28.07.35.21.08.13.08.29,0,.42l-13.21,22.9h31.25c.15-.01.29.07.37.2.07.14.07.29,0,.43Z"/>
  </g>
  <g class="cls-1">
    <path class="cls-3" d="M63.16,81.11l-9.83,17.03-9.83,17.03c-.08.13-.22.21-.37.21h-19.48c-.16,0-.29-.08-.37-.21s-.07-.29,0-.42l9.47-16.41H.63c-.16,0-.29-.07-.37-.21-.07-.13-.07-.29,0-.42l9.83-17.05c.08-.13.22-.21.37-.21h52.34c.16,0,.29.08.37.21.08.14.08.29,0,.43Z"/>
  </g>
  <path class="cls-2" d="M149.17,112.64h-2.55v-45.27c0-4.48-3.65-8.13-8.13-8.13h-3.55v4.05h3.55c2.25,0,4.08,1.83,4.08,4.08v45.27H61.19v-45.27c0-2.25,1.83-4.08,4.08-4.08h12.7v-4.05h-12.7c-4.48,0-8.13,3.65-8.13,8.13v45.27h-2.55c-1.12,0-2.03.91-2.03,2.03,0,5.32,4.33,9.65,9.65,9.65h79.33c5.32,0,9.65-4.33,9.65-9.65,0-1.12-.91-2.03-2.03-2.03ZM146.77,116.69c-.83,2.14-2.89,3.58-5.22,3.58H62.22c-2.33,0-4.4-1.44-5.22-3.58h89.78Z"/>
  <path class="cls-2" d="M136.47,106.54h-69.18v-37.14h10.68v-4.05h-12.7c-1.12,0-2.03.91-2.03,2.03v41.19c0,1.12.91,2.03,2.03,2.03h73.23c1.12,0,2.03-.91,2.03-2.03v-41.19c0-1.12-.91-2.03-2.03-2.03h-3.55v4.05h1.53v37.14Z"/>
  <rect class="cls-2" x="69.35" y="100.43" width="4.05" height="4.05"/>
  <path class="cls-2" d="M75.45,100.43v4.05h4.05v-3.05h2.05v3.05h4.05v-4.05h-3.05v-5.1h14.26v5.1h-3.05v4.05h4.05v-3.05h2.05v3.05h4.05v-4.05h-3.05v-13.23c0-.94-.65-1.74-1.53-1.96v-2.11h7.13c.54,0,1.05-.21,1.43-.59l3.98-3.98h17.47c2.8,0,5.08-2.28,5.08-5.08,0-1.59-.74-3.06-1.99-4.02.31-.67.47-1.37.47-2.08v-30.51c0-1.12-.91-2.03-2.03-2.03h-6.14c.36-.82.54-1.67.54-2.55,0-3.64-2.96-6.6-6.6-6.6h-3.05c-3.69,0-7.06,1.78-9.15,4.79-2.1-3.01-5.47-4.79-9.15-4.79h-3.05c-3.64,0-6.6,2.96-6.6,6.6,0,.88.18,1.73.54,2.55h-6.14c-1.12,0-2.03.91-2.03,2.03v30.51c0,1.57.72,3.01,1.94,3.97l-1.4,1.52c-.35.37-.54.86-.54,1.37v11c-.88.22-1.53,1.02-1.53,1.96v13.23h-3.05ZM84.08,42.46v-3.58h14.26v3.58h-14.26ZM91.7,32.28c0-1.41,1.14-2.55,2.55-2.55h3.05c3.17,0,5.95,2.11,6.83,5.1h-9.89c-1.41,0-2.55-1.14-2.55-2.55ZM118.66,34.83h-9.88c.89-2.99,3.67-5.1,6.83-5.1h3.05c1.41,0,2.55,1.14,2.55,2.55s-1.14,2.55-2.55,2.55ZM114.59,42.46v-3.58h14.26v3.58h-14.26ZM128.84,46.51v20.86c0,.57-.46,1.03-1.03,1.03h-13.23v-21.88h14.26ZM95.28,81.1v4.08h-11.21v-10.15l8.01-8.68h9.79c.57,0,1.03.46,1.03,1.03s-.46,1.03-1.03,1.03h-8.13s0,4.05,0,4.05h35.59c.57,0,1.03.46,1.03,1.03s-.46,1.03-1.03,1.03h-18.31c-.54,0-1.05.21-1.43.59l-3.98,3.98h-8.31c-1.12,0-2.03.91-2.03,2.03ZM110.54,68.4h-3.69c.08-.35.12-.69.12-1.03,0-2.63-2.01-4.8-4.58-5.05v-23.43h8.15v29.51ZM84.08,67.37v-20.86h14.26v15.78h-7.13c-.56,0-1.11.24-1.49.65l-4.96,5.37c-.4-.14-.69-.51-.69-.94ZM96.81,89.23v2.05h-14.26v-2.05h14.26Z"/>
  <rect class="cls-2" x="87.65" y="100.43" width="4.05" height="4.05"/>
  <rect class="cls-2" x="105.96" y="100.43" width="4.05" height="4.05"/>
  <path class="cls-2" d="M69.35,38.39v.5h4.05v-.5c0-2.25,1.83-4.08,4.08-4.08h.5v-4.05h-.5c-2.25,0-4.08-1.83-4.08-4.08v-.5h-4.05v.5c0,2.25-1.83,4.08-4.08,4.08h-.5v4.05h.5c2.25,0,4.08,1.83,4.08,4.08ZM70.59,32.28c.28-.24.54-.5.78-.78.24.28.5.54.78.78-.28.24-.54.5-.78.78-.24-.28-.5-.54-.78-.78Z"/>
  <path class="cls-2" d="M60.19,53.64v.5h4.05v-.5c0-2.25,1.83-4.08,4.08-4.08h.5v-4.05h-.5c-2.25,0-4.08-1.83-4.08-4.08v-.5h-4.05v.5c0,2.25-1.83,4.08-4.08,4.08h-.5v4.05h.5c2.25,0,4.08,1.83,4.08,4.08ZM61.44,47.54c.28-.24.54-.5.78-.78.24.28.5.54.78.78-.28.24-.54.5-.78.78-.24-.28-.5-.54-.78-.78Z"/>
  <path class="cls-2" d="M150.7,36.36c-2.25,0-4.08-1.83-4.08-4.08v-.5h-4.05v.5c0,2.25-1.83,4.08-4.08,4.08h-.5v4.05h.5c2.25,0,4.08,1.83,4.08,4.08v.5h4.05s0-.5,0-.5c0-2.25,1.83-4.08,4.08-4.08h.5v-4.05h-.5ZM145.38,38.39c-.28.24-.54.5-.78.78-.24-.28-.5-.54-.78-.78.28-.24.54-.5.78-.78.24.28.5.54.78.78Z"/>
</svg>