<?xml version="1.0" encoding="UTF-8"?>
<svg id="Capa_1" data-name="Capa 1" xmlns="http://www.w3.org/2000/svg" viewBox="0 0 150 150">
  <defs>
    <style>
      .cls-1 {
        opacity: .8;
      }

      .cls-2 {
        fill: #161e68;
      }

      .cls-3 {
        fill: #f6a500;
        fill-rule: evenodd;
      }
    </style>
  </defs>
  <g class="cls-1">
    <path class="cls-3" d="M62.09,60.64l-9.84,17.03c-.07.14-.21.21-.35.21H.42c-.15.01-.28-.07-.37-.21-.07-.13-.07-.29,0-.42l9.84-17.03,13.59-23.53c.07-.14.21-.21.37-.21h19.48c.15,0,.28.07.35.21.08.13.08.29,0,.42l-13.21,22.9h31.25c.15-.01.29.07.37.2.07.14.07.29,0,.43Z"/>
    <path class="cls-3" d="M63.16,81.11l-9.83,17.03-9.83,17.03c-.08.13-.22.21-.37.21h-19.48c-.16,0-.29-.08-.37-.21s-.07-.29,0-.42l9.47-16.41H.63c-.16,0-.29-.07-.37-.21-.07-.13-.07-.29,0-.42l9.83-17.05c.08-.13.22-.21.37-.21h52.34c.16,0,.29.08.37.21.08.14.08.29,0,.43Z"/>
  </g>
  <g>
    <path class="cls-2" d="M63.7,57.07h-6.75c-1.08,0-1.97.88-1.97,1.96v6.75c0,1.08.88,1.96,1.97,1.96h6.75c1.08,0,1.97-.88,1.97-1.96v-6.75c0-1.08-.88-1.96-1.97-1.96ZM61.73,61v2.82h-2.82v-2.82h2.82Z"/>
    <path class="cls-2" d="M71.85,67.75h6.75c1.08,0,1.97-.88,1.97-1.96v-6.75c0-1.08-.88-1.96-1.97-1.96h-6.75c-1.08,0-1.97.88-1.97,1.96v6.75c0,1.08.88,1.96,1.97,1.96ZM73.81,63.82v-2.82h2.82v2.82h-2.82Z"/>
    <path class="cls-2" d="M86.74,67.75h6.75c1.08,0,1.97-.88,1.97-1.96v-6.75c0-1.08-.88-1.96-1.97-1.96h-6.75c-1.08,0-1.97.88-1.97,1.96v6.75c0,1.08.88,1.96,1.97,1.96ZM91.53,61v2.82h-2.82v-2.82h2.82Z"/>
    <path class="cls-2" d="M90.51,34.28h-7.81c-1.08,0-1.96.88-1.96,1.97v5.95c0,1.08.88,1.96,1.96,1.96h7.81c1.08,0,1.97-.88,1.97-1.96v-5.95c0-1.09-.88-1.97-1.97-1.97ZM88.54,38.21v2.02h-3.88v-2.02h3.88Z"/>
    <path class="cls-2" d="M107.75,34.28h-7.81c-1.08,0-1.97.88-1.97,1.97v5.95c0,1.08.88,1.96,1.97,1.96h7.81c1.08,0,1.97-.88,1.97-1.96v-5.95c0-1.09-.88-1.97-1.97-1.97ZM101.91,40.23v-2.02h3.88v2.02h-3.88Z"/>
    <path class="cls-2" d="M125,34.28h-7.81c-1.08,0-1.97.88-1.97,1.97v5.95c0,1.08.88,1.96,1.97,1.96h7.81c1.08,0,1.96-.88,1.96-1.96v-5.95c0-1.09-.88-1.97-1.96-1.97ZM123.03,38.21v2.02h-3.88v-2.02h3.88Z"/>
    <path class="cls-2" d="M125,51.79h-7.81c-1.08,0-1.97.88-1.97,1.96v5.95c0,1.09.88,1.97,1.97,1.97h7.81c1.08,0,1.96-.88,1.96-1.97v-5.95c0-1.08-.88-1.96-1.96-1.96ZM123.03,55.72v2.02h-3.88v-2.02h3.88Z"/>
    <path class="cls-2" d="M125,69.29h-7.81c-1.08,0-1.97.88-1.97,1.96v5.95c0,1.08.88,1.96,1.97,1.96h7.81c1.08,0,1.96-.88,1.96-1.96v-5.95c0-1.08-.88-1.96-1.96-1.96ZM123.03,73.22v2.02h-3.88v-2.02h3.88Z"/>
    <path class="cls-2" d="M125,86.79h-7.81c-1.08,0-1.97.88-1.97,1.97v5.95c0,1.08.88,1.96,1.97,1.96h7.81c1.08,0,1.96-.88,1.96-1.96v-5.95c0-1.08-.88-1.97-1.96-1.97ZM123.03,90.73v2.02h-3.88v-2.02h3.88Z"/>
    <path class="cls-2" d="M125,104.3h-7.81c-1.08,0-1.97.88-1.97,1.96v5.95c0,1.08.88,1.96,1.97,1.96h7.81c1.08,0,1.96-.88,1.96-1.96v-5.95c0-1.08-.88-1.96-1.96-1.96ZM123.03,108.23v2.02h-3.88v-2.02h3.88Z"/>
    <path class="cls-2" d="M63.7,73.11h-6.75c-1.08,0-1.97.88-1.97,1.97v6.75c0,1.08.88,1.96,1.97,1.96h6.75c1.08,0,1.97-.88,1.97-1.96v-6.75c0-1.08-.88-1.97-1.97-1.97ZM61.73,77.05v2.82h-2.82v-2.82h2.82Z"/>
    <path class="cls-2" d="M71.85,83.79h6.75c1.08,0,1.97-.88,1.97-1.96v-6.75c0-1.08-.88-1.97-1.97-1.97h-6.75c-1.08,0-1.97.88-1.97,1.97v6.75c0,1.08.88,1.96,1.97,1.96ZM73.81,79.86v-2.82h2.82v2.82h-2.82Z"/>
    <path class="cls-2" d="M86.74,83.79h6.75c1.08,0,1.97-.88,1.97-1.96v-6.75c0-1.08-.88-1.97-1.97-1.97h-6.75c-1.08,0-1.97.88-1.97,1.97v6.75c0,1.08.88,1.96,1.97,1.96ZM91.53,77.05v2.82h-2.82v-2.82h2.82Z"/>
    <path class="cls-2" d="M63.7,89.16h-6.75c-1.08,0-1.97.88-1.97,1.96v6.75c0,1.09.88,1.97,1.97,1.97h6.75c1.08,0,1.97-.88,1.97-1.97v-6.75c0-1.08-.88-1.96-1.97-1.96ZM61.73,93.09v2.82h-2.82v-2.82h2.82Z"/>
    <path class="cls-2" d="M80.56,91.13c0-1.08-.88-1.96-1.97-1.96h-6.75c-1.08,0-1.97.88-1.97,1.96v6.75c0,1.09.88,1.97,1.97,1.97h6.75c1.08,0,1.97-.88,1.97-1.97v-6.75ZM76.63,93.09v2.82h-2.82v-2.82h2.82Z"/>
    <path class="cls-2" d="M86.74,99.84h6.75c1.08,0,1.97-.88,1.97-1.97v-6.75c0-1.08-.88-1.96-1.97-1.96h-6.75c-1.08,0-1.97.88-1.97,1.96v6.75c0,1.09.88,1.97,1.97,1.97ZM91.53,93.09v2.82h-2.82v-2.82h2.82Z"/>
    <path class="cls-2" d="M63.7,105.21h-6.75c-1.08,0-1.97.88-1.97,1.96v6.75c0,1.08.88,1.96,1.97,1.96h6.75c1.08,0,1.97-.88,1.97-1.96v-6.75c0-1.08-.88-1.96-1.97-1.96ZM61.73,109.14v2.82h-2.82v-2.82h2.82Z"/>
    <path class="cls-2" d="M86.74,115.88h6.75c1.08,0,1.97-.88,1.97-1.96v-6.75c0-1.08-.88-1.96-1.97-1.96h-6.75c-1.08,0-1.97.88-1.97,1.96v6.75c0,1.08.88,1.96,1.97,1.96ZM91.53,109.14v2.82h-2.82v-2.82h2.82Z"/>
    <path class="cls-2" d="M136.79,122.6h-2.09V28.49c0-1.08-.88-1.96-1.97-1.96h-57.77c-1.08,0-1.96.88-1.96,1.96v20.4h-24.34c-1.08,0-1.97.88-1.97,1.96v71.75h-2.09c-1.08,0-1.97.88-1.97,1.96s.88,1.96,1.97,1.96h92.19c1.08,0,1.97-.88,1.97-1.96s-.88-1.96-1.97-1.96ZM73.81,109.14h2.82v13.47h-2.82v-13.47ZM78.6,105.21h-6.75c-1.08,0-1.97.88-1.97,1.96v15.43h-19.26V52.82h49.2v69.78h-19.26v-15.43c0-1.08-.88-1.96-1.97-1.96ZM103.77,110.25v-2.02h2.02v2.02h-2.02ZM103.77,92.75v-2.02h2.02v2.02h-2.02ZM103.77,75.24v-2.02h2.02v2.02h-2.02ZM103.77,57.74v-2.02h2.02v2.02h-2.02ZM103.75,114.18h4c1.08,0,1.97-.88,1.97-1.96v-5.95c0-1.08-.88-1.96-1.97-1.96h-4v-7.62h4c1.08,0,1.97-.88,1.97-1.96v-5.95c0-1.08-.88-1.97-1.97-1.97h-4v-7.62h4c1.08,0,1.97-.88,1.97-1.96v-5.95c0-1.08-.88-1.96-1.97-1.96h-4v-7.62h4c1.08,0,1.97-.88,1.97-1.97v-5.95c0-1.08-.88-1.96-1.97-1.96h-4v-.94c0-1.08-.88-1.96-1.97-1.96h-24.86v-18.44h53.83v92.15h-27.01v-8.42Z"/>
  </g>
</svg>