<?xml version="1.0" encoding="UTF-8"?>
<svg id="Capa_1" data-name="Capa 1" xmlns="http://www.w3.org/2000/svg" viewBox="0 0 150 150">
  <defs>
    <style>
      .cls-1 {
        fill: #161e68;
      }

      .cls-2 {
        fill: #39b5e3;
        fill-rule: evenodd;
        opacity: .8;
      }
    </style>
  </defs>
  <path class="cls-2" d="M63.83,60.13l-10.1,17.48c-.07.14-.21.21-.36.21H.54c-.15.01-.29-.08-.37-.21-.07-.13-.07-.3,0-.43l10.1-17.48,13.95-24.15c.07-.14.21-.21.37-.21h19.99c.15,0,.29.07.36.21.09.13.09.3,0,.43l-13.56,23.5h32.07c.15-.01.3.07.37.2.07.14.07.3,0,.44Z"/>
  <path class="cls-2" d="M64.93,81.13l-10.09,17.48-10.09,17.48c-.09.13-.22.21-.37.21h-19.99c-.16,0-.3-.09-.37-.21s-.07-.3,0-.43l9.72-16.84H.75c-.16,0-.3-.07-.37-.21-.07-.13-.07-.3,0-.43l10.09-17.49c.09-.13.22-.21.37-.21h53.71c.16,0,.3.09.37.21.09.14.09.3,0,.44Z"/>
  <path class="cls-1" d="M130.81,101.35c0,8.1-6.57,14.67-14.67,14.67s-14.67-6.57-14.67-14.67,6.57-14.67,14.67-14.67,14.67,6.57,14.67,14.67ZM126.48,101.35c0-5.71-4.63-10.33-10.33-10.33s-10.33,4.63-10.33,10.33,4.63,10.33,10.33,10.33,10.33-4.63,10.33-10.33Z"/>
  <g>
    <path class="cls-1" d="M82.51,42.69h62.22c2.02,0,5.44,3.42,5.27,5.66v49.54c-.62,5.56-5.98,6.03-10.53,5.66,2.48,2.71,1.73,7.49-1.6,9.12-2.9,1.42-5.34.03-4.07,4.93.77,2.98,6.1,10.03,5.67,12.65-.54,3.34-6.57.21-8.73.64-1.39,1.57-3.56,8.6-6.69,5.82-.98-.87-4.55-10.09-5.11-10.18-1.1.92-5.25-.03-5.61.2-.8.5-3.65,7.84-4.74,9.33-3.36,4.59-5.69-4.7-7.24-5.15-1.94-.56-9.49,3.1-8.63-1.72.46-2.54,4.45-7.98,5.48-10.94,2.12-6.11-.85-3.88-4.12-5.8-3.08-1.8-3.37-6.18-1.42-8.91h-45.83c-3.08,0-5.08-3.68-5.28-6.42-1.18-15.83.89-33.14.05-49.13,0-2.11,3.33-5.3,5.23-5.3h12.29c-.77-5.65-6.24-16.44,1.28-19.59.88-.37,2.03-.26,2.74-.67.66-.39.84-1.91,2.5-2.28,2.94-.66,10.2.8,12.36-.82.51-.38-.22-3.37,2.77-3.21,3.35.18,5.09,9.24,5.26,11.94.36,5.78-2.11,9.42-3.5,14.62ZM81.34,33.32v-8c0-.28-.66-2.51-.97-2.53-3.25,2.64-9.44.22-12.83,1.14-.39.11-.35,1.81-1.18,2.4-1.85,1.31-6.88-.78-5.68,5.04,1.23.28.59-1.02,1.32-1.6,1.49-1.17,3.65.46,5.16.77,1.38.29,3.72.79,5.04.83,2.15.06,6.61-1.63,8-.23.71.72.39,1.89,1.15,2.17ZM77.42,35.29c-4.45,1.02-8.46-.13-12.8-.75-1.59,3.7-2.46,5.15-.72,9.01,3.24,7.24,10.96,6.96,13.89-.33,1.33-3.3.74-4.73-.36-7.93ZM47.6,99.25h45.05c-.08-1.05-.96-1.39-1.15-2.56-.36-2.19.25-5.03,2.18-6.36,1.34-.92,4.52-1.02,5.03-2.01.41-.79-.31-2.43-.19-3.66.17-1.72,1.53-3.58,2.97-4.46,3.86-2.37,5.95.9,8.05.26.95-.29,2.06-3.16,3.41-4.02,2.13-1.35,5.02-1.17,6.99.39,1.03.82,1.94,3.4,2.61,3.63,2.03.69,3.72-1.98,7.37-.74,4.26,1.45,3.61,5.4,3.86,9.01,5.66.72,9.44,5.27,5.68,10.51,1.97-.15,4.29.59,5.88-.94l.17-50.15-1.35-.99-63.34-.11c-.7,1.11-3.7,3.82-2.82,5.04,5.83,1.13,14.42,3.05,15.06,10.29.19,2.18.31,19.24-.21,20.11-.39.66-1.62.73-2.33.79-12.79,1.14-27.25-.91-40.22,0-1.45-.02-1.99-1.27-2.13-2.55-.4-3.48-.4-16.42.42-19.49,1.73-6.48,9.52-8.02,15.16-9.22.45-.66-2.52-4.81-2.78-4.96-.15-.09-.31-.13-.49-.11-2.86.53-11.94-.86-13.85.62-.3.24-.6.46-.71.85l-.09,48.7c-.17.85,1.08,1.98,1.77,2.13ZM73.54,52.83c-1.2,1.09-5.29-.22-5.45,0-.08.11-.47,2.6-.39,2.72.09.12,2.59.75,2.95.76,2.64.09,3.27-.95,2.89-3.47ZM68.47,60.24c-1.95.42-5.1-3.42-6.02-3.48-1.02-.06-4.98,1.23-6.04,1.76-.75.37-3.55,2.41-3.55,3.08v17.36h4.68v-12.29c0-1.53,4.29-1.53,4.29,0v12.29h6.63v-18.72ZM88.75,78.96v-16.97c0-2.3-7.61-5.36-9.59-5.23-.83.05-4.31,3.69-6.02,3.48v18.72h6.63v-12.29c0-1.84,4.29-1.53,4.29.39v11.9h4.68ZM119.31,83.51c-1-.93-1.79-3.65-3.05-3.74-1.59-.12-1.64,1.72-2.38,2.69-1.29,1.69-3.54,2.98-5.72,2.68-1.33-.18-4.56-2.76-5.32-.44-.48,1.45,1.11,3.56-.65,6.35s-6.16,1.92-6.44,3.74c-.25,1.66,2.99,3.54,3.11,6.26.15,3.42-3.34,4.49-3.05,7.53,3.38.68,7.21,2.02,7.38,6.11.06,1.42-1.15,3.51.77,4.3,1.33.54,4.24-3.15,8.38-.22,1.43,1.02,2.99,5.37,4.91,3.65,1.58-1.42,1.15-4.04,4.93-4.73,2.35-.43,5.8,2,6.73.9,1-1.18-.73-4.53,1.38-7.22,1.91-2.43,7.63-1.89,5.99-4.83-1.45-2.59-3.82-2.87-2.39-7.18.48-1.45,3.29-3.58,2.65-4.79-.9-1.69-4.99-.5-6.75-4.19-1.28-2.68-.14-3.36-.49-5.35-.53-3-4.12.18-6.04.19-1.1,0-3.15-.96-3.96-1.71ZM110.2,122.27c-3.45-.5-5.68,2.69-9.35,0l-1.96,4.29c1.55.31,3.23-.86,4.67-.19,1.26.58,1.9,3.34,3.12,4.09.09-1.42,4.06-7.42,3.51-8.18ZM133.22,126.55c.21-.19-1.77-4.21-2.14-4.24-.18-.01-2.05,1.12-3.15,1.14-1.78.04-5-2.65-5.84-.81-.17.37,3,7.18,3.33,7.42.89.67,2.2-3.26,3.11-3.71,1.48-.73,3.15.41,4.68.19Z"/>
    <path class="cls-1" d="M98.6,67.95c-.43-.43-.45-1.43-.5-2.04-.22-2.76-.35-9.12,0-11.74.13-1.01.54-1.6,1.47-2.04l38.55-.1c.8-.01,2.17.22,2.45,1.06-.2,2.25.64,13.8-.32,14.77-.19.19-.52.29-.77.4-4.74-.29-39.45,1.14-40.88-.31ZM136.34,56.34h-33.94v7.8h33.94v-7.8Z"/>
  </g>
</svg>