<?xml version="1.0" encoding="UTF-8"?>
<svg id="Capa_1" data-name="Capa 1" xmlns="http://www.w3.org/2000/svg" viewBox="0 0 150 150">
  <defs>
    <style>
      .cls-1 {
        fill: #fff;
        fill-rule: evenodd;
      }
    </style>
  </defs>
  <path class="cls-1" d="M33.73,44.49c.21.03.42.04.63.04.4,0,.79-.05,1.17-.14v18.5c0,1.83,1.49,3.32,3.32,3.32h32.06c1.83,0,3.32-1.49,3.32-3.32v-18.5c.58.14,1.19.18,1.8.11,1.32-.17,2.49-.83,3.31-1.88.81-1.04,1.17-2.35,1-3.67-.17-1.32-.83-2.49-1.88-3.31l-4.24-3.3v-8.93c0-1.67-1.35-3.02-3.02-3.02h-3.9c-1.66,0-3.02,1.35-3.02,3.02v1.2l-6.82-5.31c-1.53-1.19-3.66-1.19-5.19,0l-21,16.33c-1.04.81-1.71,1.99-1.88,3.31-.17,1.32.19,2.62,1,3.67.81,1.05,1.99,1.71,3.3,1.87h0ZM60.21,62.8h-10.63v-15.07h10.63v15.07h0ZM63.62,62.8v-15.29c0-1.76-1.44-3.2-3.2-3.2h-11.05c-1.76,0-3.2,1.44-3.2,3.2v15.29h-7.21v-20.52l15.44-12.01c.31-.24.69-.24.99,0l15.44,12.01v20.52h-7.21ZM32.81,39.37c.05-.42.26-.78.58-1.04l21-16.33c.31-.24.69-.24.99,0l9.58,7.45c.52.4,1.21.47,1.8.19.59-.29.96-.88.96-1.53v-4.3h3.11v9.37c0,.53.25,1.03.66,1.35l4.9,3.81c.68.53.8,1.51.27,2.18-.53.68-1.51.8-2.18.27l-17-13.22c-.76-.59-1.68-.89-2.59-.89s-1.83.3-2.59.89l-16.99,13.22c-.32.25-.73.36-1.15.31-.42-.05-.78-.26-1.04-.58-.25-.32-.36-.73-.31-1.15h0ZM103.99,62.63h0c22.33.9,40.22,19.34,40.21,41.89,0,23.12-18.81,41.92-41.92,41.92-12.5,0-23.73-5.5-31.42-14.2H11.38c-3.08,0-5.58-2.5-5.58-5.58V9.14c0-3.08,2.5-5.58,5.58-5.58h72.21c.45,0,.89.18,1.21.5l18.7,18.7c.32.32.5.75.5,1.21v38.66h0ZM85.29,9.39v10.77c0,1.16.94,2.09,2.09,2.09h10.77l-12.86-12.86h0ZM11.38,128.82c-1.19,0-2.16-.97-2.16-2.16V9.14c0-1.19.97-2.16,2.16-2.16h70.5v13.19c0,3.04,2.47,5.51,5.51,5.51h13.18v36.95c-10.2.41-19.47,4.48-26.53,10.93H25.87c-.94,0-1.71.77-1.71,1.71s.77,1.71,1.71,1.71h44.82c-2.65,3.03-4.87,6.45-6.57,10.16H25.87c-.94,0-1.71.77-1.71,1.71s.77,1.71,1.71,1.71h36.88c-1.14,3.22-1.9,6.63-2.22,10.16H25.87c-.94,0-1.71.77-1.71,1.71s.77,1.71,1.71,1.71h34.48c0,.13,0,.27,0,.4,0,3.36.4,6.62,1.15,9.75H25.87c-.94,0-1.71.77-1.71,1.71s.77,1.71,1.71,1.71h36.6c1.33,4.02,3.25,7.76,5.66,11.14H11.38ZM102.28,143.03c-21.24,0-38.51-17.28-38.51-38.51s17.28-38.51,38.51-38.51,38.51,17.28,38.51,38.51-17.27,38.51-38.51,38.51h0ZM136.8,102.26l-8.6-20.34c-.27-.63-.76-1.12-1.4-1.37-.63-.26-1.33-.25-1.95.01l-4.09,1.73c-1.22.52-1.84,1.88-1.44,3.12-3.16.9-6.16.19-9.06-.5-3.11-.74-6.04-1.43-8.79-.03-.05.03-.11.06-.16.09-1.19.78-2.19,1.55-3.07,2.27-1.18-.47-2.62-.34-4.01-.2-2.04.19-4.31.4-6.54-.82.22-.51.27-1.07.13-1.62-.17-.66-.58-1.22-1.16-1.58l-3.8-2.29c-.58-.35-1.27-.46-1.94-.29-.66.17-1.22.57-1.57,1.16l-11.42,18.91c-.35.58-.46,1.27-.29,1.94.17.66.58,1.22,1.16,1.58l3.8,2.3c.41.25.86.37,1.32.37.86,0,1.71-.44,2.19-1.23l.51-.84c1.48.4,2.58,1.07,3.19,1.59l-1.28,1.46c-1.8,2.05-1.6,5.17.45,6.97.94.82,2.1,1.23,3.26,1.23.03,0,.05,0,.07,0,.18,1.14.74,2.17,1.61,2.94.93.82,2.08,1.22,3.23,1.23.15,1.14.7,2.23,1.63,3.04.94.82,2.1,1.23,3.26,1.23h0c.17,1.17.73,2.23,1.62,3.01.91.8,2.05,1.23,3.25,1.23.11,0,.22,0,.33-.01.85-.05,1.65-.32,2.35-.77.9.63,1.93.95,2.95.95,1.37,0,2.71-.56,3.68-1.66.51-.58.85-1.25,1.04-1.95.34.07.69.11,1.03.11,1.37,0,2.74-.57,3.71-1.68.52-.59.87-1.28,1.06-2,.31.06.62.09.94.09.11,0,.22,0,.33-.01,1.32-.09,2.52-.68,3.39-1.66.56-.64.94-1.4,1.11-2.22.19.02.38.04.57.04.11,0,.22,0,.33-.01,1.32-.09,2.52-.68,3.39-1.67,1.38-1.57,1.58-3.77.67-5.53,1.55-.96,2.26-1.93,2.91-2.97.37-.59.64-1.02,1.36-1.43.28.55.74.99,1.32,1.22.31.12.64.19.96.19s.67-.07.99-.2l4.09-1.73c.63-.26,1.12-.76,1.37-1.39.26-.64.26-1.33-.01-1.96h0ZM84.6,84.76h0s0,0,0,0h0ZM73.63,102.94l10.53-17.44-2.33-1.41-10.53,17.44,2.33,1.41h0ZM81.22,112.05h0c.63.55,1.6.49,2.15-.14l.09-.1h0s1.87-2.13,1.87-2.13l1.47-1.67c.56-.63.49-1.6-.14-2.15-.28-.24-.63-.38-1-.38-.03,0-.07,0-.1,0-.41.03-.78.21-1.05.51l-3.43,3.91c-.55.63-.49,1.6.14,2.15h0ZM86.03,114.07c-.56.63-.49,1.6.14,2.15.63.56,1.6.49,2.15-.14l3.43-3.91c.55-.63.49-1.6-.14-2.15-.29-.25-.65-.38-1-.38-.42,0-.85.18-1.15.52l-1.56,1.77-1.87,2.13h0ZM90.89,118.33h0c-.56.63-.49,1.59.14,2.15.3.27.7.4,1.1.37.41-.03.78-.2,1.05-.51l.3-.35.09-.1,1.98-2.25c.56-.63.49-1.6-.14-2.15-.28-.24-.63-.38-1-.38-.03,0-.07,0-.1,0-.41.03-.78.21-1.05.51l-2.37,2.7h0ZM95.91,124.72h0c.63.55,1.59.49,2.15-.13l.36-.42c.55-.63.49-1.6-.14-2.15-.28-.24-.63-.38-1-.38-.03,0-.07,0-.1,0-.41.03-.78.21-1.04.51l-.37.42c-.56.63-.49,1.59.14,2.15h0ZM103.65,124.76c.27-.3.4-.69.37-1.1-.03-.41-.21-.78-.51-1.05l-1.76-1.55c.59,1.26.62,2.73.07,4.02.64.3,1.38.19,1.83-.32h0ZM120.56,113.81h0c.27-.3.4-.7.37-1.1-.03-.41-.2-.78-.51-1.05l-.44-.38h0s-16.66-14.65-16.66-14.65c-.47-.28-.65-.18-.71-.15-.43.25-.84,1.21-.79,1.86.15,2.29-1.12,4.83-3.25,6.47-1.33,1.02-2.82,1.56-4.27,1.56-.63,0-1.24-.1-1.84-.3-.5-.17-.89-.56-1.06-1.05-.17-.5-.11-1.05.18-1.49.99-1.55.76-3.08.5-4.85-.37-2.45-.82-5.46,2.38-8.23-.76.07-1.63.15-2.58.15-1.8,0-3.87-.29-5.93-1.44l-7.51,12.43c1.43.5,2.7,1.22,3.63,2.04.86-.92,2.02-1.47,3.28-1.55,1.32-.08,2.59.35,3.58,1.22.9.79,1.45,1.84,1.62,2.95,1.23-.02,2.4.4,3.33,1.22,1.29,1.13,1.84,2.79,1.63,4.38.79.18,1.53.55,2.16,1.1,1.62,1.43,2.08,3.69,1.3,5.58.44.16.86.38,1.24.66-.07-.48.06-.99.4-1.39.62-.71,1.7-.78,2.41-.16l2.74,2.41h0l1.53,1.34c.3.27.7.4,1.1.37.41-.03.78-.2,1.05-.51.56-.63.49-1.6-.14-2.15l-6.73-5.91c-.71-.62-.78-1.7-.16-2.41.62-.71,1.7-.78,2.41-.16l8.18,7.18c.3.27.69.4,1.1.37.41-.03.78-.2,1.05-.51.55-.63.49-1.59-.14-2.15l-7.92-6.96c-.71-.62-.78-1.7-.16-2.41.62-.71,1.7-.78,2.41-.16l9.06,7.96c.31.27.7.4,1.1.37.41-.03.78-.21,1.05-.51h0ZM123.81,105.76h0c.66-1.06,1.34-1.98,2.92-2.79l-6.08-14.39c-4.18,1.31-8.02.4-11.18-.34-2.55-.6-4.76-1.13-6.38-.35-1.76,1.16-3.06,2.3-4.22,3.31-.63.56-1.23,1.08-1.82,1.52-2.19,1.66-1.97,3.09-1.62,5.45.2,1.33.43,2.87.11,4.51.41-.18.75-.41.94-.56,1.21-.93,2-2.39,1.93-3.54-.11-1.67.71-4,2.46-5.03.76-.45,2.32-1,4.29.21.01,0,.03.02.04.03.02.01.03.02.05.03.01,0,.02.02.03.02.03.02.05.04.07.05s.05.04.07.06c0,0,.02.01.03.02l15.94,14.01c1.52-.79,1.94-1.46,2.41-2.21h0ZM130.81,103.86l2.51-1.06-7.93-18.76-2.51,1.06,7.93,18.76Z"/>
</svg>