<?xml version="1.0" encoding="UTF-8"?>
<svg id="Capa_1" data-name="Capa 1" xmlns="http://www.w3.org/2000/svg" viewBox="0 0 210.86 150">
  <defs>
    <style>
      .cls-1 {
        fill: #fff;
        fill-rule: evenodd;
      }
    </style>
  </defs>
  <path class="cls-1" d="M182.42,55.48h-31.21c-1.39,0-2.52-1.13-2.52-2.53v-21.35c0-1.4,1.13-2.53,2.52-2.53s2.52,1.13,2.52,2.53v18.83h26.16v-18.83c0-1.4,1.13-2.53,2.52-2.53s2.53,1.13,2.53,2.53v21.35c0,1.4-1.13,2.53-2.53,2.53Z"/>
  <path class="cls-1" d="M147.04,37c-.77,0-1.54-.35-2.04-1.03-.83-1.13-.59-2.7.54-3.53l19.78-14.58c.89-.66,2.1-.66,3,0l19.78,14.58c1.13.83,1.37,2.4.53,3.53-.83,1.13-2.4,1.36-3.53.53l-18.28-13.48-18.29,13.48c-.45.33-.97.49-1.49.49Z"/>
  <path class="cls-1" d="M155.6,30.44c-1.4,0-2.53-1.13-2.53-2.53v-6.14c0-1.39,1.13-2.52,2.53-2.52s2.52,1.13,2.52,2.52v6.14c0,1.4-1.13,2.53-2.52,2.53Z"/>
  <path class="cls-1" d="M166.82,55.48c-1.4,0-2.52-1.13-2.52-2.53v-8.23c0-1.4,1.13-2.52,2.52-2.52s2.52,1.12,2.52,2.52v8.23c0,1.4-1.13,2.53-2.52,2.53Z"/>
  <path class="cls-1" d="M134.06,9.07c-3.44,0-6.24,2.8-6.24,6.25v42.11c0,3.44,2.8,6.25,6.24,6.25h3.69c1.39,0,2.52,1.13,2.52,2.52v10.44c0,.23.1.39.31.49.21.09.4.07.57-.07l15.5-12.81c.45-.37,1.02-.57,1.61-.57h41.31c3.44,0,6.25-2.8,6.25-6.25V15.32c0-3.44-2.8-6.25-6.25-6.25h-65.51ZM140.82,82.23c-.81,0-1.62-.18-2.39-.54-1.98-.93-3.21-2.87-3.21-5.05v-7.92h-1.16c-6.23,0-11.29-5.07-11.29-11.29V15.32c0-6.23,5.06-11.29,11.29-11.29h65.51c6.23,0,11.29,5.07,11.29,11.29v42.11c0,6.23-5.07,11.29-11.29,11.29h-40.4l-14.8,12.23c-1.03.85-2.28,1.29-3.55,1.29Z"/>
  <path class="cls-1" d="M56.12,128.58c-.07,0-.14,0-.21,0l-26.75-2.22c-1.39-.11-2.41-1.32-2.31-2.7l1.05-14.08c.11-1.38,1.32-2.43,2.71-2.32,1.38.1,2.43,1.31,2.32,2.7l-.87,11.58,24.26,2.02c1.39.12,2.42,1.34,2.31,2.73-.11,1.32-1.22,2.31-2.52,2.31Z"/>
  <path class="cls-1" d="M51.64,145.98H18.62c-9.88,0-17.99-7.72-18.47-17.58-.62-12.55.73-25.07,4.02-37.2l.13-.51c1.89-6.99,7.73-12.26,14.87-13.43l25.91-4.24c.57-.09,1.15,0,1.64.29l13.81,7.7,13.82-7.7c.49-.28,1.07-.37,1.63-.29l25.65,4.19c1.37.23,2.3,1.52,2.08,2.9-.23,1.37-1.52,2.3-2.9,2.08l-24.78-4.06-14.27,7.96c-.77.43-1.7.43-2.46,0l-14.28-7.96-25.04,4.09c-5.19.85-9.44,4.68-10.81,9.76l-.14.51c-3.14,11.62-4.44,23.61-3.84,35.63.35,7.17,6.25,12.78,13.43,12.78h33.02c1.39,0,2.52,1.13,2.52,2.52s-1.13,2.52-2.52,2.52Z"/>
  <path class="cls-1" d="M45.48,78.05c-.33,0-.67-.07-.99-.2-1.28-.55-1.88-2.04-1.33-3.32l2.16-5.05c.55-1.28,2.03-1.87,3.32-1.33,1.28.55,1.87,2.03,1.33,3.32l-2.16,5.05c-.41.96-1.34,1.53-2.32,1.53Z"/>
  <path class="cls-1" d="M75.57,78.05c-.99,0-1.91-.57-2.32-1.53l-2.16-5.05c-.55-1.28.05-2.77,1.32-3.32,1.28-.55,2.77.05,3.32,1.33l2.16,5.05c.55,1.28-.05,2.76-1.32,3.31-.33.14-.67.21-.99.21Z"/>
  <path class="cls-1" d="M57.05,9.07c-1.19,0-2.35.06-3.48.19-4.03.47-4.33,1.1-4.49,1.44-.33.69-.87,1.83-2.48,2.61-4.2,2.04-4.9,13.25-4.58,18.35.07,1.09-.57,2.1-1.58,2.5-.63.25-1.41.57-1.24,3.18l.21,3.42c.15,2.34.71,2.7,1.55,2.98.81.27,1.42.93,1.64,1.76,2.21,8.42,8.23,18.27,17.93,18.27,12.75,0,17.05-13.98,18.07-18.26.2-.83.81-1.51,1.61-1.8.78-.28,1.3-.63,1.45-2.94l.22-3.42c.17-2.62-.61-2.93-1.24-3.18-.99-.39-1.62-1.37-1.58-2.44.47-12.71-3.88-16.25-6.74-18.59l-.2-.17c-2.87-2.35-9.13-3.9-15.06-3.9h0ZM60.53,68.83c-12.09,0-19.57-10.97-22.49-20.86-3.36-1.86-3.6-5.57-3.68-6.88l-.21-3.42c-.21-3.36.71-5.81,2.76-7.29-.12-4.84.25-18.09,7.48-21.61.05-.05.09-.15.13-.25,1.09-2.27,2.76-3.62,8.48-4.28,7.17-.82,17.13.57,22.32,4.82l.19.15c3.3,2.7,8.76,7.15,8.63,21.14,2.06,1.48,2.99,3.94,2.78,7.31l-.22,3.42c-.09,1.42-.31,4.92-3.48,6.78-2.79,10.35-10.1,20.96-22.68,20.96Z"/>
  <path class="cls-1" d="M44.56,14.71h.01-.01ZM80.8,24.52c-1.15,0-2.18-.78-2.46-1.94-.23-.95-.72-1.61-1.59-2.1-2.92-1.66-9.37-1.18-17.25,1.27-7.41,2.31-12.96,2.17-16.48-.42-3.4-2.51-3.5-6.2-3.5-6.61,0-1.4,1.13-2.52,2.52-2.52h0c1.39,0,2.5,1.11,2.52,2.48,0,.13.11,1.64,1.51,2.62,1.23.87,4.4,1.98,11.92-.37,6.7-2.09,15.84-3.94,21.26-.84,2.07,1.18,3.46,3.02,4,5.32.32,1.36-.52,2.72-1.88,3.04-.19.05-.39.07-.58.07Z"/>
  <path class="cls-1" d="M55.17,140.93h77.24l16.15-47.59h-77.24l-16.14,47.59h0ZM134.21,145.98H51.64c-.82,0-1.58-.39-2.06-1.05-.47-.66-.6-1.51-.34-2.28l17.86-52.64c.35-1.03,1.31-1.71,2.39-1.71h82.58c.81,0,1.58.39,2.05,1.05.47.67.6,1.51.34,2.28l-17.86,52.64c-.35,1.02-1.31,1.71-2.39,1.71Z"/>
</svg>