<?xml version="1.0" encoding="UTF-8"?>
<svg id="Capa_1" data-name="Capa 1" xmlns="http://www.w3.org/2000/svg" viewBox="0 0 150 150">
  <defs>
    <style>
      .cls-1 {
        fill: #fff;
        fill-rule: evenodd;
      }
    </style>
  </defs>
  <path class="cls-1" d="M8.69,66.94l10.17,9.7h0s.07.06.1.09l.07.07h0s0,0,0,0h0c.17.14.42.33.62.42h0s.02,0,.02,0h0c.09.04.17.08.27.12h0s.02.01.02.01h0c.13.06.31.1.44.13h1.21c.22-.05.46-.12.66-.22l.02-.02.17-.08h0s.14-.08.14-.08c3.87-2.81,7.43-6.34,11.26-9.2.64-.53,1.01-1.27,1.09-2.04.08-.76-.14-1.55-.65-2.19l-.02-.02c-.53-.65-1.27-1.02-2.04-1.09-.77-.08-1.57.14-2.21.67h0s-6.55,5.36-6.55,5.36l.04-3.07c.17-12.38,4.18-24.12,11.07-33.82,6.87-9.69,16.61-17.35,28.24-21.59.78-.28,1.37-.86,1.7-1.56.33-.7.39-1.53.1-2.31-.28-.78-.86-1.37-1.56-1.7-.7-.33-1.53-.39-2.31-.1-6.28,2.29-12.11,5.48-17.34,9.48-5.23,3.99-9.87,8.78-13.77,14.25-3.73,5.24-6.63,10.92-8.67,16.9-2.04,5.99-3.21,12.27-3.45,18.69l-.12,3.17-4.55-4.34c-.61-.58-1.39-.86-2.16-.84-.77.02-1.53.33-2.11.93-.58.61-.86,1.39-.84,2.16.02.77.33,1.53.93,2.11h0ZM104.04,7.49c0,1.19.45,3.43.83,5.3.18.88.34,1.68.43,2.24.36,1.94.76,3.89,1.07,5.83.14.87.28,1.81.65,2.38.2.32.43.58.7.8.26.21.56.38.91.5.73.26,1.51.21,2.19-.07.68-.29,1.26-.81,1.58-1.51.43-.92.21-2.02-.01-3.13-.05-.25-.1-.51-.16-.87-.04-.25-.11-.58-.19-.92-.18-.81-.37-1.69-.37-2.43v-2.38l2.1,1.11c.38.2.78.44,1.16.67l.09.05c1.16.69,2.31,1.44,3.44,2.23,1.19.83,2.32,1.68,3.4,2.54l.29.23c.62.49,1.26,1,1.86,1.59l1.45,1.36c.5.43,1.01.92,1.52,1.43.52.52,1,1.03,1.44,1.53.98,1.12,1.94,2.26,2.87,3.44.94,1.19,1.83,2.41,2.66,3.65h0c1.65,2.48,3.15,5.11,4.43,7.85,1.24,2.63,2.27,5.34,3.06,8.09.44,1.53.85,3.11,1.2,4.71.35,1.61.64,3.24.82,4.89l.05.45c.05.41.1.8.13,1.3.03.48.07.84.1,1.19.08.81.15,1.61.15,2.46,0,.32,0,.62.02.92,0,.2.03.48.06.83v.17l-.14,3.66v.14c-.02.09-.02.21-.02.33,0,.15,0,.31,0,.45l-.27,2.69v.02c-.06.53-.13,1.11-.22,1.73-.09.61-.18,1.2-.28,1.71l-.18.92c-.34,1.8-.69,3.57-1.27,5.37-.15.45-.25.82-.38,1.27l-.03.11c-.1.34-.22.7-.35,1.06,0,.02.03-.08-.15.46-.29.88-.67,1.84-1.06,2.81v.03c-.57,1.4-1.17,2.72-1.81,4.01-.66,1.32-1.34,2.59-2.06,3.83-.22.38-.45.79-.6,1.18-.14.35-.23.73-.23,1.15,0,.77.34,1.51.86,2.07.5.54,1.15.9,1.77.9.51,0,.91-.03,1.25-.11.3-.07.58-.2.9-.42.67-.45,1.68-2.12,2.71-4.14,1.77-3.44,3.46-7.68,3.96-9.18l1.44-4.66c.65-2.23,1.19-4.93,1.58-7.67.39-2.78.61-5.6.61-8.02,0-2.26-.04-4.41-.17-6.5-.14-2.1-.38-4.19-.78-6.31-.61-3.22-1.4-6.32-2.39-9.35-1-3.03-2.2-5.96-3.63-8.83h0s-.12-.24-.12-.24h0c-.09-.19-.17-.35-.29-.54-.15-.24-.24-.44-.34-.64-.06-.12-.12-.25-.18-.35h0c-.39-.7-.78-1.39-1.11-1.95-.38-.64-.77-1.25-1.17-1.83l-.06-.08-.74-1.24c-.74-1.1-1.51-2.21-2.34-3.31-.81-1.08-1.66-2.13-2.56-3.14h0s-.63-.73-.63-.73l-.02-.02c-1.09-1.3-2.37-2.56-3.64-3.81l-.66-.65-1.48-1.31c-1.4-1.18-2.74-2.28-4.14-3.33-1.4-1.05-2.82-2.04-4.35-3.01-.15-.09-.19-.12-.24-.16-.14-.09-.27-.19-.28-.19l-2.02-.54,1.24-1.69c.43-.59.97-.72,1.48-.85l.18-.05c.47-.16.6-.2.73-.24,1.24-.39,2.26-.72,2.91-1.77.3-.49.43-.99.43-1.48,0-.52-.15-1.02-.4-1.45-.27-.45-.65-.85-1.12-1.13-.49-.3-1.07-.48-1.71-.48s-3.32.91-4.42,1.28l-.21.07c-.93.31-2.38.76-3.92,1.23-2.38.73-4.98,1.53-5.95,1.92-.54.22-1.02.59-1.36,1.06-.3.42-.48.92-.48,1.47h0ZM3.02,139.22c-.84,0-1.59-.34-2.13-.88-.55-.55-.88-1.3-.88-2.14v-44c0-.84.34-1.59.88-2.14.54-.54,1.3-.88,2.13-.88h17.78c.83,0,1.59.34,2.13.88.55.55.88,1.3.88,2.13v2.71h9.05l5.32-1.56c1.23-.36,2.49-.67,3.78-.92,1.29-.25,2.57-.44,3.85-.57l1-.1.24-.97c1.55-6.22,3.66-11.64,5.96-16.29,2.95-5.96,6.23-10.66,9.11-14.15l1.56-1.89-2.41-.43c-.71-.13-1.34-.5-1.79-1.03-.44-.52-.7-1.2-.7-1.94,0-.84.34-1.59.88-2.14.54-.54,1.3-.88,2.13-.88h5.24l-5.81-13.78c-.2-.47-.27-.97-.22-1.46.05-.48.21-.96.49-1.39.28-.42.66-.76,1.08-.99.43-.23.92-.36,1.43-.36h38.92c.51,0,1,.13,1.43.36.43.23.8.57,1.08.99.28.43.45.9.49,1.39.05.49-.03,1-.22,1.46l-5.81,13.78h5.24c.83,0,1.59.34,2.13.88.55.55.88,1.3.88,2.13,0,.77-.29,1.48-.76,2.01-.48.54-1.15.91-1.91.99l-2.58.29,1.62,2.02c3.19,3.97,6.93,9.48,10.2,16.57,3.28,7.1,6.09,15.76,7.4,26.02.09.73.15,1.46.18,2.2.02.73.01,1.47-.04,2.23l-.08,1.33,1.33.17c.89.11,1.76.35,2.6.69.83.34,1.62.79,2.34,1.34l.02.02c.7.52,1.34,1.13,1.88,1.83.55.7,1.01,1.48,1.37,2.31,1.13,2.64,1.08,5.5.09,7.98-.98,2.46-2.89,4.54-5.5,5.68-.06.02-.12.05-.19.09l-42.36,18.07h0c-2.05.88-4.15,1.54-6.28,1.98-2.13.44-4.32.66-6.55.66-2.51,0-5.02-.3-7.46-.88-2.46-.58-4.85-1.44-7.09-2.56l-23.81-11.92h-8.78v2.02c0,.84-.34,1.6-.88,2.14-.54.54-1.3.88-2.13.88H3.02ZM70.74,40.11h-2.15l5.03,11.93h19.75l5.03-11.93h-27.66ZM49.34,97.71h.09s.07,0,.07,0c3.1-.04,6.17.32,9.14,1.07,2.98.74,5.85,1.87,8.56,3.36,5.18,2.85,10.39,5.67,15.55,8.56h0c1.38.78,2.84,1.62,4.24,2.33h0c.52.26.98.62,1.34,1.04.38.43.66.93.84,1.48h0c.18.56.26,1.13.22,1.69-.04.57-.19,1.13-.45,1.65-.26.53-.59.94-.95,1.26-.46.43-.95.69-1.34.84h0s-.06.02-.09.03c-.23.09-.48.15-.75.2-.28.05-.54.08-.78.08-.33,0-.67-.04-.99-.12-.33-.08-.64-.19-.95-.35h0s-18.27-9.14-18.27-9.14c0,0-.03-.01-.03-.02-.74-.36-1.55-.39-2.28-.15-.73.24-1.37.77-1.74,1.51,0,0-.01.03-.02.03-.36.74-.39,1.56-.15,2.28.24.73.77,1.37,1.51,1.75l18.26,9.14h0c.71.36,1.47.63,2.26.82.78.18,1.59.28,2.4.28.66,0,1.29-.06,1.9-.17.61-.11,1.23-.29,1.84-.52,9.41-2.69,20.89-7.54,30.35-10.95h0s1.77-.64,1.77-.64c.68-.22,1.39-.27,2.07-.15.68.12,1.34.4,1.9.83l.04.04h0s.01,0,.01,0h0c.29.22.55.47.77.75.21.28.4.59.54.93.47,1.1.45,2.3.04,3.34-.42,1.04-1.22,1.93-2.33,2.4h0l-42.5,18.13h0c-1.65.71-3.37,1.25-5.13,1.61-1.76.36-3.54.55-5.33.55-2.04,0-4.08-.24-6.08-.72-1.98-.47-3.92-1.17-5.77-2.1l-24.44-12.23c-.2-.1-.42-.18-.65-.23-.22-.05-.46-.08-.7-.08h-9.51v-27.2h9.51c.16,0,.3,0,.43-.03.14-.02.27-.05.41-.09h.01l5.73-1.68c1.49-.44,3.02-.78,4.56-1.02,1.54-.24,3.09-.38,4.65-.41h.03s.06,0,.06,0h.02s.12,0,.12,0h0ZM16.35,133.18h1.43v-37.97H6.03v37.97h10.31ZM116.29,106.76c-.05,1.01-.18,2-.4,2.98l-.17.76-20.15,7.27-.18-1.83c-.04-.37-.1-.75-.18-1.15-.09-.41-.19-.79-.31-1.15-.27-.81-.64-1.58-1.09-2.3-.46-.72-1-1.38-1.61-1.95l-1.04-.99,1-1.04c.91-.95,1.68-2.05,2.25-3.27.56-1.18.94-2.48,1.11-3.86.33-2.7-.24-5.21-1.54-7.26-1.31-2.06-3.36-3.7-6-4.63-.69-.24-1.33-.48-1.95-.71-.56-.21-1.09-.42-1.61-.63h0c-1.14-.46-2.12-.91-2.96-1.35-.87-.46-1.58-.91-2.15-1.35h0c-.41-.33-.73-.91-.85-1.6-.08-.45-.08-1,.03-1.57.07-.39.31-1.33.98-2.15.44-.54,1.06-1.03,1.92-1.29.34-.1.67-.18,1.01-.24.32-.06.65-.09.99-.11h.06c.95-.05,1.78.09,2.46.29.37.11.69.24.98.38l4.2-4.55c-.3-.2-.66-.41-1.07-.63-.74-.39-1.63-.78-2.67-1.06l-1.05-.29v-1.72c0-.83-.34-1.59-.88-2.13-.55-.55-1.3-.88-2.13-.88s-1.59.34-2.13.88c-.55.55-.88,1.3-.88,2.14v1.93l-.97.33c-1.73.59-3.23,1.64-4.39,3.01-1.17,1.38-1.99,3.08-2.34,4.98-.34,1.81-.21,3.58.32,5.16.52,1.54,1.44,2.89,2.7,3.88.79.62,1.69,1.21,2.75,1.78,1.07.58,2.33,1.16,3.8,1.76h0c.46.19,1.03.42,1.74.68.6.23,1.29.48,2.1.76,1.39.49,2.28,1.23,2.84,2.07.75,1.13.85,2.37.73,3.39-.14,1.09-.59,2.25-1.35,3.22-.68.86-1.61,1.58-2.79,2l-.6.21-14.67-8.08c-2.39-1.32-4.89-2.39-7.45-3.2-2.57-.82-5.24-1.39-7.95-1.7l-1.67-.19.45-1.62c1.96-6.97,4.67-12.8,7.45-17.5,4.51-7.62,9.25-12.32,11.33-14.18l.41-.37h21.55l.42.4c1.02.97,2.63,2.6,4.52,4.88,1.3,1.57,2.75,3.47,4.24,5.71,2.35,3.51,5.03,8.19,7.37,13.98,2.34,5.78,4.35,12.7,5.38,20.69.13,1.02.17,2.02.13,3.02Z"/>
</svg>