<?xml version="1.0" encoding="UTF-8"?>
<svg id="Capa_1" data-name="Capa 1" xmlns="http://www.w3.org/2000/svg" viewBox="0 0 150 150">
  <defs>
    <style>
      .cls-1 {
        fill: #fff;
        fill-rule: evenodd;
      }
    </style>
  </defs>
  <path class="cls-1" d="M91.81,150H11.31c-1.23,0-2.22-.99-2.22-2.22V36.1c0-1.23.99-2.22,2.22-2.22h80.5c1.23,0,2.22.99,2.22,2.22v111.68c0,1.23-.99,2.22-2.22,2.22h0ZM13.53,145.57h76.06V38.32H13.53v107.24Z"/>
  <path class="cls-1" d="M138.69,150h-48.21c-1.23,0-2.22-.99-2.22-2.22s.99-2.22,2.22-2.22h45.99V4.43H53.39v31.66c0,1.23-.99,2.23-2.22,2.23s-2.22-1-2.22-2.23V2.22c0-1.23.99-2.22,2.22-2.22h87.52c1.23,0,2.22.99,2.22,2.22v145.57c0,1.23-.99,2.22-2.22,2.22Z"/>
  <path class="cls-1" d="M34.1,60.94h-10.22c-1.23,0-2.22-.99-2.22-2.22v-10.22c0-1.23.99-2.22,2.22-2.22h10.22c1.23,0,2.22.99,2.22,2.22v10.22c0,1.23-1,2.22-2.22,2.22h0ZM26.1,56.51h5.78v-5.79h-5.78v5.79Z"/>
  <path class="cls-1" d="M56.67,60.94h-10.22c-1.23,0-2.22-.99-2.22-2.22v-10.22c0-1.23.99-2.22,2.22-2.22h10.22c1.23,0,2.22.99,2.22,2.22v10.22c0,1.23-.99,2.22-2.22,2.22h0ZM48.67,56.51h5.78v-5.79h-5.78v5.79Z"/>
  <path class="cls-1" d="M79.24,60.94h-10.22c-1.23,0-2.22-.99-2.22-2.22v-10.22c0-1.23.99-2.22,2.22-2.22h10.22c1.23,0,2.22.99,2.22,2.22v10.22c0,1.23-.99,2.22-2.22,2.22h0ZM71.23,56.51h5.78v-5.79h-5.78v5.79Z"/>
  <path class="cls-1" d="M74.72,25.21h-11.84c-1.23,0-2.22-.99-2.22-2.22v-9.02c0-1.23.99-2.22,2.22-2.22h11.84c1.23,0,2.22,1,2.22,2.22v9.02c0,1.23-.99,2.22-2.22,2.22h0ZM65.1,20.77h7.4v-4.58h-7.4v4.58Z"/>
  <path class="cls-1" d="M100.85,25.21h-11.83c-1.23,0-2.22-.99-2.22-2.22v-9.02c0-1.23.99-2.22,2.22-2.22h11.83c1.23,0,2.22,1,2.22,2.22v9.02c0,1.23-.99,2.22-2.22,2.22h0ZM91.23,20.77h7.4v-4.58h-7.4v4.58Z"/>
  <path class="cls-1" d="M126.98,25.21h-11.84c-1.23,0-2.22-.99-2.22-2.22v-9.02c0-1.23.99-2.22,2.22-2.22h11.84c1.23,0,2.22,1,2.22,2.22v9.02c0,1.23-.99,2.22-2.22,2.22h0ZM117.36,20.77h7.4v-4.58h-7.4v4.58Z"/>
  <path class="cls-1" d="M100.85,51.74h-9.02c-1.23,0-2.22-1-2.22-2.23v-9.02c0-1.23.99-2.22,2.22-2.22h9.02c1.23,0,2.22.99,2.22,2.22v9.02c0,1.23-.99,2.23-2.22,2.23h0ZM94.05,47.29h4.58v-4.58h-4.58v4.58Z"/>
  <path class="cls-1" d="M126.98,51.74h-11.84c-1.23,0-2.22-1-2.22-2.23v-9.02c0-1.23.99-2.22,2.22-2.22h11.84c1.23,0,2.22.99,2.22,2.22v9.02c0,1.23-.99,2.23-2.22,2.23h0ZM117.36,47.29h7.4v-4.58h-7.4v4.58Z"/>
  <path class="cls-1" d="M100.85,78.25h-9.02c-1.23,0-2.22-.99-2.22-2.22v-9.02c0-1.23.99-2.22,2.22-2.22h9.02c1.23,0,2.22.99,2.22,2.22v9.02c0,1.23-.99,2.22-2.22,2.22h0ZM94.05,73.81h4.58v-4.58h-4.58v4.58Z"/>
  <path class="cls-1" d="M126.98,78.25h-11.84c-1.23,0-2.22-.99-2.22-2.22v-9.02c0-1.23.99-2.22,2.22-2.22h11.84c1.23,0,2.22.99,2.22,2.22v9.02c0,1.23-.99,2.22-2.22,2.22h0ZM117.36,73.81h7.4v-4.58h-7.4v4.58Z"/>
  <path class="cls-1" d="M100.85,104.77h-9.02c-1.23,0-2.22-1-2.22-2.22v-9.02c0-1.23.99-2.22,2.22-2.22h9.02c1.23,0,2.22,1,2.22,2.22v9.02c0,1.22-.99,2.22-2.22,2.22h0ZM94.05,100.33h4.58v-4.58h-4.58v4.58Z"/>
  <path class="cls-1" d="M126.98,104.77h-11.84c-1.23,0-2.22-1-2.22-2.22v-9.02c0-1.23.99-2.22,2.22-2.22h11.84c1.23,0,2.22,1,2.22,2.22v9.02c0,1.22-.99,2.22-2.22,2.22h0ZM117.36,100.33h7.4v-4.58h-7.4v4.58Z"/>
  <path class="cls-1" d="M100.85,131.29h-9.02c-1.23,0-2.22-.99-2.22-2.22v-9.02c0-1.23.99-2.22,2.22-2.22h9.02c1.23,0,2.22.99,2.22,2.22v9.02c0,1.23-.99,2.22-2.22,2.22h0ZM94.05,126.86h4.58v-4.58h-4.58v4.58Z"/>
  <path class="cls-1" d="M126.98,131.29h-11.84c-1.23,0-2.22-.99-2.22-2.22v-9.02c0-1.23.99-2.22,2.22-2.22h11.84c1.23,0,2.22.99,2.22,2.22v9.02c0,1.23-.99,2.22-2.22,2.22h0ZM117.36,126.86h7.4v-4.58h-7.4v4.58Z"/>
  <path class="cls-1" d="M34.1,85.25h-10.22c-1.23,0-2.22-.99-2.22-2.22v-10.22c0-1.23.99-2.22,2.22-2.22h10.22c1.23,0,2.22,1,2.22,2.22v10.22c0,1.23-1,2.22-2.22,2.22h0ZM26.1,80.81h5.78v-5.78h-5.78v5.78Z"/>
  <path class="cls-1" d="M56.67,85.25h-10.22c-1.23,0-2.22-.99-2.22-2.22v-10.22c0-1.23.99-2.22,2.22-2.22h10.22c1.23,0,2.22,1,2.22,2.22v10.22c0,1.23-.99,2.22-2.22,2.22h0ZM48.67,80.81h5.78v-5.78h-5.78v5.78Z"/>
  <path class="cls-1" d="M79.24,85.25h-10.22c-1.23,0-2.22-.99-2.22-2.22v-10.22c0-1.23.99-2.22,2.22-2.22h10.22c1.23,0,2.22,1,2.22,2.22v10.22c0,1.23-.99,2.22-2.22,2.22h0ZM71.23,80.81h5.78v-5.78h-5.78v5.78Z"/>
  <path class="cls-1" d="M34.1,109.57h-10.22c-1.23,0-2.22-1-2.22-2.22v-10.22c0-1.23.99-2.22,2.22-2.22h10.22c1.23,0,2.22.99,2.22,2.22v10.22c0,1.23-1,2.22-2.22,2.22h0ZM26.1,105.12h5.78v-5.78h-5.78v5.78Z"/>
  <path class="cls-1" d="M56.67,109.57h-10.22c-1.23,0-2.22-1-2.22-2.22v-10.22c0-1.23.99-2.22,2.22-2.22h10.22c1.23,0,2.22.99,2.22,2.22v10.22c0,1.23-.99,2.22-2.22,2.22h0ZM48.67,105.12h5.78v-5.78h-5.78v5.78Z"/>
  <path class="cls-1" d="M79.24,109.57h-10.22c-1.23,0-2.22-1-2.22-2.22v-10.22c0-1.23.99-2.22,2.22-2.22h10.22c1.23,0,2.22.99,2.22,2.22v10.22c0,1.23-.99,2.22-2.22,2.22h0ZM71.23,105.12h5.78v-5.78h-5.78v5.78Z"/>
  <path class="cls-1" d="M34.1,133.87h-10.22c-1.23,0-2.22-.99-2.22-2.22v-10.22c0-1.23.99-2.22,2.22-2.22h10.22c1.23,0,2.22.99,2.22,2.22v10.22c0,1.23-1,2.22-2.22,2.22h0ZM26.1,129.44h5.78v-5.79h-5.78v5.79Z"/>
  <path class="cls-1" d="M56.67,150h-10.22c-1.23,0-2.22-.99-2.22-2.22v-26.35c0-1.23.99-2.22,2.22-2.22h10.22c1.23,0,2.22.99,2.22,2.22v26.35c0,1.23-.99,2.22-2.22,2.22h0ZM48.67,145.57h5.78v-21.92h-5.78v21.92Z"/>
  <path class="cls-1" d="M79.24,133.87h-10.22c-1.23,0-2.22-.99-2.22-2.22v-10.22c0-1.23.99-2.22,2.22-2.22h10.22c1.23,0,2.22.99,2.22,2.22v10.22c0,1.23-.99,2.22-2.22,2.22h0ZM71.23,129.44h5.78v-5.79h-5.78v5.79Z"/>
  <path class="cls-1" d="M144.84,150H5.16c-1.23,0-2.22-.99-2.22-2.22s.99-2.22,2.22-2.22h139.68c1.23,0,2.22.99,2.22,2.22s-.99,2.22-2.22,2.22Z"/>
</svg>