<?xml version="1.0" encoding="UTF-8"?>
<svg id="Capa_1" data-name="Capa 1" xmlns="http://www.w3.org/2000/svg" viewBox="0 0 150 150">
  <defs>
    <style>
      .cls-1 {
        opacity: .8;
      }

      .cls-2 {
        fill: #161e68;
      }

      .cls-3 {
        fill: #39b5e3;
        fill-rule: evenodd;
      }
    </style>
  </defs>
  <g class="cls-1">
    <path class="cls-3" d="M62.83,64.47l-9.96,17.24c-.07.14-.21.21-.36.21H.43c-.15.01-.29-.07-.37-.21-.07-.13-.07-.3,0-.42l9.96-17.24,13.75-23.81c.07-.14.21-.21.37-.21h19.71c.15,0,.29.07.36.21.08.13.08.3,0,.42l-13.37,23.17h31.62c.15-.01.3.07.37.2.07.14.07.3,0,.43Z"/>
    <path class="cls-3" d="M63.92,85.18l-9.95,17.24-9.95,17.24c-.08.13-.22.21-.37.21h-19.71c-.16,0-.3-.08-.37-.21s-.07-.3,0-.42l9.58-16.6H.64c-.16,0-.3-.07-.37-.21-.07-.13-.07-.3,0-.42l9.95-17.25c.08-.13.22-.21.37-.21h52.96c.16,0,.3.08.37.21.08.14.08.3,0,.43Z"/>
  </g>
  <g>
    <path class="cls-2" d="M135.13,41.22c-9.59-9.59-22.34-14.87-35.9-14.87-1.23,0-2.23,1-2.23,2.22v47.63l-33.67,33.67c-.42.42-.65.98-.65,1.57s.23,1.15.65,1.58c9.59,9.59,22.34,14.87,35.9,14.87s26.31-5.28,35.9-14.87c9.59-9.59,14.87-22.34,14.87-35.9s-5.28-26.31-14.87-35.9ZM130.36,42.85l-28.9,28.9V30.85c10.72.51,20.93,4.75,28.9,11.99ZM102.38,77.12l31.13-31.13c7.77,8.55,12.05,19.57,12.05,31.13s-4.27,22.57-12.05,31.13l-31.12-31.13ZM130.35,111.39c-8.55,7.78-19.57,12.05-31.13,12.05s-22.61-4.27-31.14-12.03l31.14-31.14,31.13,31.13Z"/>
    <path class="cls-2" d="M92.11,72.88V24.33c0-1.23-1-2.23-2.22-2.23-13.56,0-26.31,5.28-35.9,14.87-9.59,9.59-14.87,22.34-14.87,35.9s5.28,26.31,14.87,35.9c.42.42.98.65,1.57.65s1.15-.23,1.57-.65l34.33-34.33c.41-.42.65-.99.65-1.57ZM87.66,26.61v45.35l-32.07,32.07c-7.76-8.53-12.03-19.56-12.03-31.14,0-24.92,19.31-45.1,44.1-46.27Z"/>
    <path class="cls-2" d="M55.59,53.33c-.06.38.04.75.26,1.06.23.31.56.51.94.57.07.01.14.02.22.02.3,0,.6-.1.85-.28l.27-.2v10.33c0,.38.15.75.42,1.02.27.27.63.42,1.02.42l7.39-.07c.78,0,1.42-.65,1.42-1.43v-5.7h1.42v5.7c0,.78.64,1.42,1.42,1.43l7.4.07c.38,0,.75-.15,1.01-.41.27-.27.42-.64.42-1.02v-10.32l.27.2c.62.46,1.55.32,2-.3.23-.31.32-.69.26-1.07-.06-.38-.26-.71-.57-.93l-12.07-8.9c-.51-.38-1.19-.38-1.7,0l-3,2.21c-.03-.66-.56-1.18-1.22-1.18h-3.14c-.68,0-1.23.56-1.23,1.24v4.08l-3.47,2.56c-.31.23-.51.56-.57.94ZM62.77,47.52l-.67.5v-1.02h.67v.52ZM69.08,46.42l8.1,5.97v10.99l-4.52-.04v-5.71c0-.79-.64-1.43-1.43-1.43h-4.28c-.79,0-1.43.64-1.43,1.43v5.71l-4.52.04v-10.99l8.09-5.97Z"/>
  </g>
</svg>