<?xml version="1.0" encoding="UTF-8"?>
<svg id="Capa_1" data-name="Capa 1" xmlns="http://www.w3.org/2000/svg" viewBox="0 0 150 150">
  <defs>
    <style>
      .cls-1 {
        fill: #161e68;
      }

      .cls-2 {
        fill: #39b5e3;
        fill-rule: evenodd;
        opacity: .8;
      }
    </style>
  </defs>
  <path class="cls-2" d="M56.52,62.63l-8.94,15.48c-.07.12-.19.19-.32.19H.49c-.13,0-.26-.07-.33-.19-.07-.11-.07-.27,0-.38l8.94-15.48,12.35-21.38c.07-.12.19-.19.33-.19h17.7c.13,0,.26.07.32.19.08.11.08.27,0,.38l-12.01,20.81h28.39c.13,0,.27.07.33.18.07.12.07.27,0,.39Z"/>
  <path class="cls-2" d="M57.49,81.22l-8.93,15.48-8.93,15.48c-.08.11-.2.19-.33.19h-17.7c-.14,0-.27-.08-.33-.19s-.07-.27,0-.38l8.6-14.91H.68c-.14,0-.27-.07-.33-.19-.07-.11-.07-.27,0-.38l8.93-15.49c.08-.11.2-.19.33-.19h47.55c.14,0,.27.08.33.19.08.12.08.27,0,.39Z"/>
  <path class="cls-1" d="M115.37,74.18v-10.75c-.32-4.93-7.27-8.68-12.03-8.99,0-.24-.01-.48-.02-.74,0-.2,0-.4-.02-.61,2.25-2.05,3.7-5.17,3.7-8.66,0-.16,0-.33.01-.5.01-.39.02-.79-.01-1.18l.25-8.15c.03-.68-.24-1.32-.77-1.81-.7-.66-1.79-1.02-2.94-.96-1.28-1.32-2.9-2.21-4.83-2.66h-.04s-.19-.05-.19-.05c-3.84-.28-6.95.79-8.98,3.07-2.23,2.49-3.12,6.4-2.42,10.46-.03.38-.01.78,0,1.17,0,.21.02.42.02.61,0,3.5,1.45,6.63,3.7,8.68,0,.2,0,.39-.01.59,0,.25-.02.5-.02.74-4.45.3-12.02,3.74-12.09,9.02v10.72c0,.96.78,1.74,1.74,1.74h33.21c.96,0,1.74-.78,1.74-1.74ZM105.51,65.51v6.94h-16.91v-6.94c0-2.24-3.48-2.24-3.48,0v6.94h-2.97v-8.97c.05-2.49,5.19-5.34,8.79-5.56.56,2.35,2.67,5,6.08,5,3.04,0,5.57-2.15,6.14-5,3.4.23,8.3,3.05,8.73,5.61v8.92h-2.9v-6.94c0-2.24-3.48-2.24-3.48,0ZM90.58,44.44c0-.18,0-.36.01-.55.01-.42.02-.87-.02-1.29,0-.03.01-.05.02-.07.26-.98.58-2.19,1.81-2.77.37-.18.78.07,1.48.53,1.27.84,3.19,2.12,6.24-.41.21-.17.55-.36,1.15-.07,1.16.55,2.24,2.33,2.24,2.91,0,0,0,.01,0,.02-.04.4-.03.82-.01,1.21,0,.18.01.34.01.5,0,2.69-1.16,5.06-2.91,6.45-.1.06-.19.12-.27.2-.97.69-2.11,1.1-3.32,1.1s-2.25-.38-3.2-1.03c-.12-.12-.26-.22-.41-.3-1.71-1.39-2.84-3.75-2.84-6.41ZM103.69,37.22c-1.93-1.36-4.02-1.4-5.75-.04-1.23,1.03-1.58.75-2.36.14-.6-.48-1.43-1.13-2.83-1.13-.62,0-1.26.15-1.86.44.29-.87.67-1.55,1.19-2.1,1.06-1.24,3.17-2.06,5.09-2,1.25.04,3.02.46,4.35,2.21.61.83,1.44.69,1.99.59.08-.02.17-.03.25-.04l-.07,1.92ZM97.02,55.6c.94,0,1.86-.16,2.72-.43,0,.33.03.63.07.92,0,.02,0,.04,0,.07,0,1.54-.58,2.63-1.65,3.09-1.01.43-2.28.18-3.08-.59-.65-.65-.72-1.43-.78-2.18,0-.04,0-.09-.01-.13,0-.06.01-.12.01-.19,0-.02,0-.05,0-.07.04-.28.06-.58.07-.9.85.27,1.74.42,2.66.42Z"/>
  <path class="cls-1" d="M68.28,97.94c0-.22-.02-.44-.03-.66,0-.21-.01-.42-.02-.63,2.29-2.05,3.76-5.19,3.76-8.71,0-.16,0-.33.01-.5.01-.39.02-.79-.01-1.18l.25-8.15c.03-.67-.24-1.32-.77-1.81-.7-.66-1.78-1.02-2.94-.96-1.28-1.32-2.9-2.21-4.83-2.66h-.04s-.19-.05-.19-.05c-3.83-.27-6.94.79-8.98,3.07-2.2,2.46-3.09,6.28-2.44,10.28-.06.46-.04.95-.03,1.41,0,.19.01.38.01.56,0,3.52,1.47,6.66,3.76,8.71,0,.19,0,.37-.01.55,0,.25-.02.5-.02.73-4.53.28-12.09,3.92-12.09,9.02v10.72c0,.96.78,1.74,1.74,1.74h33.21c.96,0,1.74-.78,1.74-1.74v-10.16c0-5.62-7.62-9.29-12.08-9.58ZM70.5,109.01v6.94h-16.91v-6.94c0-2.24-3.48-2.24-3.48,0v6.94h-2.97v-8.98c0-2.66,5.43-5.35,8.77-5.55.53,2.38,2.62,5,6.1,5,3.01,0,5.52-2.15,6.08-5,3.4.2,8.29,2.97,8.79,5.62v8.92h-2.9v-6.94c0-2.24-3.48-2.24-3.48,0ZM68.68,80.72c-1.93-1.36-4.07-1.4-5.74-.05-1.23,1-1.58.72-2.36.1-.64-.51-1.44-1.14-2.84-1.14-.68,0-1.31.2-1.85.48.29-.85.67-1.52,1.18-2.07,1.06-1.23,3.14-2.07,5.09-1.99,1.25.04,3.02.46,4.35,2.21.61.84,1.44.68,1.99.59.08-.02.17-.03.25-.04l-.07,1.92ZM55.53,87.33c.01-.36.03-.73,0-1.09.02-.07.04-.13.06-.21.26-.98.58-2.21,1.8-2.78.37-.18.77.07,1.46.53,1.26.85,3.16,2.13,6.27-.41.2-.17.54-.35,1.13-.07,1.19.56,2.26,2.39,2.26,2.91,0,0,0,.01,0,.02-.04.4-.03.82-.01,1.21,0,.18.01.34.01.5,0,4.23-2.92,7.68-6.5,7.68s-6.5-3.45-6.5-7.68c0-.19,0-.4.02-.61ZM62.01,99.1c.92,0,1.81-.15,2.66-.41,0,.32.03.62.07.9,0,.02,0,.05,0,.07,0,1.55-.58,2.64-1.63,3.09-.99.42-2.24.17-3.03-.59-.65-.65-.73-1.44-.81-2.2.01-.1.02-.19.02-.3,0-.02,0-.04,0-.07.04-.28.06-.58.07-.9.85.26,1.74.41,2.66.41Z"/>
  <path class="cls-1" d="M150.44,106.92c-.39-4.93-7.35-8.67-12.09-8.98,0-.24-.01-.48-.02-.74,0-.19,0-.39-.02-.59,2.25-2.05,3.7-5.18,3.7-8.68,0-.16,0-.33.01-.5.01-.39.02-.81-.01-1.2,0,0,0,0,0-.01l.25-8.11c.03-.67-.24-1.32-.77-1.81-.7-.66-1.78-1.02-2.94-.96-2.13-2.2-4.76-2.71-5.06-2.71h0c-3.83-.27-6.93.79-8.96,3.07-2.26,2.52-3.15,6.47-2.43,10.58-.02.37-.01.76,0,1.13,0,.19.01.36.01.53,0,3.49,1.44,6.61,3.7,8.66,0,.2,0,.41-.02.61,0,.25-.02.5-.02.74-4.46.3-12.03,3.74-12.03,9.02v10.72c0,.99.75,1.74,1.74,1.74h33.21c.96,0,1.74-.78,1.74-1.74v-10.76ZM140.52,109.01v6.94h-16.91v-6.94c0-2.24-3.48-2.24-3.48,0v6.94h-2.9v-8.98c0-2.65,5.39-5.33,8.73-5.55.57,2.35,2.69,5,6.13,5,3.01,0,5.52-2.15,6.08-5,3.39.23,8.31,3.05,8.79,5.61v8.92h-2.97v-6.94c0-2.24-3.48-2.24-3.48,0ZM125.59,86.13s0-.03,0-.05c0-.66.85-2.34,1.89-2.84.33-.16.67.03,1.39.52,1.26.86,3.17,2.15,6.33-.4.2-.16.53-.35,1.11-.08,1.17.55,2.23,2.39,2.23,2.91,0,0,0,.01,0,.02-.04.4-.03.82-.01,1.21,0,.18.01.35.01.5,0,4.23-2.89,7.68-6.44,7.68s-6.5-3.45-6.5-7.68c0-.17,0-.34.01-.53.01-.42.02-.86-.02-1.28ZM138.74,80.73c-1.97-1.36-4.06-1.4-5.72-.06-1.27,1.01-1.63.72-2.43.09-.64-.5-1.44-1.13-2.84-1.13-.59,0-1.23.17-1.85.48.29-.86.67-1.53,1.18-2.08,1.06-1.24,3.17-2.06,5.09-1.99,1.25.04,3.02.46,4.36,2.23.66.82,1.46.67,2,.57.08-.02.16-.03.24-.04l-.03,1.93ZM132.1,99.1c.92,0,1.81-.15,2.66-.42,0,.32.03.63.07.91,0,.02,0,.04,0,.07,0,1.55-.59,2.65-1.67,3.1-1,.41-2.23.17-3-.6-.65-.65-.74-1.44-.83-2.19,0-.06-.01-.11-.02-.17,0-.05.01-.09.01-.13,0-.02,0-.04,0-.07.04-.28.06-.59.07-.92.87.28,1.78.43,2.72.43Z"/>
  <path class="cls-1" d="M110.03,118.58c-8.25,3.4-17.71,3.4-25.95,0-1.03-.43-1.9.15-2.23.94-.33.8-.13,1.84.92,2.28,4.5,1.88,9.3,2.83,14.26,2.83s9.76-.95,14.32-2.83c1.04-.43,1.25-1.47.92-2.28-.33-.79-1.2-1.37-2.23-.94Z"/>
  <path class="cls-1" d="M115.11,49.86c7.67,3.19,13.9,8.98,17.53,16.31.27.54.89.9,1.56.9.6,0,1.15-.29,1.46-.79.32-.5.36-1.12.1-1.67-4.1-8.14-10.95-14.51-19.29-17.96-1.07-.43-1.96.16-2.29.97-.32.79-.11,1.82.92,2.25Z"/>
  <path class="cls-1" d="M59.91,67.06c.74,0,1.33-.4,1.58-1.05,3.33-8.1,10.17-14.95,18.31-18.32.6-.24,1-.72,1.08-1.32.09-.64-.19-1.3-.7-1.7-.48-.37-1.09-.44-1.69-.2-9.15,3.89-16.33,11.07-20.23,20.23-.2.52-.13,1.12.19,1.59.33.48.87.77,1.45.77Z"/>
</svg>