<?xml version="1.0" encoding="UTF-8" standalone="no"?>
<!DOCTYPE svg PUBLIC "-//W3C//DTD SVG 1.1//EN" "http://www.w3.org/Graphics/SVG/1.1/DTD/svg11.dtd">
<svg width="100%" height="100%" viewBox="0 0 250 75" version="1.1" xmlns="http://www.w3.org/2000/svg" xmlns:xlink="http://www.w3.org/1999/xlink" xml:space="preserve" xmlns:serif="http://www.serif.com/" style="fill-rule:evenodd;clip-rule:evenodd;stroke-linejoin:round;stroke-miterlimit:2;">
    <g id="Artboard1" transform="matrix(0.03125,0,0,0.0257432,0,0)">
        <rect x="0" y="0" width="8000" height="2911.27" style="fill:none;"/>
        <g transform="matrix(32.6577,0,0,39.6437,-2888.69,-4968.62)">
            <g id="Capa-1" serif:id="Capa 1">
                <g>
                    <g transform="matrix(0.146803,0,0,0.146803,130.44,147.002)">
                        <path d="M0,-136.816C0,-136.816 20.924,-128.848 24.606,-126.777C34.057,-121.462 46.065,-115.162 46.065,-115.162L104.335,-81.696L145.283,-58.663L165.558,-47.245L87.405,0L52.955,-19.291L15.748,-38.977L14.96,-39.568C14.96,-39.568 18.504,-47.049 20.276,-50.395C22.048,-53.741 23.623,-62.403 23.819,-64.963C24.017,-67.523 26.97,-80.318 23.427,-93.311C19.883,-106.304 18.504,-110.044 15.552,-114.965C12.599,-119.887 8.7,-125.339 6.693,-128.351C4.724,-131.305 3.149,-133.274 3.149,-133.274L0,-136.816Z" style="fill:rgb(0,158,169);fill-rule:nonzero;"/>
                    </g>
                    <g transform="matrix(0,-0.146803,-0.146803,0,122.772,126.397)">
                        <path d="M-58.073,-58.074C-90.037,-58.074 -115.95,-32.073 -115.95,-0C-115.95,32.073 -90.037,58.073 -58.073,58.073C-26.11,58.073 -0.197,32.073 -0.197,-0C-0.197,-32.073 -26.11,-58.074 -58.073,-58.074" style="fill:rgb(0,158,169);fill-rule:nonzero;"/>
                    </g>
                    <g transform="matrix(0.146803,0,0,0.146803,114.555,146.903)">
                        <path d="M0,-137.455C0,-137.455 -5.512,-133.911 -10.893,-124.855C-16.275,-115.8 -20.475,-110.418 -22.574,-95.851C-24.673,-81.283 -23.231,-73.015 -21.786,-65.141C-20.343,-57.267 -16.536,-50.573 -15.224,-47.817C-13.912,-45.062 -12.599,-42.437 -12.599,-42.437C-12.599,-42.437 -42.521,-24.279 -48.164,-20.868C-53.809,-17.457 -83.468,0 -83.468,0L-123.627,-22.575L-163.918,-45.147L-105.254,-80.976L-65.096,-105.623C-65.096,-105.623 -31.104,-125.179 -23.099,-128.722C-15.094,-132.266 0,-137.455 0,-137.455" style="fill:rgb(0,158,169);fill-rule:nonzero;"/>
                    </g>
                    <g transform="matrix(0.146803,0,0,0.146803,89.1235,169.775)">
                        <path d="M0,-187.147L80.713,-140.688L80.713,-58.401C80.713,-58.401 64.567,-58.793 52.23,-53.807C39.895,-48.821 33.071,-43.834 25.984,-37.14C18.897,-30.448 14.301,-22.573 11.678,-18.634C9.054,-14.698 5.248,-1.575 4.854,-0.788C4.46,0 0.653,-40.027 0.653,-56.563C0.653,-73.099 0.129,-125.449 0.129,-125.449L0,-187.147Z" style="fill:rgb(0,128,176);fill-rule:nonzero;"/>
                    </g>
                    <g transform="matrix(0,-0.146803,-0.146803,0,100.915,164.11)">
                        <path d="M-57.223,-57.22C-89.551,-57.22 -115.755,-31.602 -115.755,0.002C-115.755,31.604 -89.551,57.223 -57.223,57.223C-24.893,57.223 1.313,31.604 1.313,0.002C1.313,-31.602 -24.893,-57.22 -57.223,-57.22" style="fill:rgb(0,128,176);fill-rule:nonzero;"/>
                    </g>
                    <g transform="matrix(0.146803,0,0,0.146803,97.957,191.431)">
                        <path d="M0,-54.729C0,-54.729 19.096,-38.783 31.104,-31.893C43.112,-25.002 55.121,-18.112 80.122,-3.938C105.124,10.235 135.045,27.953 135.045,27.953L157.093,40.946L157.093,-50.397C157.093,-50.397 136.424,-62.997 121.461,-72.249C106.501,-81.5 86.027,-95.675 86.027,-95.675C86.027,-95.675 87.865,-84.404 75.397,-74.297C62.929,-64.19 53.086,-58.678 38.913,-56.187C24.738,-53.696 17.256,-54.353 11.876,-54.747C6.497,-55.14 0,-54.729 0,-54.729" style="fill:rgb(0,128,176);fill-rule:nonzero;"/>
                    </g>
                    <g transform="matrix(0.146803,0,0,0.146803,123.996,191.334)">
                        <path d="M0,-47.374L0.263,43.18L88.717,-8.267C88.717,-8.267 113.653,-21.917 127.302,-30.315C140.951,-38.713 159.85,-53.545 159.85,-53.545C159.85,-53.545 146.267,-50.002 127.171,-52.363C108.075,-54.726 99.61,-60.927 94,-64.864C88.39,-68.801 79.335,-78.152 76.579,-81.695C73.822,-85.239 70.574,-90.554 70.574,-90.554C70.574,-90.554 52.167,-79.728 42.325,-73.821C32.481,-67.916 0,-47.374 0,-47.374" style="fill:rgb(2,73,105);fill-rule:nonzero;"/>
                    </g>
                    <g transform="matrix(0,-0.146803,-0.146803,0,144.302,163.957)">
                        <path d="M-57.746,-57.747C-90.074,-57.747 -116.281,-31.893 -116.281,0.002C-116.281,31.892 -90.074,57.746 -57.746,57.746C-25.419,57.746 0.788,31.892 0.788,0.002C0.788,-31.893 -25.419,-57.747 -57.746,-57.747" style="fill:rgb(2,73,105);fill-rule:nonzero;"/>
                    </g>
                    <g transform="matrix(0.146803,0,0,0.146803,144.182,150.957)">
                        <path d="M0,71.264C0,71.264 9.843,70.181 18.604,72.051C27.363,73.92 34.154,77.465 39.864,80.615C45.572,83.764 50.198,87.996 55.121,92.524C60.042,97.052 65.455,103.942 66.932,106.403C68.408,108.864 73.822,120.084 75.2,123.53C76.578,126.974 76.578,129.436 76.578,129.436C76.578,129.436 80.711,100.792 80.811,77.465C80.909,54.137 80.416,1.28 80.416,1.28L80.614,-58.172L0.688,-10.729L0.294,20.769L0.098,46.066L-0.395,71.264L-0.493,71.952" style="fill:rgb(2,73,105);fill-rule:nonzero;"/>
                    </g>
                    <g transform="matrix(0.146803,0,0,0.146803,179.566,157.36)">
                        <path d="M0,-75.796L-36.565,-75.796C-40.021,-75.796 -43.5,-75.449 -47.002,-74.76C-50.506,-74.068 -53.664,-72.71 -56.477,-70.689C-59.29,-68.665 -61.609,-65.778 -63.435,-62.028C-65.262,-58.276 -66.173,-53.391 -66.173,-47.373L-1.776,-47.373L-1.776,-28.423L-66.173,-28.423L-66.173,19.689L-90.452,19.689L-90.452,-40.119C-90.452,-48.21 -89.663,-55.637 -88.083,-62.399C-86.505,-69.157 -83.815,-74.982 -80.015,-79.867C-76.217,-84.752 -71.158,-88.576 -64.841,-91.34C-58.526,-94.102 -50.68,-95.485 -41.303,-95.485L0,-95.485L0,-75.796Z" style="fill:rgb(29,138,182);fill-rule:nonzero;"/>
                    </g>
                    <g transform="matrix(0.146803,0,0,0.146803,76.0399,93.8711)">
                        <path d="M717.05,369.854L738.367,369.854L738.367,452.164L717.05,452.164L717.05,369.854ZM717.05,341.875L738.367,341.875L738.367,361.564L717.05,361.564L717.05,341.875Z" style="fill:rgb(29,138,182);fill-rule:nonzero;"/>
                    </g>
                    <g transform="matrix(0.146803,0,0,0.146803,195.018,153.013)">
                        <path d="M0,16.284L-27.387,16.284C-28.771,16.284 -30.103,16.384 -31.384,16.58C-32.668,16.779 -33.827,17.172 -34.863,17.764C-35.899,18.357 -36.739,19.196 -37.38,20.281C-38.023,21.368 -38.342,22.798 -38.342,24.574C-38.342,26.351 -38.023,27.783 -37.38,28.867C-36.739,29.954 -35.899,30.792 -34.863,31.384C-33.827,31.976 -32.668,32.372 -31.384,32.568C-30.103,32.767 -28.771,32.865 -27.387,32.865L0,32.865L0,16.284ZM0,-3.701C0,-5.278 -0.199,-6.859 -0.592,-8.438C-0.988,-10.016 -1.703,-11.399 -2.739,-12.583C-3.775,-13.768 -5.182,-14.73 -6.958,-15.47C-8.734,-16.21 -11.006,-16.58 -13.768,-16.58L-55.218,-16.58L-55.218,-33.013L-7.402,-33.013C-4.441,-33.013 -1.284,-32.518 2.072,-31.532C5.426,-30.545 8.535,-28.916 11.399,-26.647C14.26,-24.376 16.629,-21.366 18.505,-17.617C20.378,-13.865 21.317,-9.276 21.317,-3.849L21.317,49.297L-35.529,49.297C-43.819,49.297 -50.137,47.002 -54.478,42.413C-58.822,37.824 -60.992,31.879 -60.992,24.574C-60.992,21.021 -60.425,17.716 -59.29,14.656C-58.156,11.598 -56.528,8.982 -54.404,6.81C-52.283,4.64 -49.644,2.937 -46.484,1.702C-43.327,0.47 -39.674,-0.148 -35.529,-0.148L0,-0.148L0,-3.701Z" style="fill:rgb(29,138,182);fill-rule:nonzero;"/>
                    </g>
                    <g transform="matrix(0.146803,0,0,0.146803,209.122,159.935)">
                        <path d="M0,-78.016C3.257,-76.584 6.044,-74.708 8.364,-72.391C10.682,-70.071 12.458,-67.406 13.693,-64.397C14.926,-61.385 15.544,-58.35 15.544,-55.292L15.544,2.147L-5.773,2.147L-5.773,-50.999C-5.773,-52.183 -5.921,-53.465 -6.218,-54.848C-6.514,-56.229 -7.106,-57.513 -7.994,-58.697C-8.882,-59.882 -10.118,-60.867 -11.695,-61.658C-13.275,-62.447 -15.299,-62.842 -17.765,-62.842L-40.119,-62.842L-40.119,2.147L-61.436,2.147L-61.436,-80.163L-11.103,-80.163C-6.958,-80.163 -3.257,-79.446 0,-78.016" style="fill:rgb(29,138,182);fill-rule:nonzero;"/>
                    </g>
                    <g transform="matrix(0.146803,0,0,0.146803,224.421,148.167)">
                        <path d="M0,82.31L-79.053,82.31L-79.053,64.99L-30.496,17.765L-30.496,17.321L-79.053,17.321L-79.053,0L0,0L0,17.321L-48.853,64.693L-48.853,64.99L0,64.99L0,82.31Z" style="fill:rgb(29,138,182);fill-rule:nonzero;"/>
                    </g>
                    <g transform="matrix(0.146803,0,0,0.146803,234.461,153.013)">
                        <path d="M0,16.284L-27.387,16.284C-28.77,16.284 -30.103,16.384 -31.384,16.58C-32.668,16.779 -33.826,17.172 -34.862,17.764C-35.898,18.357 -36.738,19.196 -37.379,20.281C-38.022,21.368 -38.342,22.798 -38.342,24.574C-38.342,26.351 -38.022,27.783 -37.379,28.867C-36.738,29.954 -35.898,30.792 -34.862,31.384C-33.826,31.976 -32.668,32.372 -31.384,32.568C-30.103,32.767 -28.77,32.865 -27.387,32.865L0,32.865L0,16.284ZM0,-3.701C0,-5.278 -0.198,-6.859 -0.592,-8.438C-0.987,-10.016 -1.702,-11.399 -2.738,-12.583C-3.774,-13.768 -5.181,-14.73 -6.957,-15.47C-8.733,-16.21 -11.005,-16.58 -13.768,-16.58L-55.218,-16.58L-55.218,-33.013L-7.401,-33.013C-4.44,-33.013 -1.283,-32.518 2.073,-31.532C5.427,-30.545 8.536,-28.916 11.399,-26.647C14.261,-24.376 16.629,-21.366 18.505,-17.617C20.379,-13.865 21.318,-9.276 21.318,-3.849L21.318,49.297L-35.529,49.297C-43.819,49.297 -50.136,47.002 -54.478,42.413C-58.821,37.824 -60.991,31.879 -60.991,24.574C-60.991,21.021 -60.425,17.716 -59.289,14.656C-58.155,11.598 -56.527,8.982 -54.403,6.81C-52.282,4.64 -49.644,2.937 -46.483,1.702C-43.326,0.47 -39.674,-0.148 -35.529,-0.148L0,-0.148L0,-3.701Z" style="fill:rgb(29,138,182);fill-rule:nonzero;"/>
                    </g>
                    <g transform="matrix(0.146803,0,0,0.146803,170.752,171.065)">
                        <path d="M0,-10.291L25.995,-10.291C34.479,-10.291 38.722,-14.488 38.722,-22.882C38.722,-31.186 34.479,-35.338 25.995,-35.338L0,-35.338L0,-10.291ZM0,47.522L-25.995,47.522L-25.995,-57.813L35.879,-57.813C40.571,-57.813 44.836,-57.113 48.673,-55.715C52.509,-54.314 55.803,-52.171 58.557,-49.283C61.309,-46.394 63.431,-42.762 64.92,-38.385C66.41,-34.006 67.154,-28.84 67.154,-22.882C67.154,-16.925 66.41,-11.757 64.92,-7.38C63.431,-3.001 61.309,0.632 58.557,3.519C55.803,6.409 52.509,8.575 48.673,10.018C44.836,11.463 40.571,12.184 35.879,12.184L0,12.184L0,47.522Z" style="fill:rgb(2,73,105);fill-rule:nonzero;"/>
                    </g>
                    <g transform="matrix(0.146803,0,0,0.146803,187.239,174.96)">
                        <path d="M0,-33.306C-1.489,-34.749 -3.364,-35.472 -5.619,-35.472L-11.711,-35.472L-11.711,20.986L-34.322,20.986L-34.322,-54.292L1.557,-54.292C4.354,-54.292 7.152,-53.75 9.951,-52.667C12.748,-51.584 15.253,-50.027 17.465,-47.996C19.676,-45.965 21.459,-43.529 22.813,-40.685C24.167,-37.842 24.844,-34.614 24.844,-31.004L24.844,-23.422L2.234,-23.422L2.234,-27.619C2.234,-29.966 1.489,-31.862 0,-33.306" style="fill:rgb(2,73,105);fill-rule:nonzero;"/>
                    </g>
                    <g transform="matrix(0.146803,0,0,0.146803,196.581,175.407)">
                        <path d="M0,-39.399C-2.122,-38.451 -3.791,-37.05 -5.009,-35.202C-6.228,-33.35 -7.087,-31.117 -7.582,-28.5C-8.079,-25.88 -8.327,-22.949 -8.327,-19.699C-8.327,-16.45 -8.079,-13.515 -7.582,-10.899C-7.087,-8.28 -6.228,-6.045 -5.009,-4.197C-3.791,-2.346 -2.122,-0.948 0,0C2.12,0.948 4.807,1.422 8.056,1.422C11.305,1.422 13.99,0.948 16.112,0C18.231,-0.948 19.903,-2.346 21.121,-4.197C22.34,-6.045 23.196,-8.28 23.693,-10.899C24.188,-13.515 24.438,-16.45 24.438,-19.699C24.438,-22.949 24.188,-25.88 23.693,-28.5C23.196,-31.117 22.34,-33.35 21.121,-35.202C19.903,-37.05 18.231,-38.451 16.112,-39.399C13.99,-40.346 11.305,-40.82 8.056,-40.82C4.807,-40.82 2.12,-40.346 0,-39.399M-29.177,-36.624C-27.281,-41.498 -24.597,-45.58 -21.121,-48.877C-17.647,-52.17 -13.45,-54.651 -8.53,-56.323C-3.611,-57.992 1.917,-58.828 8.056,-58.828C14.193,-58.828 19.721,-57.992 24.641,-56.323C29.56,-54.651 33.757,-52.17 37.233,-48.877C40.707,-45.58 43.393,-41.498 45.289,-36.624C47.184,-31.749 48.132,-26.107 48.132,-19.699C48.132,-13.29 47.184,-7.649 45.289,-2.775C43.393,2.099 40.707,6.184 37.233,9.478C33.757,12.774 29.56,15.255 24.641,16.924C19.721,18.593 14.193,19.429 8.056,19.429C1.917,19.429 -3.611,18.593 -8.53,16.924C-13.45,15.255 -17.647,12.774 -21.121,9.478C-24.597,6.184 -27.281,2.099 -29.177,-2.775C-31.072,-7.649 -32.02,-13.29 -32.02,-19.699C-32.02,-26.107 -31.072,-31.749 -29.177,-36.624" style="fill:rgb(2,73,105);fill-rule:nonzero;"/>
                    </g>
                    <g transform="matrix(0.146803,0,0,0.146803,212.531,175.437)">
                        <path d="M0,-69.863L-10.425,-69.863C-11.779,-69.863 -13.088,-69.796 -14.352,-69.66C-15.616,-69.524 -16.721,-69.118 -17.668,-68.441C-18.616,-67.764 -19.384,-66.725 -19.97,-65.327C-20.558,-63.926 -20.85,-61.964 -20.85,-59.438L-20.85,-57.543L0,-57.543L0,-39.806L-20.85,-39.806L-20.85,17.736L-43.46,17.736L-43.46,-39.806L-57.812,-39.806L-57.812,-57.543L-43.46,-57.543L-43.46,-67.019C-43.46,-69.636 -43.168,-72.185 -42.581,-74.67C-41.995,-77.151 -40.979,-79.341 -39.534,-81.236C-38.091,-83.132 -36.149,-84.665 -33.712,-85.839C-31.275,-87.011 -28.208,-87.599 -24.506,-87.599L0,-87.599L0,-69.863Z" style="fill:rgb(2,73,105);fill-rule:nonzero;"/>
                    </g>
                    <g transform="matrix(0.146803,0,0,0.146803,222.966,169.593)">
                        <path d="M0,39.806L0,57.542L-30.869,57.542C-42.242,57.542 -51.11,54.361 -57.474,47.997C-63.837,41.633 -67.019,32.271 -67.019,19.904C-67.019,7.538 -63.837,-1.827 -57.474,-8.19C-51.11,-14.554 -42.242,-17.736 -30.869,-17.736L0,-17.736L0,0L-27.891,0C-32.043,0 -35.293,1.016 -37.639,3.047C-39.987,5.077 -41.836,7.854 -43.189,11.373L-1.623,11.373L-1.623,28.297L-43.189,28.297C-41.836,31.818 -39.987,34.617 -37.639,36.692C-35.293,38.769 -32.043,39.806 -27.891,39.806L0,39.806Z" style="fill:rgb(2,73,105);fill-rule:nonzero;"/>
                    </g>
                    <g transform="matrix(0.146803,0,0,0.146803,226.255,171.541)">
                        <path d="M0,13.268C-2.935,12.096 -5.416,10.493 -7.446,8.461C-9.478,6.431 -11.014,4.017 -12.05,1.218C-13.089,-1.579 -13.606,-4.648 -13.606,-7.989C-13.606,-11.238 -13.089,-14.284 -12.05,-17.128C-11.014,-19.97 -9.478,-22.408 -7.446,-24.438C-5.416,-26.469 -2.935,-28.071 0,-29.245C2.932,-30.417 6.296,-31.005 10.087,-31.005L57.609,-31.005L57.609,-13.269L14.69,-13.269C12.523,-13.269 10.717,-12.907 9.274,-12.185C7.829,-11.462 7.108,-9.928 7.108,-7.583C7.108,-5.234 7.829,-3.701 9.274,-2.979C10.717,-2.255 12.523,-1.896 14.69,-1.896L37.978,-1.896C41.769,-1.896 45.13,-1.308 48.064,-0.135C50.996,1.038 53.479,2.663 55.511,4.739C57.541,6.816 59.075,9.252 60.114,12.049C61.15,14.848 61.671,17.917 61.671,21.256C61.671,24.505 61.15,27.552 60.114,30.395C59.075,33.239 57.541,35.675 55.511,37.706C53.479,39.738 50.996,41.341 48.064,42.513C45.13,43.687 41.769,44.273 37.978,44.273L-13.606,44.273L-13.606,26.537L33.51,26.537C35.585,26.537 37.345,26.177 38.79,25.454C40.232,24.732 40.956,23.198 40.956,20.85C40.956,18.503 40.232,16.947 38.79,16.179C37.345,15.414 35.585,15.028 33.51,15.028L10.087,15.028C6.296,15.028 2.932,14.442 0,13.268" style="fill:rgb(2,73,105);fill-rule:nonzero;"/>
                    </g>
                    <g transform="matrix(0.146803,0,0,0.146803,76.0399,130.836)">
                        <path d="M1097.1,246.276L1119.71,246.276L1119.71,321.554L1097.1,321.554L1097.1,246.276ZM1097.1,220.687L1119.71,220.687L1119.71,238.695L1097.1,238.695L1097.1,220.687Z" style="fill:rgb(2,73,105);fill-rule:nonzero;"/>
                    </g>
                    <g transform="matrix(0.146803,0,0,0.146803,246.608,175.407)">
                        <path d="M0,-39.399C-2.122,-38.451 -3.791,-37.05 -5.01,-35.202C-6.229,-33.35 -7.087,-31.117 -7.582,-28.5C-8.079,-25.88 -8.327,-22.949 -8.327,-19.699C-8.327,-16.45 -8.079,-13.515 -7.582,-10.899C-7.087,-8.28 -6.229,-6.045 -5.01,-4.197C-3.791,-2.346 -2.122,-0.948 0,0C2.119,0.948 4.806,1.422 8.056,1.422C11.305,1.422 13.989,0.948 16.111,0C18.23,-0.948 19.902,-2.346 21.121,-4.197C22.339,-6.045 23.196,-8.28 23.693,-10.899C24.188,-13.515 24.437,-16.45 24.437,-19.699C24.437,-22.949 24.188,-25.88 23.693,-28.5C23.196,-31.117 22.339,-33.35 21.121,-35.202C19.902,-37.05 18.23,-38.451 16.111,-39.399C13.989,-40.346 11.305,-40.82 8.056,-40.82C4.806,-40.82 2.119,-40.346 0,-39.399M-29.178,-36.624C-27.282,-41.498 -24.598,-45.58 -21.121,-48.877C-17.647,-52.17 -13.451,-54.651 -8.53,-56.323C-3.611,-57.992 1.916,-58.828 8.056,-58.828C14.192,-58.828 19.72,-57.992 24.641,-56.323C29.56,-54.651 33.757,-52.17 37.232,-48.877C40.706,-45.58 43.393,-41.498 45.288,-36.624C47.184,-31.749 48.131,-26.107 48.131,-19.699C48.131,-13.29 47.184,-7.649 45.288,-2.775C43.393,2.099 40.706,6.184 37.232,9.478C33.757,12.774 29.56,15.255 24.641,16.924C19.72,18.593 14.192,19.429 8.056,19.429C1.916,19.429 -3.611,18.593 -8.53,16.924C-13.451,15.255 -17.647,12.774 -21.121,9.478C-24.598,6.184 -27.282,2.099 -29.178,-2.775C-31.072,-7.649 -32.021,-13.29 -32.021,-19.699C-32.021,-26.107 -31.072,-31.749 -29.178,-36.624" style="fill:rgb(2,73,105);fill-rule:nonzero;"/>
                    </g>
                    <g transform="matrix(0.146803,0,0,0.146803,263.204,177.822)">
                        <path d="M0,-72.3C2.844,-71.305 5.416,-69.862 7.718,-67.967C10.02,-66.071 11.915,-63.679 13.404,-60.791C14.894,-57.902 15.638,-54.564 15.638,-50.773L15.638,1.489L-6.973,1.489L-6.973,-47.116C-6.973,-49.913 -7.785,-51.923 -9.409,-53.142C-11.034,-54.361 -12.841,-54.969 -14.825,-54.969L-32.155,-54.969L-32.155,1.489L-54.766,1.489L-54.766,-73.789L-8.326,-73.789C-5.618,-73.789 -2.843,-73.291 0,-72.3" style="fill:rgb(2,73,105);fill-rule:nonzero;"/>
                    </g>
                    <g transform="matrix(0.146803,0,0,0.146803,274.523,171.283)">
                        <path d="M0,16.788L-22.881,16.788C-24.687,16.788 -26.333,17.15 -27.822,17.871C-29.312,18.595 -30.057,20.173 -30.057,22.61C-30.057,24.958 -29.335,26.492 -27.891,27.214C-26.447,27.937 -24.776,28.297 -22.881,28.297L0,28.297L0,16.788ZM-47.387,-29.245L-4.603,-29.245C-1.624,-29.245 1.467,-28.816 4.671,-27.958C7.874,-27.1 10.809,-25.61 13.472,-23.49C16.133,-21.369 18.322,-18.525 20.038,-14.961C21.752,-11.395 22.61,-6.949 22.61,-1.625L22.61,46.033L-28.838,46.033C-36.69,46.033 -42.627,43.913 -46.642,39.67C-50.659,35.428 -52.667,29.877 -52.667,23.017C-52.667,16.067 -50.659,10.472 -46.642,6.227C-42.627,1.986 -36.69,-0.136 -28.838,-0.136L0,-0.136C0,-1.489 -0.158,-2.844 -0.474,-4.197C-0.791,-5.551 -1.354,-6.77 -2.166,-7.853C-2.979,-8.936 -4.085,-9.817 -5.483,-10.493C-6.884,-11.17 -8.665,-11.509 -10.831,-11.509L-47.387,-11.509L-47.387,-29.245Z" style="fill:rgb(2,73,105);fill-rule:nonzero;"/>
                    </g>
                    <g transform="matrix(0.146803,0,0,0.146803,76.0399,130.18)">
                        <rect x="1386.83" y="220.687" width="22.61" height="105.335" style="fill:rgb(2,73,105);"/>
                    </g>
                    <g transform="matrix(0.146803,0,0,0.146803,306.086,174.741)">
                        <path d="M0,-60.383L-60.521,-60.383C-63.229,-60.383 -65.598,-59.706 -67.628,-58.353C-69.659,-56.998 -70.675,-54.606 -70.675,-51.177C-70.675,-47.745 -69.615,-45.331 -67.493,-43.934C-65.373,-42.533 -62.957,-41.835 -60.25,-41.835L-25.725,-41.835C-22.657,-41.835 -19.294,-41.405 -15.638,-40.549C-11.982,-39.69 -8.576,-38.088 -5.416,-35.742C-2.258,-33.394 0.359,-30.145 2.437,-25.994C4.512,-21.841 5.551,-16.426 5.551,-9.747C5.551,-3.067 4.512,2.371 2.437,6.567C0.359,10.764 -2.258,14.038 -5.416,16.384C-8.576,18.732 -11.982,20.334 -15.638,21.19C-19.294,22.049 -22.657,22.476 -25.725,22.476L-93.015,22.476L-93.015,0.001L-31.411,0.001C-28.523,0.001 -26.087,-0.676 -24.1,-2.029C-22.115,-3.384 -21.121,-5.956 -21.121,-9.747C-21.121,-13.447 -22.137,-15.975 -24.168,-17.329C-26.198,-18.683 -28.703,-19.36 -31.682,-19.36L-66.207,-19.36C-69.367,-19.36 -72.752,-19.766 -76.361,-20.578C-79.973,-21.391 -83.357,-22.947 -86.516,-25.249C-89.676,-27.551 -92.293,-30.778 -94.368,-34.93C-96.445,-39.08 -97.482,-44.496 -97.482,-51.177C-97.482,-57.856 -96.445,-63.248 -94.368,-67.356C-92.293,-71.462 -89.676,-74.667 -86.516,-76.969C-83.357,-79.271 -79.973,-80.827 -76.361,-81.64C-72.752,-82.452 -69.367,-82.859 -66.207,-82.859L0,-82.859L0,-60.383Z" style="fill:rgb(2,73,105);fill-rule:nonzero;"/>
                    </g>
                    <g transform="matrix(0.146803,0,0,0.146803,76.0399,143)">
                        <rect x="1580.44" y="220.687" width="21.663" height="18.007" style="fill:rgb(2,73,105);"/>
                    </g>
                    <g transform="matrix(0.146803,0,0,0.146803,318.349,168.878)">
                        <path d="M0,19.497L22.204,19.497L11.103,-8.394L0,19.497ZM-0.135,-42.919L22.34,-42.919L66.748,62.416L39.264,62.416L30.328,39.806L-8.123,39.806L-17.059,62.416L-44.544,62.416L-0.135,-42.919Z" style="fill:rgb(2,73,105);fill-rule:nonzero;"/>
                    </g>
                    <g transform="matrix(0.146803,0,0,0.146803,76.0399,143)">
                        <rect x="1721.25" y="220.687" width="21.663" height="18.007" style="fill:rgb(2,73,105);"/>
                    </g>
                    <g transform="matrix(0.146803,0,0,0.146803,168.192,188.535)">
                        <path d="M0,-4.576L11.562,-4.576C15.334,-4.576 17.222,-6.443 17.222,-10.177C17.222,-13.869 15.334,-15.717 11.562,-15.717L0,-15.717L0,-4.576ZM0,21.136L-11.562,21.136L-11.562,-25.712L15.957,-25.712C18.044,-25.712 19.941,-25.401 21.647,-24.779C23.354,-24.156 24.818,-23.203 26.043,-21.919C27.268,-20.634 28.211,-19.017 28.874,-17.071C29.536,-15.124 29.867,-12.826 29.867,-10.177C29.867,-7.527 29.536,-5.228 28.874,-3.282C28.211,-1.334 27.268,0.281 26.043,1.566C24.818,2.851 23.354,3.815 21.647,4.456C19.941,5.099 18.044,5.419 15.957,5.419L0,5.419L0,21.136Z" style="fill:rgb(29,138,182);fill-rule:nonzero;"/>
                    </g>
                    <g transform="matrix(0.146803,0,0,0.146803,175.525,190.267)">
                        <path d="M0,-14.812C-0.662,-15.454 -1.496,-15.776 -2.499,-15.776L-5.208,-15.776L-5.208,9.334L-15.265,9.334L-15.265,-24.146L0.693,-24.146C1.937,-24.146 3.181,-23.905 4.426,-23.423C5.67,-22.941 6.784,-22.249 7.768,-21.345C8.751,-20.442 9.544,-19.359 10.146,-18.094C10.749,-16.83 11.05,-15.394 11.05,-13.789L11.05,-10.416L0.994,-10.416L0.994,-12.283C0.994,-13.327 0.663,-14.169 0,-14.812" style="fill:rgb(29,138,182);fill-rule:nonzero;"/>
                    </g>
                    <g transform="matrix(0.146803,0,0,0.146803,179.679,190.466)">
                        <path d="M0,-17.523C-0.944,-17.101 -1.686,-16.478 -2.228,-15.656C-2.77,-14.833 -3.152,-13.839 -3.372,-12.675C-3.593,-11.51 -3.704,-10.207 -3.704,-8.761C-3.704,-7.316 -3.593,-6.011 -3.372,-4.847C-3.152,-3.682 -2.77,-2.689 -2.228,-1.867C-1.686,-1.044 -0.944,-0.421 0,-0C0.943,0.422 2.138,0.632 3.583,0.632C5.028,0.632 6.222,0.422 7.166,-0C8.108,-0.421 8.852,-1.044 9.394,-1.867C9.936,-2.689 10.316,-3.682 10.538,-4.847C10.758,-6.011 10.869,-7.316 10.869,-8.761C10.869,-10.207 10.758,-11.51 10.538,-12.675C10.316,-13.839 9.936,-14.833 9.394,-15.656C8.852,-16.478 8.108,-17.101 7.166,-17.523C6.222,-17.944 5.028,-18.155 3.583,-18.155C2.138,-18.155 0.943,-17.944 0,-17.523M-12.977,-16.288C-12.134,-18.456 -10.939,-20.272 -9.394,-21.738C-7.849,-23.203 -5.982,-24.306 -3.793,-25.049C-1.606,-25.792 0.853,-26.164 3.583,-26.164C6.312,-26.164 8.771,-25.792 10.959,-25.049C13.147,-24.306 15.014,-23.203 16.559,-21.738C18.104,-20.272 19.299,-18.456 20.142,-16.288C20.985,-14.121 21.407,-11.611 21.407,-8.761C21.407,-5.911 20.985,-3.402 20.142,-1.234C19.299,0.934 18.104,2.75 16.559,4.215C15.014,5.681 13.147,6.785 10.959,7.528C8.771,8.27 6.312,8.641 3.583,8.641C0.853,8.641 -1.606,8.27 -3.793,7.528C-5.982,6.785 -7.849,5.681 -9.394,4.215C-10.939,2.75 -12.134,0.934 -12.977,-1.234C-13.82,-3.402 -14.241,-5.911 -14.241,-8.761C-14.241,-11.611 -13.82,-14.121 -12.977,-16.288" style="fill:rgb(29,138,182);fill-rule:nonzero;"/>
                    </g>
                    <g transform="matrix(0.146803,0,0,0.146803,185.35,184.76)">
                        <path d="M0,46.848C-1.285,46.848 -2.52,46.758 -3.703,46.577C-4.888,46.397 -5.952,45.955 -6.895,45.252C-7.838,44.55 -8.591,43.536 -9.153,42.211C-9.715,40.887 -9.996,39.08 -9.996,36.792L-9.996,21.256L-16.018,21.256L-16.018,13.368L-9.996,13.368L-9.996,0L0.06,0L0.06,13.368L9.333,13.368L9.333,21.256L0.06,21.256L0.06,34.263C0.06,34.865 0.09,35.448 0.15,36.009C0.21,36.572 0.391,37.074 0.692,37.515C0.994,37.956 1.465,38.308 2.107,38.569C2.749,38.829 3.633,38.959 4.757,38.959L9.333,38.959L9.333,46.848L0,46.848Z" style="fill:rgb(29,138,182);fill-rule:nonzero;"/>
                    </g>
                    <g transform="matrix(0.146803,0,0,0.146803,191.361,187.88)">
                        <path d="M0,17.703L0,25.592L-13.729,25.592C-18.788,25.592 -22.732,24.177 -25.562,21.347C-28.392,18.516 -29.807,14.352 -29.807,8.851C-29.807,3.352 -28.392,-0.813 -25.562,-3.644C-22.732,-6.474 -18.788,-7.889 -13.729,-7.889L0,-7.889L0,0L-12.405,0C-14.251,0 -15.697,0.451 -16.74,1.354C-17.785,2.258 -18.607,3.492 -19.209,5.058L-0.723,5.058L-0.723,12.585L-19.209,12.585C-18.607,14.15 -17.785,15.395 -16.74,16.318C-15.697,17.242 -14.251,17.703 -12.405,17.703L0,17.703Z" style="fill:rgb(29,138,182);fill-rule:nonzero;"/>
                    </g>
                    <g transform="matrix(0.146803,0,0,0.146803,196.179,190.409)">
                        <path d="M0,-16.74L-12.405,-16.74C-13.329,-16.74 -14.202,-16.59 -15.024,-16.288C-15.847,-15.987 -16.58,-15.495 -17.222,-14.813C-17.865,-14.13 -18.366,-13.257 -18.728,-12.193C-19.089,-11.13 -19.27,-9.854 -19.27,-8.37C-19.27,-6.844 -19.089,-5.559 -18.728,-4.516C-18.366,-3.471 -17.865,-2.609 -17.222,-1.927C-16.58,-1.244 -15.847,-0.753 -15.024,-0.451C-14.202,-0.15 -13.329,-0 -12.405,-0L0,-0L0,8.37L-13.729,8.37C-18.788,8.37 -22.732,6.955 -25.562,4.125C-28.392,1.295 -29.807,-2.869 -29.807,-8.37C-29.807,-13.869 -28.392,-18.034 -25.562,-20.865C-22.732,-23.695 -18.788,-25.11 -13.729,-25.11L0,-25.11L0,-16.74Z" style="fill:rgb(29,138,182);fill-rule:nonzero;"/>
                    </g>
                    <g transform="matrix(0.146803,0,0,0.146803,200.997,190.409)">
                        <path d="M0,-16.74L-12.405,-16.74C-13.329,-16.74 -14.202,-16.59 -15.024,-16.288C-15.847,-15.987 -16.58,-15.495 -17.222,-14.813C-17.865,-14.13 -18.366,-13.257 -18.728,-12.193C-19.089,-11.13 -19.27,-9.854 -19.27,-8.37C-19.27,-6.844 -19.089,-5.559 -18.728,-4.516C-18.366,-3.471 -17.865,-2.609 -17.222,-1.927C-16.58,-1.244 -15.847,-0.753 -15.024,-0.451C-14.202,-0.15 -13.329,-0 -12.405,-0L0,-0L0,8.37L-13.729,8.37C-18.788,8.37 -22.732,6.955 -25.562,4.125C-28.392,1.295 -29.807,-2.869 -29.807,-8.37C-29.807,-13.869 -28.392,-18.034 -25.562,-20.865C-22.732,-23.695 -18.788,-25.11 -13.729,-25.11L0,-25.11L0,-16.74Z" style="fill:rgb(29,138,182);fill-rule:nonzero;"/>
                    </g>
                    <g transform="matrix(0.146803,0,0,0.146803,76.0399,166.251)">
                        <path d="M855.704,139.45L865.76,139.45L865.76,172.93L855.704,172.93L855.704,139.45ZM855.704,128.069L865.76,128.069L865.76,136.078L855.704,136.078L855.704,128.069Z" style="fill:rgb(29,138,182);fill-rule:nonzero;"/>
                    </g>
                    <g transform="matrix(0.146803,0,0,0.146803,206.84,190.753)">
                        <path d="M0,-30.831L-5.721,-30.831L1.023,-37.515L6.684,-37.515L0,-30.831ZM-6.473,-19.48C-7.417,-19.059 -8.159,-18.435 -8.701,-17.613C-9.243,-16.79 -9.625,-15.797 -9.845,-14.633C-10.066,-13.468 -10.177,-12.164 -10.177,-10.719C-10.177,-9.273 -10.066,-7.969 -9.845,-6.805C-9.625,-5.64 -9.243,-4.646 -8.701,-3.824C-8.159,-3.001 -7.417,-2.379 -6.473,-1.957C-5.53,-1.535 -4.335,-1.325 -2.89,-1.325C-1.445,-1.325 -0.251,-1.535 0.692,-1.957C1.635,-2.379 2.378,-3.001 2.92,-3.824C3.462,-4.646 3.843,-5.64 4.064,-6.805C4.285,-7.969 4.396,-9.273 4.396,-10.719C4.396,-12.164 4.285,-13.468 4.064,-14.633C3.843,-15.797 3.462,-16.79 2.92,-17.613C2.378,-18.435 1.635,-19.059 0.692,-19.48C-0.251,-19.901 -1.445,-20.112 -2.89,-20.112C-4.335,-20.112 -5.53,-19.901 -6.473,-19.48M-19.45,-18.245C-18.607,-20.413 -17.413,-22.229 -15.867,-23.695C-14.322,-25.16 -12.455,-26.264 -10.267,-27.007C-8.079,-27.749 -5.621,-28.121 -2.89,-28.121C-0.161,-28.121 2.298,-27.749 4.486,-27.007C6.674,-26.264 8.541,-25.16 10.086,-23.695C11.631,-22.229 12.826,-20.413 13.669,-18.245C14.512,-16.078 14.934,-13.568 14.934,-10.719C14.934,-7.868 14.512,-5.359 13.669,-3.191C12.826,-1.023 11.631,0.793 10.086,2.258C8.541,3.724 6.674,4.827 4.486,5.57C2.298,6.313 -0.161,6.684 -2.89,6.684C-5.621,6.684 -8.079,6.313 -10.267,5.57C-12.455,4.827 -14.322,3.724 -15.867,2.258C-17.413,0.793 -18.607,-1.023 -19.45,-3.191C-20.293,-5.359 -20.714,-7.868 -20.714,-10.719C-20.714,-13.568 -20.293,-16.078 -19.45,-18.245" style="fill:rgb(29,138,182);fill-rule:nonzero;"/>
                    </g>
                    <g transform="matrix(0.146803,0,0,0.146803,213.271,191.54)">
                        <path d="M0,-32.154C1.265,-31.713 2.409,-31.07 3.432,-30.227C4.456,-29.384 5.299,-28.32 5.961,-27.036C6.624,-25.751 6.955,-24.266 6.955,-22.58L6.955,0.663L-3.101,0.663L-3.101,-20.954C-3.101,-22.198 -3.462,-23.091 -4.185,-23.633C-4.908,-24.175 -5.711,-24.447 -6.594,-24.447L-14.301,-24.447L-14.301,0.663L-24.357,0.663L-24.357,-32.817L-3.703,-32.817C-2.499,-32.817 -1.265,-32.595 0,-32.154" style="fill:rgb(29,138,182);fill-rule:nonzero;"/>
                    </g>
                    <g transform="matrix(0.146803,0,0,0.146803,220.254,188.38)">
                        <path d="M0,-2.469C-0.823,-2.168 -1.556,-1.676 -2.197,-0.994C-2.84,-0.311 -3.342,0.562 -3.703,1.626C-4.064,2.689 -4.245,3.965 -4.245,5.449C-4.245,6.975 -4.064,8.26 -3.703,9.302C-3.342,10.347 -2.84,11.21 -2.197,11.892C-1.556,12.575 -0.823,13.066 0,13.368C0.822,13.669 1.696,13.819 2.62,13.819L10.327,13.819L10.327,-2.921L2.62,-2.921C1.696,-2.921 0.822,-2.771 0,-2.469M-10.537,17.944C-13.367,15.114 -14.782,10.95 -14.782,5.449C-14.782,-0.05 -13.367,-4.215 -10.537,-7.046C-7.707,-9.876 -3.763,-11.291 1.295,-11.291L10.327,-11.291L10.327,-24.658L20.384,-24.658L20.384,22.189L1.295,22.189C-3.763,22.189 -7.707,20.774 -10.537,17.944" style="fill:rgb(29,138,182);fill-rule:nonzero;"/>
                    </g>
                    <g transform="matrix(0.146803,0,0,0.146803,228.285,187.88)">
                        <path d="M0,17.703L0,25.592L-13.729,25.592C-18.787,25.592 -22.731,24.177 -25.562,21.347C-28.392,18.516 -29.807,14.352 -29.807,8.851C-29.807,3.352 -28.392,-0.813 -25.562,-3.644C-22.731,-6.474 -18.787,-7.889 -13.729,-7.889L0,-7.889L0,0L-12.404,0C-14.252,0 -15.697,0.451 -16.74,1.354C-17.784,2.258 -18.606,3.492 -19.209,5.058L-0.723,5.058L-0.723,12.585L-19.209,12.585C-18.606,14.15 -17.784,15.395 -16.74,16.318C-15.697,17.242 -14.252,17.703 -12.404,17.703L0,17.703Z" style="fill:rgb(29,138,182);fill-rule:nonzero;"/>
                    </g>
                    <g transform="matrix(0.146803,0,0,0.146803,235.742,191.54)">
                        <path d="M0,-32.154C1.265,-31.713 2.408,-31.07 3.433,-30.227C4.456,-29.384 5.299,-28.32 5.961,-27.036C6.624,-25.751 6.955,-24.266 6.955,-22.58L6.955,0.663L-3.102,0.663L-3.102,-20.954C-3.102,-22.198 -3.462,-23.091 -4.185,-23.633C-4.907,-24.175 -5.711,-24.447 -6.594,-24.447L-14.302,-24.447L-14.302,0.663L-24.357,0.663L-24.357,-32.817L-3.703,-32.817C-2.499,-32.817 -1.265,-32.595 0,-32.154" style="fill:rgb(29,138,182);fill-rule:nonzero;"/>
                    </g>
                    <g transform="matrix(0.146803,0,0,0.146803,241.713,187.88)">
                        <path d="M0,17.703L0,25.592L-13.729,25.592C-18.787,25.592 -22.731,24.177 -25.562,21.347C-28.392,18.516 -29.807,14.352 -29.807,8.851C-29.807,3.352 -28.392,-0.813 -25.562,-3.644C-22.731,-6.474 -18.787,-7.889 -13.729,-7.889L0,-7.889L0,0L-12.404,0C-14.252,0 -15.697,0.451 -16.74,1.354C-17.784,2.258 -18.606,3.492 -19.209,5.058L-0.723,5.058L-0.723,12.585L-19.209,12.585C-18.606,14.15 -17.784,15.395 -16.74,16.318C-15.697,17.242 -14.252,17.703 -12.404,17.703L0,17.703Z" style="fill:rgb(29,138,182);fill-rule:nonzero;"/>
                    </g>
                    <g transform="matrix(0.146803,0,0,0.146803,244.325,192.305)">
                        <path d="M0,-29.204C-0.823,-28.903 -1.556,-28.411 -2.197,-27.729C-2.84,-27.046 -3.342,-26.173 -3.703,-25.109C-4.064,-24.046 -4.245,-22.77 -4.245,-21.286C-4.245,-19.76 -4.064,-18.475 -3.703,-17.433C-3.342,-16.388 -2.84,-15.525 -2.197,-14.843C-1.556,-14.16 -0.823,-13.669 0,-13.367C0.822,-13.066 1.696,-12.916 2.62,-12.916L10.327,-12.916L10.327,-29.656L2.62,-29.656C1.696,-29.656 0.822,-29.506 0,-29.204M20.384,-4.546C20.384,-2.258 20.062,-0.27 19.42,1.415C18.777,3.102 17.904,4.486 16.801,5.57C15.696,6.654 14.401,7.467 12.917,8.009C11.431,8.551 9.846,8.822 8.159,8.822L-11.109,8.822L-11.109,0.934L6.354,0.934C6.874,0.934 7.377,0.894 7.858,0.814C8.34,0.733 8.762,0.532 9.123,0.211C9.484,-0.11 9.775,-0.593 9.996,-1.234C10.217,-1.877 10.327,-2.78 10.327,-3.943L10.327,-4.546L1.295,-4.546C-3.763,-4.546 -7.707,-5.961 -10.537,-8.791C-13.367,-11.621 -14.782,-15.785 -14.782,-21.286C-14.782,-26.785 -13.367,-30.95 -10.537,-33.781C-7.707,-36.611 -3.763,-38.026 1.295,-38.026L20.384,-38.026L20.384,-4.546Z" style="fill:rgb(29,138,182);fill-rule:nonzero;"/>
                    </g>
                    <g transform="matrix(0.146803,0,0,0.146803,249.982,190.466)">
                        <path d="M0,-17.523C-0.943,-17.101 -1.686,-16.478 -2.228,-15.656C-2.77,-14.833 -3.151,-13.839 -3.372,-12.675C-3.593,-11.51 -3.703,-10.207 -3.703,-8.761C-3.703,-7.316 -3.593,-6.011 -3.372,-4.847C-3.151,-3.682 -2.77,-2.689 -2.228,-1.867C-1.686,-1.044 -0.943,-0.421 0,-0C0.943,0.422 2.138,0.632 3.583,0.632C5.028,0.632 6.223,0.422 7.166,-0C8.108,-0.421 8.853,-1.044 9.395,-1.867C9.937,-2.689 10.317,-3.682 10.538,-4.847C10.759,-6.011 10.869,-7.316 10.869,-8.761C10.869,-10.207 10.759,-11.51 10.538,-12.675C10.317,-13.839 9.937,-14.833 9.395,-15.656C8.853,-16.478 8.108,-17.101 7.166,-17.523C6.223,-17.944 5.028,-18.155 3.583,-18.155C2.138,-18.155 0.943,-17.944 0,-17.523M-12.977,-16.288C-12.133,-18.456 -10.939,-20.272 -9.394,-21.738C-7.849,-23.203 -5.981,-24.306 -3.793,-25.049C-1.605,-25.792 0.853,-26.164 3.583,-26.164C6.312,-26.164 8.771,-25.792 10.96,-25.049C13.147,-24.306 15.014,-23.203 16.56,-21.738C18.104,-20.272 19.3,-18.456 20.143,-16.288C20.985,-14.121 21.407,-11.611 21.407,-8.761C21.407,-5.911 20.985,-3.402 20.143,-1.234C19.3,0.934 18.104,2.75 16.56,4.215C15.014,5.681 13.147,6.785 10.96,7.528C8.771,8.27 6.312,8.641 3.583,8.641C0.853,8.641 -1.605,8.27 -3.793,7.528C-5.981,6.785 -7.849,5.681 -9.394,4.215C-10.939,2.75 -12.133,0.934 -12.977,-1.234C-13.819,-3.402 -14.24,-5.911 -14.24,-8.761C-14.24,-11.611 -13.819,-14.121 -12.977,-16.288" style="fill:rgb(29,138,182);fill-rule:nonzero;"/>
                    </g>
                    <g transform="matrix(0.146803,0,0,0.146803,257.943,190.409)">
                        <path d="M0,-16.74L-12.404,-16.74C-13.328,-16.74 -14.202,-16.59 -15.024,-16.288C-15.848,-15.987 -16.58,-15.495 -17.222,-14.813C-17.864,-14.13 -18.366,-13.257 -18.728,-12.193C-19.089,-11.13 -19.27,-9.854 -19.27,-8.37C-19.27,-6.844 -19.089,-5.559 -18.728,-4.516C-18.366,-3.471 -17.864,-2.609 -17.222,-1.927C-16.58,-1.244 -15.848,-0.753 -15.024,-0.451C-14.202,-0.15 -13.328,-0 -12.404,-0L0,-0L0,8.37L-13.729,8.37C-18.787,8.37 -22.731,6.955 -25.562,4.125C-28.392,1.295 -29.807,-2.869 -29.807,-8.37C-29.807,-13.869 -28.392,-18.034 -25.562,-20.865C-22.731,-23.695 -18.787,-25.11 -13.729,-25.11L0,-25.11L0,-16.74Z" style="fill:rgb(29,138,182);fill-rule:nonzero;"/>
                    </g>
                    <g transform="matrix(0.146803,0,0,0.146803,76.0399,166.251)">
                        <path d="M1243.61,139.45L1253.67,139.45L1253.67,172.93L1243.61,172.93L1243.61,139.45ZM1243.61,128.069L1253.67,128.069L1253.67,136.078L1243.61,136.078L1243.61,128.069Z" style="fill:rgb(29,138,182);fill-rule:nonzero;"/>
                    </g>
                    <g transform="matrix(0.146803,0,0,0.146803,262.835,190.466)">
                        <path d="M0,-17.523C-0.943,-17.101 -1.686,-16.478 -2.228,-15.656C-2.77,-14.833 -3.151,-13.839 -3.372,-12.675C-3.593,-11.51 -3.703,-10.207 -3.703,-8.761C-3.703,-7.316 -3.593,-6.011 -3.372,-4.847C-3.151,-3.682 -2.77,-2.689 -2.228,-1.867C-1.686,-1.044 -0.943,-0.421 0,-0C0.943,0.422 2.138,0.632 3.583,0.632C5.028,0.632 6.223,0.422 7.166,-0C8.108,-0.421 8.853,-1.044 9.395,-1.867C9.937,-2.689 10.317,-3.682 10.538,-4.847C10.759,-6.011 10.869,-7.316 10.869,-8.761C10.869,-10.207 10.759,-11.51 10.538,-12.675C10.317,-13.839 9.937,-14.833 9.395,-15.656C8.853,-16.478 8.108,-17.101 7.166,-17.523C6.223,-17.944 5.028,-18.155 3.583,-18.155C2.138,-18.155 0.943,-17.944 0,-17.523M-12.977,-16.288C-12.133,-18.456 -10.939,-20.272 -9.394,-21.738C-7.849,-23.203 -5.981,-24.306 -3.793,-25.049C-1.605,-25.792 0.853,-26.164 3.583,-26.164C6.312,-26.164 8.771,-25.792 10.96,-25.049C13.147,-24.306 15.014,-23.203 16.56,-21.738C18.104,-20.272 19.3,-18.456 20.143,-16.288C20.985,-14.121 21.407,-11.611 21.407,-8.761C21.407,-5.911 20.985,-3.402 20.143,-1.234C19.3,0.934 18.104,2.75 16.56,4.215C15.014,5.681 13.147,6.785 10.96,7.528C8.771,8.27 6.312,8.641 3.583,8.641C0.853,8.641 -1.605,8.27 -3.793,7.528C-5.981,6.785 -7.849,5.681 -9.394,4.215C-10.939,2.75 -12.133,0.934 -12.977,-1.234C-13.819,-3.402 -14.24,-5.911 -14.24,-8.761C-14.24,-11.611 -13.819,-14.121 -12.977,-16.288" style="fill:rgb(29,138,182);fill-rule:nonzero;"/>
                    </g>
                    <g transform="matrix(0.146803,0,0,0.146803,267.441,188.747)">
                        <path d="M0,5.902C-1.305,5.381 -2.408,4.668 -3.312,3.764C-4.215,2.861 -4.897,1.787 -5.358,0.543C-5.821,-0.702 -6.052,-2.067 -6.052,-3.552C-6.052,-4.997 -5.821,-6.352 -5.358,-7.617C-4.897,-8.881 -4.215,-9.965 -3.312,-10.869C-2.408,-11.772 -1.305,-12.484 0,-13.006C1.305,-13.528 2.801,-13.789 4.486,-13.789L25.622,-13.789L25.622,-5.901L6.534,-5.901C5.57,-5.901 4.767,-5.74 4.125,-5.419C3.482,-5.097 3.162,-4.415 3.162,-3.371C3.162,-2.327 3.482,-1.645 4.125,-1.325C4.767,-1.002 5.57,-0.842 6.534,-0.842L16.891,-0.842C18.577,-0.842 20.072,-0.581 21.377,-0.06C22.681,0.463 23.786,1.185 24.689,2.108C25.592,3.032 26.274,4.116 26.736,5.36C27.197,6.604 27.429,7.969 27.429,9.455C27.429,10.899 27.197,12.255 26.736,13.519C26.274,14.784 25.592,15.868 24.689,16.77C23.786,17.673 22.681,18.387 21.377,18.908C20.072,19.43 18.577,19.691 16.891,19.691L-6.052,19.691L-6.052,11.802L14.904,11.802C15.827,11.802 16.609,11.643 17.252,11.321C17.894,11.001 18.216,10.318 18.216,9.274C18.216,8.23 17.894,7.538 17.252,7.196C16.609,6.856 15.827,6.684 14.904,6.684L4.486,6.684C2.801,6.684 1.305,6.423 0,5.902" style="fill:rgb(29,138,182);fill-rule:nonzero;"/>
                    </g>
                    <g transform="matrix(0.146803,0,0,0.146803,76.0399,166.251)">
                        <path d="M1358.56,139.45L1368.62,139.45L1368.62,172.93L1358.56,172.93L1358.56,139.45ZM1358.56,128.069L1368.62,128.069L1368.62,136.078L1358.56,136.078L1358.56,128.069Z" style="fill:rgb(29,138,182);fill-rule:nonzero;"/>
                    </g>
                    <g transform="matrix(0.146803,0,0,0.146803,281.416,191.54)">
                        <path d="M0,-32.154C1.265,-31.713 2.408,-31.07 3.433,-30.227C4.456,-29.384 5.299,-28.32 5.961,-27.036C6.624,-25.751 6.955,-24.266 6.955,-22.58L6.955,0.663L-3.102,0.663L-3.102,-20.954C-3.102,-22.198 -3.462,-23.091 -4.185,-23.633C-4.907,-24.175 -5.711,-24.447 -6.594,-24.447L-14.302,-24.447L-14.302,0.663L-24.357,0.663L-24.357,-32.817L-3.703,-32.817C-2.499,-32.817 -1.265,-32.595 0,-32.154" style="fill:rgb(29,138,182);fill-rule:nonzero;"/>
                    </g>
                    <g transform="matrix(0.146803,0,0,0.146803,288.762,190.068)">
                        <path d="M0,-12.104C-0.101,-12.525 -0.292,-12.907 -0.572,-13.248C-0.854,-13.588 -1.215,-13.87 -1.656,-14.091C-2.098,-14.311 -2.66,-14.422 -3.342,-14.422L-8.701,-14.422L-8.701,10.688L-18.757,10.688L-18.757,-14.422L-27.609,-14.422L-27.609,10.688L-37.665,10.688L-37.665,-22.792L-0.451,-22.792C0.753,-22.792 1.987,-22.571 3.252,-22.129C4.517,-21.688 5.66,-21.045 6.685,-20.203C7.708,-19.36 8.551,-18.295 9.213,-17.011C9.876,-15.726 10.207,-14.242 10.207,-12.555L10.207,10.688L0.15,10.688L0.15,-10.929C0.15,-11.291 0.1,-11.682 0,-12.104" style="fill:rgb(29,138,182);fill-rule:nonzero;"/>
                    </g>
                    <g transform="matrix(0.146803,0,0,0.146803,292.926,190.466)">
                        <path d="M0,-17.523C-0.943,-17.101 -1.686,-16.478 -2.228,-15.656C-2.77,-14.833 -3.151,-13.839 -3.372,-12.675C-3.593,-11.51 -3.703,-10.207 -3.703,-8.761C-3.703,-7.316 -3.593,-6.011 -3.372,-4.847C-3.151,-3.682 -2.77,-2.689 -2.228,-1.867C-1.686,-1.044 -0.943,-0.421 0,-0C0.943,0.422 2.138,0.632 3.583,0.632C5.028,0.632 6.223,0.422 7.166,-0C8.108,-0.421 8.853,-1.044 9.395,-1.867C9.937,-2.689 10.317,-3.682 10.538,-4.847C10.759,-6.011 10.869,-7.316 10.869,-8.761C10.869,-10.207 10.759,-11.51 10.538,-12.675C10.317,-13.839 9.937,-14.833 9.395,-15.656C8.853,-16.478 8.108,-17.101 7.166,-17.523C6.223,-17.944 5.028,-18.155 3.583,-18.155C2.138,-18.155 0.943,-17.944 0,-17.523M-12.977,-16.288C-12.133,-18.456 -10.939,-20.272 -9.394,-21.738C-7.849,-23.203 -5.981,-24.306 -3.793,-25.049C-1.605,-25.792 0.853,-26.164 3.583,-26.164C6.312,-26.164 8.771,-25.792 10.96,-25.049C13.147,-24.306 15.014,-23.203 16.56,-21.738C18.104,-20.272 19.3,-18.456 20.143,-16.288C20.985,-14.121 21.407,-11.611 21.407,-8.761C21.407,-5.911 20.985,-3.402 20.143,-1.234C19.3,0.934 18.104,2.75 16.56,4.215C15.014,5.681 13.147,6.785 10.96,7.528C8.771,8.27 6.312,8.641 3.583,8.641C0.853,8.641 -1.605,8.27 -3.793,7.528C-5.981,6.785 -7.849,5.681 -9.394,4.215C-10.939,2.75 -12.133,0.934 -12.977,-1.234C-13.819,-3.402 -14.24,-5.911 -14.24,-8.761C-14.24,-11.611 -13.819,-14.121 -12.977,-16.288" style="fill:rgb(29,138,182);fill-rule:nonzero;"/>
                    </g>
                    <g transform="matrix(0.146803,0,0,0.146803,298.207,188.446)">
                        <path d="M0,-3.373L0,13.367L7.708,13.367C8.631,13.367 9.504,13.217 10.327,12.916C11.149,12.614 11.883,12.123 12.525,11.44C13.167,10.758 13.67,9.896 14.031,8.851C14.393,7.808 14.573,6.523 14.573,4.997C14.573,3.513 14.393,2.237 14.031,1.174C13.67,0.11 13.167,-0.763 12.525,-1.446C11.883,-2.128 11.149,-2.62 10.327,-2.921C9.504,-3.223 8.631,-3.373 7.708,-3.373L0,-3.373ZM-10.056,21.737L-10.056,-25.11L0,-25.11L0,-11.743L9.033,-11.743C14.091,-11.743 18.035,-10.328 20.865,-7.498C23.695,-4.667 25.11,-0.502 25.11,4.997C25.11,10.498 23.695,14.662 20.865,17.492C18.035,20.322 14.091,21.737 9.033,21.737L-10.056,21.737Z" style="fill:rgb(29,138,182);fill-rule:nonzero;"/>
                    </g>
                    <g transform="matrix(0.146803,0,0,0.146803,76.0399,166.251)">
                        <path d="M1543,139.45L1553.06,139.45L1553.06,172.93L1543,172.93L1543,139.45ZM1543,128.069L1553.06,128.069L1553.06,136.078L1543,136.078L1543,128.069Z" style="fill:rgb(29,138,182);fill-rule:nonzero;"/>
                    </g>
                    <g transform="matrix(0.146803,0,0,0.146803,76.0399,165.959)">
                        <rect x="1559.08" y="128.068" width="10.056" height="46.848" style="fill:rgb(29,138,182);"/>
                    </g>
                    <g transform="matrix(0.146803,0,0,0.146803,76.0399,166.251)">
                        <path d="M1575.16,139.45L1585.21,139.45L1585.21,172.93L1575.16,172.93L1575.16,139.45ZM1575.16,128.069L1585.21,128.069L1585.21,136.078L1575.16,136.078L1575.16,128.069Z" style="fill:rgb(29,138,182);fill-rule:nonzero;"/>
                    </g>
                    <g transform="matrix(0.146803,0,0,0.146803,312.855,188.632)">
                        <path d="M0,7.467L-10.177,7.467C-10.98,7.467 -11.712,7.628 -12.375,7.948C-13.037,8.271 -13.368,8.973 -13.368,10.057C-13.368,11.101 -13.048,11.783 -12.404,12.104C-11.763,12.426 -11.02,12.585 -10.177,12.585L0,12.585L0,7.467ZM-21.076,-13.007L-2.048,-13.007C-0.723,-13.007 0.651,-12.815 2.077,-12.434C3.502,-12.053 4.807,-11.389 5.991,-10.447C7.175,-9.504 8.148,-8.239 8.912,-6.653C9.674,-5.067 10.056,-3.091 10.056,-0.722L10.056,20.474L-12.826,20.474C-16.318,20.474 -18.959,19.531 -20.745,17.644C-22.531,15.757 -23.424,13.288 -23.424,10.238C-23.424,7.147 -22.531,4.657 -20.745,2.771C-18.959,0.884 -16.318,-0.059 -12.826,-0.059L0,-0.059C0,-0.662 -0.071,-1.264 -0.211,-1.866C-0.353,-2.469 -0.603,-3.011 -0.964,-3.492C-1.325,-3.973 -1.817,-4.365 -2.439,-4.667C-3.062,-4.968 -3.854,-5.118 -4.817,-5.118L-21.076,-5.118L-21.076,-13.007Z" style="fill:rgb(29,138,182);fill-rule:nonzero;"/>
                    </g>
                    <g transform="matrix(0.146803,0,0,0.146803,317.368,190.267)">
                        <path d="M0,-14.812C-0.662,-15.454 -1.496,-15.776 -2.499,-15.776L-5.209,-15.776L-5.209,9.334L-15.265,9.334L-15.265,-24.146L0.692,-24.146C1.937,-24.146 3.182,-23.905 4.426,-23.423C5.67,-22.941 6.784,-22.249 7.768,-21.345C8.751,-20.442 9.544,-19.359 10.146,-18.094C10.749,-16.83 11.05,-15.394 11.05,-13.789L11.05,-10.416L0.994,-10.416L0.994,-12.283C0.994,-13.327 0.662,-14.169 0,-14.812" style="fill:rgb(29,138,182);fill-rule:nonzero;"/>
                    </g>
                    <g transform="matrix(0.146803,0,0,0.146803,76.0399,166.251)">
                        <path d="M1659.46,139.45L1669.51,139.45L1669.51,172.93L1659.46,172.93L1659.46,139.45ZM1659.46,128.069L1669.51,128.069L1669.51,136.078L1659.46,136.078L1659.46,128.069Z" style="fill:rgb(29,138,182);fill-rule:nonzero;"/>
                    </g>
                    <g transform="matrix(0.146803,0,0,0.146803,323.882,190.466)">
                        <path d="M0,-17.523C-0.943,-17.101 -1.686,-16.478 -2.228,-15.656C-2.77,-14.833 -3.151,-13.839 -3.372,-12.675C-3.593,-11.51 -3.703,-10.207 -3.703,-8.761C-3.703,-7.316 -3.593,-6.011 -3.372,-4.847C-3.151,-3.682 -2.77,-2.689 -2.228,-1.867C-1.686,-1.044 -0.943,-0.421 0,-0C0.943,0.422 2.138,0.632 3.583,0.632C5.028,0.632 6.223,0.422 7.166,-0C8.108,-0.421 8.853,-1.044 9.395,-1.867C9.937,-2.689 10.317,-3.682 10.538,-4.847C10.759,-6.011 10.869,-7.316 10.869,-8.761C10.869,-10.207 10.759,-11.51 10.538,-12.675C10.317,-13.839 9.937,-14.833 9.395,-15.656C8.853,-16.478 8.108,-17.101 7.166,-17.523C6.223,-17.944 5.028,-18.155 3.583,-18.155C2.138,-18.155 0.943,-17.944 0,-17.523M-12.977,-16.288C-12.133,-18.456 -10.939,-20.272 -9.394,-21.738C-7.849,-23.203 -5.981,-24.306 -3.793,-25.049C-1.605,-25.792 0.853,-26.164 3.583,-26.164C6.312,-26.164 8.771,-25.792 10.96,-25.049C13.147,-24.306 15.014,-23.203 16.56,-21.738C18.104,-20.272 19.3,-18.456 20.143,-16.288C20.985,-14.121 21.407,-11.611 21.407,-8.761C21.407,-5.911 20.985,-3.402 20.143,-1.234C19.3,0.934 18.104,2.75 16.56,4.215C15.014,5.681 13.147,6.785 10.96,7.528C8.771,8.27 6.312,8.641 3.583,8.641C0.853,8.641 -1.605,8.27 -3.793,7.528C-5.981,6.785 -7.849,5.681 -9.394,4.215C-10.939,2.75 -12.133,0.934 -12.977,-1.234C-13.819,-3.402 -14.24,-5.911 -14.24,-8.761C-14.24,-11.611 -13.819,-14.121 -12.977,-16.288" style="fill:rgb(29,138,182);fill-rule:nonzero;"/>
                    </g>
                    <g transform="matrix(0.146803,0,0,0.146803,328.488,188.747)">
                        <path d="M0,5.902C-1.305,5.381 -2.408,4.668 -3.312,3.764C-4.215,2.861 -4.897,1.787 -5.358,0.543C-5.821,-0.702 -6.052,-2.067 -6.052,-3.552C-6.052,-4.997 -5.821,-6.352 -5.358,-7.617C-4.897,-8.881 -4.215,-9.965 -3.312,-10.869C-2.408,-11.772 -1.305,-12.484 0,-13.006C1.305,-13.528 2.801,-13.789 4.486,-13.789L25.622,-13.789L25.622,-5.901L6.534,-5.901C5.57,-5.901 4.767,-5.74 4.125,-5.419C3.482,-5.097 3.162,-4.415 3.162,-3.371C3.162,-2.327 3.482,-1.645 4.125,-1.325C4.767,-1.002 5.57,-0.842 6.534,-0.842L16.891,-0.842C18.577,-0.842 20.072,-0.581 21.377,-0.06C22.681,0.463 23.786,1.185 24.689,2.108C25.592,3.032 26.274,4.116 26.736,5.36C27.197,6.604 27.429,7.969 27.429,9.455C27.429,10.899 27.197,12.255 26.736,13.519C26.274,14.784 25.592,15.868 24.689,16.77C23.786,17.673 22.681,18.387 21.377,18.908C20.072,19.43 18.577,19.691 16.891,19.691L-6.052,19.691L-6.052,11.802L14.904,11.802C15.827,11.802 16.609,11.643 17.252,11.321C17.894,11.001 18.216,10.318 18.216,9.274C18.216,8.23 17.894,7.538 17.252,7.196C16.609,6.856 15.827,6.684 14.904,6.684L4.486,6.684C2.801,6.684 1.305,6.423 0,5.902" style="fill:rgb(29,138,182);fill-rule:nonzero;"/>
                    </g>
                    <g transform="matrix(-0.146803,0,0,0.146803,423.269,153.56)">
                        <rect x="616.616" y="190.725" width="1132.05" height="6" style="fill:rgb(2,73,105);"/>
                    </g>
                </g>
            </g>
        </g>
    </g>
</svg>
